# author: headus 3D tools
#  using: ply2obj v1.10
#   from: uvlayout v2.10.01
# 30 vertices
v -104.53400 1.31700 11.64600
v -107.89927 1.31700 8.33220
v -91.96931 419.44884 5.55410
v -87.84840 419.44884 10.34150
v -112.62208 1.31700 8.36850
v -97.75270 419.44884 5.60670
v -115.93600 1.31700 11.73380
v -101.81060 419.44884 10.46832
v -115.89960 1.31700 16.45659
v -101.76611 419.44884 17.29120
v -112.53429 1.31700 19.77049
v -97.64520 419.44884 22.07859
v -107.81149 1.31700 19.73408
v -91.86180 419.44884 22.02609
v -104.49770 1.31700 16.36880
v -87.80390 419.44884 17.16438
v -91.96931 429.44880 5.55410
v -87.84840 429.44880 10.34150
v -97.75270 429.44880 5.60670
v -101.81060 429.44880 10.46832
v -596.70748 432.18452 14.96350
v -596.66296 432.18452 21.78638
v -596.66296 442.18452 21.78638
v -596.70748 442.18452 14.96350
v -97.64520 429.44880 22.07859
v -101.76611 429.44880 17.29120
v -91.86180 429.44880 22.02609
v -87.80390 429.44880 17.16438
v -94.80730 429.44880 13.81637
v -110.21680 1.31700 14.05130
# 31 normals
vn 0.928127 -0.038424 -0.370079
vn 0.388909 -0.020540 -0.920985
vn 0.404291 -0.021150 -0.914332
vn 0.930110 -0.038424 -0.364982
vn -0.419917 0.009125 -0.907496
vn -0.403436 0.008515 -0.914820
vn -0.936031 0.030245 -0.350485
vn -0.933590 0.030184 -0.356833
vn -0.930782 0.030489 0.364250
vn -0.928218 0.030367 0.370414
vn -0.405268 0.009614 0.914118
vn -0.388665 0.008912 0.921290
vn 0.403620 -0.020051 0.914637
vn 0.418940 -0.020662 0.907679
vn 0.933498 -0.038180 0.356437
vn 0.935482 -0.038271 0.351187
vn 0.757828 0.000000 -0.652353
vn -0.009034 0.000000 -1.000000
vn -0.767625 0.000000 -0.640725
vn -1.000000 0.000000 0.006409
vn -0.757828 0.000000 0.652353
vn 0.009034 0.000000 1.000000
vn 0.767625 0.000000 0.640725
vn 1.000000 0.000000 -0.006409
vn 0.000000 1.000000 0.000000
vn 0.000000 1.000000 0.000000
vn 0.000000 1.000000 0.000000
vn 0.000000 1.000000 0.000000
vn -0.025667 -0.999695 0.000122
vn 0.025667 0.999695 -0.000122
vn 0.000000 -1.000000 0.000000
# 59 uv coords
vt 0.408597 0.964257
vt 0.406620 0.957042
vt 0.495504 0.488266
vt 0.501786 0.489512
vt 0.413083 0.958251
vt 0.416918 0.962981
vt 0.401316 0.960059
vt 0.584596 0.009804
vt 0.591058 0.011021
vt 0.504000 0.480141
vt 0.497383 0.478817
vt 0.964155 0.606340
vt 0.966744 0.597057
vt 0.028915 0.387736
vt 0.027324 0.397241
vt 0.415878 0.968457
vt 0.400276 0.965534
vt 0.972604 0.598681
vt 0.970033 0.607968
vt 0.022889 0.386733
vt 0.021306 0.396239
vt 0.410572 0.971472
vt 0.404110 0.970262
vt 0.977974 0.600161
vt 0.975412 0.609450
vt 0.017388 0.385819
vt 0.015809 0.395326
vt 0.983857 0.601779
vt 0.981300 0.611070
vt 0.011382 0.384823
vt 0.009804 0.394329
vt 0.990196 0.603522
vt 0.987641 0.612813
vt 0.552772 0.429568
vt 0.553642 0.425144
vt 0.946564 0.515605
vt 0.945482 0.521108
vt 0.554537 0.420718
vt 0.947786 0.509604
vt 0.551828 0.433969
vt 0.944192 0.527088
vt 0.555534 0.416303
vt 0.949233 0.503167
vt 0.942642 0.533494
vt 0.550743 0.438378
vt 0.556628 0.411921
vt 0.950697 0.497233
vt 0.545933 0.434824
vt 0.557745 0.407546
vt 0.952081 0.491798
vt 0.549497 0.430060
vt 0.558793 0.403141
vt 0.953480 0.485843
vt 0.545094 0.428932
vt 0.541180 0.431240
vt 0.540037 0.435636
vt 0.542331 0.439559
vt 0.546729 0.440716
vt 0.550662 0.438426
# 36 polygons
usemtl wire_086086086
s off
g Cylinder002
f 1/40/1 2/34/2 3/37/3 4/41/4
f 2/34/2 5/35/5 6/36/6 3/37/3
f 5/35/5 7/38/7 8/39/8 6/36/6
f 7/38/7 9/42/9 10/43/10 8/39/8
f 9/42/9 11/46/11 12/47/12 10/43/10
f 11/46/11 13/49/13 14/50/14 12/47/12
f 13/49/13 15/52/15 16/53/16 14/50/14
f 15/45/15 1/40/1 4/41/4 16/44/16
f 4/30/17 3/26/17 17/27/17 18/31/17
f 3/26/18 6/20/18 19/21/18 17/27/18
f 6/20/19 8/14/19 20/15/19 19/21/19
f 21/11/20 22/10/20 23/4/20 24/3/20
f 10/13/21 12/18/21 25/19/21 26/12/21
f 12/18/22 14/24/22 27/25/22 25/19/22
f 14/24/23 16/28/23 28/29/23 27/25/23
f 16/28/24 4/32/24 18/33/24 28/29/24
f 28/22/25 18/23/26 29/1/27
f 18/23/26 17/17/26 29/1/27
f 17/17/26 19/7/27 29/1/27
f 19/7/27 20/2/27 29/1/27
f 20/2/27 26/5/28 29/1/27
f 26/5/28 25/6/28 29/1/27
f 25/6/28 27/16/25 29/1/27
f 27/16/25 28/22/25 29/1/27
f 8/8/29 10/9/29 22/10/29 21/11/29
f 10/13/22 26/12/22 23/4/22 22/10/22
f 26/5/30 20/2/30 24/3/30 23/4/30
f 20/15/18 8/14/18 21/11/18 24/3/18
f 15/59/31 13/58/31 30/48/31
f 13/58/31 11/57/31 30/48/31
f 11/57/31 9/56/31 30/48/31
f 9/56/31 7/55/31 30/48/31
f 7/55/31 5/54/31 30/48/31
f 5/54/31 2/51/31 30/48/31
f 2/51/31 1/40/31 30/48/31
f 1/40/31 15/45/31 30/48/31
# h3dt: 30 59 31 36
