# author: headus 3D tools
#  using: ply2obj v1.10
#   from: uvlayout v2.10.01
# 92 vertices
v -306.67300 21.46800 252.67500
v -306.67300 21.46800 326.40970
v -313.29479 21.46800 326.40970
v -313.29479 21.46800 252.67500
v -304.56821 377.50500 372.81559
v -304.56439 378.54664 333.27108
v -315.39959 377.50500 333.25109
v -315.39959 377.50500 372.81559
v -306.67300 21.46800 356.52670
v -306.39438 116.96260 360.89569
v -313.57339 116.96260 360.89569
v -313.29479 21.46800 356.52670
v -147.12919 22.56250 326.43078
v -141.28339 116.96260 328.24468
v -133.59696 116.96260 360.89569
v -147.28609 21.46800 356.52670
v -311.78698 22.95570 254.83158
v -311.78236 115.47491 250.77989
v -308.18529 115.47491 250.77989
v -308.18078 22.95570 254.83158
v -472.83859 22.56250 326.43078
v -478.68440 116.96260 328.24468
v -478.68440 116.96260 248.30609
v -472.83859 22.56250 252.62490
v -156.70166 22.56250 252.62490
v -156.70166 22.56250 326.43078
v -463.26620 22.56250 356.57678
v -463.26620 22.56250 326.43078
v -59.49740 377.50500 372.81559
v -59.32248 378.54664 333.27108
v -468.76827 116.96260 248.30609
v -468.76827 116.96260 328.24468
v -313.41688 116.96260 328.24468
v -313.41688 116.96260 248.30609
v -156.84928 21.46800 356.52670
v -143.96489 116.96260 360.89569
v -476.00288 116.96260 360.89569
v -463.26620 22.56250 252.62490
v -151.19939 116.96260 248.30609
v -306.55079 116.96260 248.30609
v -148.91209 10.12521 253.06058
v -148.91209 10.12521 326.05841
v -158.37967 10.12521 326.05841
v -158.37967 10.12521 253.06058
v -471.05559 10.12451 356.00769
v -471.05559 10.12451 326.19171
v -461.58792 10.12451 326.19171
v -461.58792 10.12451 356.00769
v -43.85468 377.50500 372.81559
v -43.66866 378.54664 333.27108
v -486.37078 116.96260 360.89569
v -472.83859 22.56250 356.57678
v -141.28339 116.96260 248.30609
v -147.12919 22.56250 252.62490
v -306.55090 116.96260 328.24468
v -151.19939 116.96260 328.24468
v -560.47032 377.50500 372.81559
v -560.47032 377.50500 333.25109
v -149.06897 9.03061 355.82449
v -158.52739 9.03061 355.82449
v -471.05559 10.12451 253.19399
v -461.58792 10.12451 253.19399
v -576.11310 377.50500 372.81559
v -576.11310 377.50500 333.25109
v -548.26268 304.83984 369.49121
v -563.14324 304.83984 369.49121
v -315.13567 304.83984 369.49121
v -304.83211 304.83984 369.49121
v -71.70498 304.83984 369.49121
v -56.82458 304.83984 369.49121
v -56.63868 305.88140 331.87476
v -118.47526 305.88140 331.87476
v -305.84329 305.88140 331.87476
v -314.12139 304.83984 331.85480
v -501.35190 304.83984 331.85480
v -563.14324 304.83984 331.85480
v -56.63868 305.88140 285.97280
v -71.53006 305.88140 285.97280
v -59.32248 378.54664 285.01910
v -43.66866 378.54664 285.01910
v -304.82828 305.88140 285.97280
v -304.56439 378.54664 285.01910
v -315.13567 304.83984 285.98650
v -315.39959 377.50500 285.03280
v -548.26268 304.83984 285.98650
v -560.47032 377.50500 285.03280
v -563.14324 304.83984 285.98650
v -576.11310 377.50500 285.03280
v -311.78698 22.95570 252.60700
v -308.18078 22.95570 252.60700
v -311.78236 115.47491 248.37410
v -308.18529 115.47491 248.37410
# 46 normals
vn 0.003510 -1.000000 0.000000
vn 0.002625 -1.000000 -0.004425
vn -0.003510 -1.000000 0.000000
vn -0.023958 0.999481 0.019685
vn -0.023958 0.999695 0.006531
vn 0.000000 -0.045627 0.998932
vn 0.000000 -0.045627 0.998932
vn 0.994934 -0.079839 -0.060154
vn 0.994812 -0.080114 -0.061130
vn 0.987884 -0.097632 -0.120277
vn 0.000000 -0.043795 -0.998932
vn -0.994934 -0.079564 -0.059788
vn -0.994812 -0.080052 -0.061588
vn -0.998077 -0.061741 0.000000
vn 0.007233 -1.000000 0.000000
vn 0.005432 -0.999878 -0.009034
vn -0.007233 -1.000000 0.000000
vn 0.000000 0.999695 0.026277
vn 0.000000 1.000000 0.000000
vn 0.000000 -0.045627 -0.998932
vn 0.000000 -0.045627 -0.998932
vn 0.000000 -1.000000 0.000000
vn 0.000000 -0.999786 -0.018281
vn 0.000000 -0.999786 -0.018342
vn 0.001709 -1.000000 -0.009034
vn 0.998077 -0.061741 0.000000
vn -0.987884 -0.097418 -0.120826
vn 0.003632 -0.999786 -0.018159
vn 0.000000 -0.999298 -0.036684
vn 0.915492 -0.388726 -0.103491
vn 0.000000 0.019197 -0.999786
vn -0.915492 -0.389581 -0.100073
vn 0.984374 -0.175670 0.000000
vn 0.000000 -0.013032 -0.999878
vn -0.984374 -0.175670 0.000000
vn 0.111335 -0.993774 0.000000
vn -0.095678 0.995392 0.000000
vn 1.000000 0.000000 0.000000
vn -1.000000 0.000000 0.000000
vn 0.989898 -0.141885 0.000000
vn 0.000000 -0.056369 0.998321
vn -0.990936 0.133675 0.000000
vn -0.990936 0.133675 0.000000
vn 0.000000 -0.034975 -0.999390
vn -0.989898 -0.141885 0.000000
vn 0.990936 0.133675 0.000000
# 142 uv coords
vt 0.502410 0.092607
vt 0.502255 0.156401
vt 0.496544 0.156384
vt 0.496756 0.092592
vt 0.502356 0.491158
vt 0.502188 0.525443
vt 0.492753 0.525395
vt 0.492950 0.491105
vt 0.502162 0.182405
vt 0.501972 0.265167
vt 0.495752 0.265133
vt 0.496491 0.182382
vt 0.662379 0.157141
vt 0.336659 0.156103
vt 0.632177 0.156757
vt 0.366622 0.156094
vt 0.714718 0.492124
vt 0.714686 0.526390
vt 0.608687 0.653012
vt 0.474081 0.652924
vt 0.642705 0.265781
vt 0.355017 0.264211
vt 0.651383 0.156794
vt 0.643082 0.156707
vt 0.347558 0.155857
vt 0.355762 0.155861
vt 0.468128 0.652860
vt 0.333508 0.652779
vt 0.280592 0.489820
vt 0.280402 0.524111
vt 0.291509 0.426849
vt 0.493517 0.428062
vt 0.502466 0.428115
vt 0.704478 0.429059
vt 0.305142 0.816497
vt 0.467453 0.816428
vt 0.474648 0.815893
vt 0.636909 0.815844
vt 0.264497 0.856292
vt 0.466678 0.856186
vt 0.475628 0.855642
vt 0.677590 0.855574
vt 0.502914 0.009820
vt 0.637670 0.010910
vt 0.646258 0.010991
vt 0.640650 0.092836
vt 0.632351 0.092806
vt 0.501137 0.091325
vt 0.501416 0.011090
vt 0.643336 0.093393
vt 0.498038 0.091317
vt 0.496728 0.009803
vt 0.498221 0.011082
vt 0.651606 0.093512
vt 0.642703 0.182578
vt 0.631937 0.182841
vt 0.650675 0.182623
vt 0.640227 0.182915
vt 0.651683 0.265812
vt 0.361962 0.010130
vt 0.355853 0.092597
vt 0.366828 0.092055
vt 0.662520 0.093195
vt 0.744502 0.089630
vt 0.744408 0.158912
vt 0.661096 0.085023
vt 0.650223 0.085426
vt 0.717377 0.429117
vt 0.366573 0.182312
vt 0.355735 0.181709
vt 0.358535 0.092039
vt 0.353370 0.010165
vt 0.347559 0.092612
vt 0.744702 0.187810
vt 0.661447 0.183119
vt 0.659952 0.191264
vt 0.649078 0.190667
vt 0.728273 0.492198
vt 0.346036 0.264145
vt 0.358268 0.182315
vt 0.347593 0.181683
vt 0.922889 0.178115
vt 0.919111 0.210423
vt 0.728251 0.526463
vt 0.714491 0.568193
vt 0.501981 0.567253
vt 0.278615 0.426769
vt 0.254676 0.157804
vt 0.254638 0.088510
vt 0.336631 0.092151
vt 0.338168 0.083998
vt 0.349041 0.084545
vt 0.986498 0.184978
vt 0.982543 0.219021
vt 0.728053 0.568265
vt 0.492519 0.567174
vt 0.267037 0.489749
vt 0.336745 0.182130
vt 0.254365 0.186704
vt 0.338238 0.190286
vt 0.349110 0.189747
vt 0.926417 0.138500
vt 0.990197 0.143339
vt 0.280162 0.565898
vt 0.266847 0.524034
vt 0.079920 0.209113
vt 0.077076 0.176708
vt 0.266608 0.565816
vt 0.016477 0.217655
vt 0.013462 0.183512
vt 0.009803 0.141899
vt 0.073587 0.137116
vt 0.509911 0.956051
vt 0.429662 0.955575
vt 0.429770 0.953494
vt 0.510011 0.954126
vt 0.427684 0.953470
vt 0.427717 0.950354
vt 0.429799 0.950379
vt 0.429723 0.948299
vt 0.509969 0.949069
vt 0.510039 0.950999
vt 0.511968 0.951021
vt 0.511936 0.954146
vt 0.474124 0.583640
vt 0.608735 0.583744
vt 0.617277 0.653014
vt 0.690453 0.815828
vt 0.617326 0.583750
vt 0.468171 0.583614
vt 0.690482 0.855566
vt 0.688177 0.918543
vt 0.475812 0.918490
vt 0.333560 0.583517
vt 0.701731 0.918537
vt 0.466421 0.919275
vt 0.251569 0.816513
vt 0.324912 0.652778
vt 0.324968 0.583509
vt 0.253941 0.919259
vt 0.251592 0.856295
vt 0.240377 0.919267
# 90 polygons
usemtl wire_213154229
s off
g Box006
f 1/1/1 2/2/2 3/3/3 4/4/3
f 5/5/4 6/6/4 7/7/5 8/8/5
f 9/9/6 10/10/6 11/11/7 12/12/7
f 13/13/8 14/65/9 15/74/10 16/75/10
f 17/116/11 18/115/11 19/119/11 20/122/11
f 21/14/12 22/88/13 23/89/14 24/90/14
f 25/47/15 26/15/16 2/2/2 1/1/1
f 27/69/17 28/16/17 3/3/3 12/12/3
f 29/17/18 30/18/18 6/6/4 5/5/4
f 31/126/19 32/19/19 33/20/19 34/125/19
f 35/56/6 36/21/6 10/10/6 9/9/6
f 37/22/7 27/69/7 12/12/7 11/11/7
f 38/62/20 31/60/20 34/52/20 4/4/20
f 39/44/21 25/47/21 1/1/21 40/43/21
f 41/54/22 42/23/23 43/24/24 44/50/22
f 45/81/22 46/25/22 47/26/22 48/70/22
f 49/78/18 50/84/18 30/18/18 29/17/18
f 23/129/19 22/127/19 32/19/19 31/126/19
f 16/58/6 15/59/6 36/21/6 35/56/6
f 51/79/6 52/80/6 27/69/7 37/22/7
f 24/71/21 23/72/21 31/60/20 38/62/20
f 53/45/21 54/46/21 25/47/21 39/44/21
f 9/9/25 12/12/3 3/3/3 2/2/2
f 40/130/19 34/125/19 33/20/19 55/27/19
f 54/63/26 53/64/26 14/65/9 13/13/8
f 52/98/27 51/99/27 22/88/13 21/14/12
f 35/56/28 9/9/25 2/2/2 26/15/16
f 38/62/17 4/4/3 3/3/3 28/16/17
f 39/134/19 40/130/19 55/27/19 56/28/19
f 57/29/19 8/8/5 7/7/5 58/30/19
f 59/57/29 60/55/29 43/24/24 42/23/23
f 61/73/22 62/61/22 47/26/22 46/25/22
f 53/139/19 39/134/19 56/28/19 14/138/19
f 63/97/19 57/29/19 58/30/19 64/105/19
f 51/79/6 37/22/6 65/31/6 66/87/6
f 37/22/6 11/11/6 67/32/6 65/31/6
f 11/11/6 10/10/6 68/33/6 67/32/6
f 10/10/6 36/21/6 69/34/6 68/33/6
f 36/21/6 15/59/6 70/68/6 69/34/6
f 15/74/30 14/65/30 71/82/30 70/83/30
f 14/138/31 56/28/31 72/35/31 71/137/31
f 56/28/31 55/27/31 73/36/31 72/35/31
f 55/27/31 33/20/31 74/37/31 73/36/31
f 33/20/31 32/19/31 75/38/31 74/37/31
f 32/19/31 22/127/31 76/128/31 75/38/31
f 22/88/32 51/99/32 66/106/32 76/107/32
f 66/87/6 65/31/6 57/29/6 63/97/6
f 65/31/6 67/32/6 8/8/6 57/29/6
f 67/32/6 68/33/6 5/5/6 8/8/6
f 68/33/6 69/34/6 29/17/6 5/5/6
f 69/34/6 70/68/6 49/78/6 29/17/6
f 70/83/33 71/82/33 50/93/33 49/94/33
f 77/141/34 78/39/34 79/140/34 80/142/34
f 78/39/34 81/40/34 82/136/34 79/140/34
f 81/40/34 83/41/34 84/133/34 82/136/34
f 83/41/34 85/42/34 86/132/34 84/133/34
f 85/42/34 87/131/34 88/135/34 86/132/34
f 76/107/35 66/106/35 63/109/35 64/110/35
f 71/137/22 72/35/22 78/39/22 77/141/22
f 72/35/22 73/36/22 81/40/22 78/39/22
f 73/36/36 74/37/36 83/41/36 81/40/36
f 74/37/22 75/38/22 85/42/22 83/41/22
f 75/38/22 76/128/22 87/131/22 85/42/22
f 76/107/35 64/110/35 88/111/35 87/112/35
f 64/105/19 58/30/19 86/104/19 88/108/19
f 58/30/19 7/7/19 84/96/19 86/104/19
f 7/7/37 6/6/37 82/86/37 84/96/37
f 6/6/19 30/18/19 79/85/19 82/86/19
f 30/18/19 50/84/19 80/95/19 79/85/19
f 50/93/33 71/82/33 77/102/33 80/103/33
f 1/1/21 4/4/21 89/51/21 90/48/21
f 4/4/21 34/52/21 91/53/21 89/51/21
f 34/52/21 40/43/21 92/49/21 91/53/21
f 40/43/20 1/1/20 90/48/20 92/49/20
f 90/123/19 89/124/19 17/116/19 20/122/19
f 89/113/38 91/114/38 18/115/38 17/116/38
f 91/117/22 92/118/22 19/119/22 18/115/22
f 92/120/39 90/121/39 20/122/39 19/119/39
f 54/63/40 13/13/40 42/23/40 41/54/40
f 13/13/40 16/75/40 59/57/40 42/23/40
f 16/75/41 35/76/41 60/77/41 59/57/41
f 35/56/42 26/15/42 43/24/42 60/55/42
f 26/15/43 25/47/43 44/50/43 43/24/43
f 25/66/44 54/63/44 41/54/44 44/67/44
f 52/98/45 21/14/45 46/25/45 45/81/45
f 21/14/45 24/90/45 61/73/45 46/25/45
f 24/90/21 38/91/21 62/92/21 61/73/21
f 38/62/46 28/16/46 47/26/46 62/61/46
f 28/16/46 27/69/46 48/70/46 47/26/46
f 27/100/6 52/98/6 45/81/6 48/101/6
# h3dt: 92 142 46 90
