# author: headus 3D tools
#  using: ply2obj v1.10
#   from: uvlayout v2.10.01
# 42 vertices
v -534.96000 84.02500 285.42000
v -524.88505 84.02500 309.74312
v -533.95275 10.65400 309.74312
v -537.66220 10.65400 300.78752
v -541.37180 10.65400 291.83180
v -559.28312 84.02500 275.34503
v -550.32743 10.65400 288.12220
v -559.28312 10.65400 284.41271
v -583.60624 84.02500 285.42000
v -568.23880 10.65400 288.12220
v -577.19443 10.65400 291.83180
v -593.68125 84.02500 309.74312
v -580.90403 10.65400 300.78752
v -584.61350 10.65400 309.74312
v -583.60624 84.02500 334.06630
v -580.90403 10.65400 318.69880
v -577.19443 10.65400 327.65440
v -559.28312 84.02500 344.14122
v -568.23880 10.65400 331.36400
v -559.28312 10.65400 335.07362
v -534.96000 84.02500 334.06630
v -550.32743 10.65400 331.36400
v -541.37180 10.65400 327.65440
v -537.66220 10.65400 318.69880
v -537.87149 84.02500 288.33149
v -529.00255 84.02500 309.74312
v -559.28312 84.02500 279.46252
v -580.69474 84.02500 288.33149
v -589.56369 84.02500 309.74312
v -580.69474 84.02500 331.15471
v -559.28312 84.02500 340.02369
v -537.87149 84.02500 331.15471
v -545.82193 35.62680 296.28181
v -540.24601 35.62680 309.74312
v -559.28312 35.62680 290.70601
v -572.74430 35.62680 296.28181
v -578.32023 35.62680 309.74312
v -572.74430 35.62680 323.20442
v -559.28312 35.62680 328.78019
v -545.82193 35.62680 323.20442
v -559.28312 10.65400 309.74312
v -559.28312 35.62680 309.74312
# 29 normals
vn 0.701734 -0.122688 -0.701734
vn 0.992309 -0.122688 0.000000
vn 0.917872 -0.113319 -0.380120
vn 0.000000 -0.122688 -0.992309
vn 0.380120 -0.113319 -0.917872
vn -0.701734 -0.122688 -0.701734
vn -0.380120 -0.113319 -0.917872
vn -0.992309 -0.122688 0.000000
vn -0.917872 -0.113319 -0.380120
vn -0.701734 -0.122688 0.701734
vn -0.917872 -0.113319 0.380120
vn 0.000000 -0.122688 0.992309
vn -0.380120 -0.113319 0.917872
vn 0.701734 -0.122688 0.701734
vn 0.380120 -0.113319 0.917872
vn 0.917872 -0.113319 0.380120
vn 0.000000 1.000000 0.000000
vn -0.903223 0.209791 0.374138
vn -0.374138 0.209791 0.903223
vn 0.374138 0.209791 0.903223
vn 0.903223 0.209791 0.374138
vn 0.903223 0.209791 -0.374138
vn 0.374138 0.209791 -0.903223
vn -0.374138 0.209791 -0.903223
vn -0.903223 0.209791 -0.374138
vn 0.000000 -1.000000 0.000000
vn 0.000000 1.000000 0.000000
vn 0.000000 1.000000 0.000000
vn 0.000000 1.000000 0.000000
# 67 uv coords
vt 0.328013 0.314099
vt 0.264267 0.246197
vt 0.388443 0.381491
vt 0.445947 0.449858
vt 0.501257 0.519998
vt 0.555201 0.592633
vt 0.609989 0.668094
vt 0.820505 0.471747
vt 0.319794 0.322671
vt 0.255191 0.258114
vt 0.379571 0.389633
vt 0.436506 0.457744
vt 0.491677 0.527288
vt 0.545413 0.599193
vt 0.596758 0.674737
vt 0.891200 0.411359
vt 0.848382 0.496258
vt 0.874058 0.526652
vt 0.670543 0.746302
vt 0.775268 0.404631
vt 0.802571 0.438680
vt 0.791525 0.402126
vt 0.809412 0.368420
vt 0.639703 0.755244
vt 0.723998 0.335168
vt 0.750720 0.370007
vt 0.827205 0.334663
vt 0.863725 0.323346
vt 0.443705 0.810617
vt 0.418140 0.755564
vt 0.379134 0.699330
vt 0.669344 0.265697
vt 0.697436 0.300197
vt 0.900257 0.312064
vt 0.934158 0.329958
vt 0.334181 0.640669
vt 0.612164 0.197894
vt 0.641238 0.231209
vt 0.967985 0.347989
vt 0.979199 0.384710
vt 0.286556 0.581071
vt 0.553807 0.133056
vt 0.583188 0.164497
vt 0.990196 0.421497
vt 0.971994 0.455292
vt 0.238133 0.522546
vt 0.496775 0.071603
vt 0.524969 0.101179
vt 0.953601 0.488983
vt 0.916855 0.499793
vt 0.190374 0.467435
vt 0.197286 0.173576
vt 0.447906 0.009804
vt 0.470069 0.040912
vt 0.880070 0.510472
vt 0.846620 0.492032
vt 0.144141 0.419076
vt 0.183137 0.202128
vt 0.095388 0.386615
vt 0.083450 0.461817
vt 0.157329 0.474642
vt 0.126762 0.523097
vt 0.070732 0.535678
vt 0.022165 0.504801
vt 0.009804 0.448524
vt 0.040995 0.400115
vt 0.097200 0.388124
# 40 polygons
usemtl wire_087225087
s off
g Cylinder003
f 1/1/1 2/2/2 3/47/2 4/48/3 5/42/1
f 6/3/4 1/1/1 5/42/1 7/43/5 8/37/4
f 9/4/6 6/3/4 8/37/4 10/38/7 11/32/6
f 12/5/8 9/4/6 11/32/6 13/33/9 14/25/8
f 15/6/10 12/5/8 14/25/8 16/26/11 17/20/10
f 18/7/12 15/6/10 17/20/10 19/21/13 20/8/12
f 21/19/14 18/7/12 20/8/12 22/17/15 23/18/14
f 2/2/2 21/52/14 23/53/14 24/54/16 3/47/2
f 2/2/17 1/1/17 25/9/17 26/10/17
f 1/1/17 6/3/17 27/11/17 25/9/17
f 6/3/17 9/4/17 28/12/17 27/11/17
f 9/4/17 12/5/17 29/13/17 28/12/17
f 12/5/17 15/6/17 30/14/17 29/13/17
f 15/6/17 18/7/17 31/15/17 30/14/17
f 18/7/17 21/19/17 32/24/17 31/15/17
f 21/52/17 2/2/17 26/10/17 32/58/17
f 26/10/18 25/9/18 33/51/18 34/57/18
f 25/9/19 27/11/19 35/46/19 33/51/19
f 27/11/20 28/12/20 36/41/20 35/46/20
f 28/12/21 29/13/21 37/36/21 36/41/21
f 29/13/22 30/14/22 38/31/22 37/36/22
f 30/14/23 31/15/23 39/30/23 38/31/23
f 31/15/24 32/24/24 40/29/24 39/30/24
f 32/58/25 26/10/25 34/57/25 40/59/25
f 22/17/26 20/8/26 19/21/26 41/16/26
f 19/21/26 17/22/26 16/23/26 41/16/26
f 16/23/26 14/27/26 13/28/26 41/16/26
f 13/28/26 11/34/26 10/35/26 41/16/26
f 10/35/26 8/39/26 7/40/26 41/16/26
f 7/40/26 5/44/26 4/45/26 41/16/26
f 4/45/26 3/49/26 24/50/26 41/16/26
f 24/50/26 23/55/26 22/56/26 41/16/26
f 40/59/27 34/57/27 42/60/27
f 34/57/27 33/61/17 42/60/27
f 33/61/17 35/62/28 42/60/27
f 35/62/28 36/63/28 42/60/27
f 36/63/28 37/64/29 42/60/27
f 37/64/29 38/65/29 42/60/27
f 38/65/29 39/66/27 42/60/27
f 39/66/27 40/67/27 42/60/27
# h3dt: 42 67 29 40
