# author: headus 3D tools
#  using: ply2obj v1.10
#   from: uvlayout v2.10.01
# 80 vertices
v -510.27600 257.56600 775.10600
v -832.84490 257.56600 775.10600
v -832.84490 257.56600 658.45378
v -510.27600 257.56600 658.45378
v -508.16091 269.98439 775.85612
v -508.16091 269.98439 657.67412
v -834.95994 269.98439 657.67412
v -834.95994 269.98439 775.85612
v -776.16876 9.30120 678.62278
v -780.94718 9.30120 681.38158
v -835.64056 358.64360 663.11778
v -828.47294 358.64360 658.97948
v -780.94718 9.30120 686.89927
v -835.64056 358.64360 671.39427
v -776.16876 9.30120 689.65813
v -828.47294 358.64360 675.53251
v -771.39030 9.30120 686.89927
v -821.30510 358.64360 671.39427
v -771.39030 9.30120 681.38158
v -821.30510 358.64360 663.11773
v -776.16876 9.30120 750.74194
v -780.94718 9.30120 753.50078
v -835.64056 358.64360 771.29650
v -828.47294 358.64360 767.15819
v -780.94718 9.30120 759.01842
v -835.64056 358.64360 779.57298
v -776.16876 9.30120 761.77733
v -828.47294 358.64360 783.71122
v -771.39030 9.30120 759.01842
v -821.30510 358.64360 779.57298
v -771.39030 9.30120 753.50078
v -821.30510 358.64360 771.29650
v -565.67349 9.30120 678.62278
v -570.45187 9.30120 681.38158
v -519.89767 358.64360 663.11773
v -512.73001 358.64360 658.97948
v -570.45187 9.30120 686.89927
v -519.89767 358.64360 671.39427
v -565.67349 9.30120 689.65813
v -512.73001 358.64360 675.53251
v -560.89499 9.30120 686.89927
v -505.56232 358.64360 671.39427
v -560.89499 9.30120 681.38158
v -505.56232 358.64360 663.11773
v -565.67349 9.30120 750.74194
v -570.45187 9.30120 753.50078
v -519.89767 358.64360 771.29637
v -512.73001 358.64360 767.15819
v -570.45187 9.30120 759.01842
v -519.89767 358.64360 779.57298
v -565.67349 9.30120 761.77733
v -512.73001 358.64360 783.71122
v -560.89499 9.30120 759.01842
v -505.56232 358.64360 779.57298
v -560.89499 9.30120 753.50078
v -505.56232 358.64360 771.29637
v -527.22236 158.06901 769.09630
v -815.89856 158.06901 769.09630
v -815.89856 158.06901 664.70080
v -527.22236 158.06901 664.70080
v -525.10731 170.48740 769.84642
v -525.10731 170.48740 663.92112
v -818.01360 170.48740 663.92112
v -818.01360 170.48740 769.84642
v -543.00691 65.39348 763.49858
v -800.11400 65.39348 763.49858
v -800.11400 65.39348 670.51958
v -543.00691 65.39348 670.51958
v -540.89181 77.81200 764.24871
v -540.89181 77.81200 669.73991
v -802.22924 77.81200 669.73991
v -802.22924 77.81200 764.24871
v -776.16876 9.30120 684.14042
v -828.47294 358.64360 667.25603
v -776.16876 9.30120 756.25963
v -828.47294 358.64360 775.43467
v -565.67349 9.30120 684.14042
v -512.73001 358.64360 667.25603
v -565.67349 9.30120 756.25963
v -512.73001 358.64360 775.43467
# 59 normals
vn 0.524232 -0.635873 0.566288
vn -0.524232 -0.635873 0.566288
vn -0.524324 -0.636574 -0.565495
vn 0.524324 -0.636574 -0.565495
vn 0.624092 0.516236 0.586309
vn 0.623909 0.515626 -0.587072
vn -0.623909 0.515626 -0.587072
vn -0.624092 0.516236 0.586309
vn 0.037692 -0.628090 -0.777178
vn -0.639138 -0.669383 -0.378594
vn -0.727797 0.549014 -0.410883
vn -0.037173 0.585943 -0.809315
vn -0.642617 -0.650278 0.405085
vn -0.728072 0.565678 0.387109
vn 0.037295 -0.591925 0.805011
vn -0.037569 0.622200 0.781939
vn 0.724379 -0.554935 0.408899
vn 0.643594 0.663676 0.381127
vn 0.724593 -0.571599 -0.384911
vn 0.646921 0.644479 -0.407435
vn 0.037295 -0.589483 -0.806812
vn -0.642923 -0.648813 -0.406885
vn -0.728072 0.566624 -0.385491
vn -0.037569 0.624580 -0.779924
vn -0.638924 -0.670512 0.376885
vn -0.727797 0.547885 0.412409
vn 0.037692 -0.630471 0.775285
vn -0.037173 0.583593 0.811115
vn 0.724593 -0.572514 0.383385
vn 0.647134 0.643014 0.409235
vn 0.724379 -0.553775 -0.410425
vn 0.643228 0.664927 -0.379326
vn -0.038058 -0.627999 -0.777300
vn -0.725020 -0.570927 -0.384911
vn -0.646371 0.644937 -0.407435
vn 0.037692 0.585943 -0.809437
vn -0.724837 -0.554386 0.408899
vn -0.642923 0.664225 0.381035
vn -0.037783 -0.591833 0.805011
vn 0.038058 0.622017 0.781939
vn 0.642190 -0.650736 0.404993
vn 0.728530 0.565037 0.387109
vn 0.638589 -0.669932 -0.378594
vn 0.728194 0.548495 -0.410883
vn -0.037692 -0.589391 -0.806812
vn -0.724837 -0.553134 -0.410425
vn -0.642709 0.665476 -0.379235
vn 0.038058 0.624580 -0.779924
vn -0.725020 -0.571995 0.383385
vn -0.646615 0.643686 0.409235
vn -0.038058 -0.630379 0.775285
vn 0.037569 0.583471 0.811115
vn 0.638375 -0.671184 0.376793
vn 0.728194 0.547214 0.412409
vn 0.642373 -0.649332 -0.406794
vn 0.728530 0.566075 -0.385583
vn 0.000000 -1.000000 0.000000
vn 0.000000 1.000000 0.000000
vn 0.000000 -1.000000 0.000000
# 146 uv coords
vt 0.964128 0.211443
vt 0.405496 0.216788
vt 0.398101 0.212127
vt 0.405812 0.208061
vt 0.964596 0.198368
vt 0.975689 0.205334
vt 0.398909 0.202700
vt 0.406982 0.199408
vt 0.966337 0.185399
vt 0.976700 0.193415
vt 0.399790 0.194443
vt 0.407668 0.190712
vt 0.967350 0.172343
vt 0.978144 0.179772
vt 0.399781 0.186957
vt 0.406960 0.182020
vt 0.966276 0.159294
vt 0.978112 0.164911
vt 0.398701 0.179179
vt 0.405277 0.173465
vt 0.403933 0.164848
vt 0.961713 0.133508
vt 0.963737 0.146446
vt 0.976131 0.150697
vt 0.397137 0.170299
vt 0.973929 0.138248
vt 0.401268 0.074292
vt 0.959397 0.041984
vt 0.403089 0.082841
vt 0.394788 0.080144
vt 0.971847 0.046007
vt 0.962126 0.054771
vt 0.404376 0.091503
vt 0.396258 0.088288
vt 0.974301 0.059550
vt 0.964055 0.067687
vt 0.404251 0.100254
vt 0.396757 0.095775
vt 0.975291 0.074383
vt 0.963860 0.080748
vt 0.403173 0.108932
vt 0.396212 0.103666
vt 0.974297 0.088637
vt 0.962237 0.093717
vt 0.402500 0.117651
vt 0.395301 0.112714
vt 0.973032 0.101109
vt 0.961222 0.106748
vt 0.962141 0.119794
vt 0.403112 0.126368
vt 0.395267 0.122543
vt 0.972991 0.112470
vt 0.415491 0.259953
vt 0.975388 0.253314
vt 0.414228 0.268603
vt 0.407380 0.263191
vt 0.985653 0.261425
vt 0.973487 0.266249
vt 0.413316 0.277314
vt 0.406255 0.272178
vt 0.984073 0.273929
vt 0.972113 0.279235
vt 0.413678 0.286064
vt 0.405948 0.282007
vt 0.983709 0.285281
vt 0.972654 0.292280
vt 0.414896 0.294731
vt 0.406803 0.291455
vt 0.984792 0.297156
vt 0.974481 0.305216
vt 0.415628 0.303443
vt 0.407732 0.299726
vt 0.986325 0.310773
vt 0.975578 0.318243
vt 0.974561 0.331287
vt 0.414954 0.312151
vt 0.407757 0.307219
vt 0.986371 0.325641
vt 0.420162 0.342022
vt 0.979961 0.366641
vt 0.418864 0.350644
vt 0.412037 0.345221
vt 0.990196 0.374793
vt 0.978009 0.379591
vt 0.417033 0.359168
vt 0.410558 0.353332
vt 0.987717 0.388366
vt 0.975255 0.392395
vt 0.416024 0.367827
vt 0.409021 0.362633
vt 0.985755 0.400203
vt 0.973735 0.405404
vt 0.416317 0.376531
vt 0.408616 0.372444
vt 0.985279 0.411575
vt 0.974162 0.418505
vt 0.417014 0.385217
vt 0.409133 0.381491
vt 0.985980 0.424129
vt 0.975197 0.431568
vt 0.974780 0.444655
vt 0.416739 0.393936
vt 0.409323 0.389351
vt 0.986320 0.438460
vt 0.430713 0.910275
vt 0.430110 0.723365
vt 0.946963 0.721694
vt 0.947566 0.908607
vt 0.943552 0.702020
vt 0.433389 0.703682
vt 0.432792 0.519196
vt 0.429381 0.499537
vt 0.946233 0.497830
vt 0.942954 0.517523
vt 0.962876 0.516274
vt 0.963476 0.703186
vt 0.413466 0.704984
vt 0.412868 0.518072
vt 0.009804 0.488258
vt 0.177327 0.486789
vt 0.181397 0.950022
vt 0.013877 0.951493
vt 0.201050 0.946514
vt 0.197029 0.489968
vt 0.362121 0.488530
vt 0.381755 0.485012
vt 0.385879 0.948244
vt 0.366161 0.945072
vt 0.367512 0.964988
vt 0.199990 0.966445
vt 0.195624 0.470047
vt 0.363146 0.468607
vt 0.044002 0.026110
vt 0.193472 0.026353
vt 0.192807 0.439675
vt 0.043335 0.439433
vt 0.212494 0.436367
vt 0.213141 0.029734
vt 0.360187 0.029977
vt 0.379857 0.026663
vt 0.379235 0.439985
vt 0.359553 0.436609
vt 0.360701 0.456537
vt 0.211229 0.456287
vt 0.211941 0.009804
vt 0.361413 0.010061
# 90 polygons
usemtl wire_153228153
s 2
g Box009
f 1/111/1 2/114/2 3/109/3 4/110/4
s 4
f 5/105/5 6/106/6 7/107/7 8/108/8
s 8
f 1/111/1 4/110/4 6/117/6 5/118/5
s 16
f 4/110/4 3/109/3 7/107/7 6/106/6
s 32
f 3/109/3 2/114/2 8/115/8 7/116/7
s 64
f 2/114/2 1/111/1 5/112/5 8/113/8
s 8
f 9/8/9 10/12/10 11/13/11 12/9/12
f 10/12/10 13/16/13 14/17/14 11/13/11
f 13/16/13 15/20/15 16/23/16 14/17/14
f 15/20/15 17/21/17 18/22/18 16/23/16
f 17/2/17 19/4/19 20/5/20 18/1/18
f 19/4/19 9/8/9 12/9/12 20/5/20
f 21/41/21 22/37/22 23/40/23 24/44/24
f 22/37/22 25/33/25 26/36/26 23/40/23
f 25/33/25 27/29/27 28/32/28 26/36/26
f 27/29/27 29/27/29 30/28/30 28/32/28
f 29/50/29 31/45/31 32/48/32 30/49/30
f 31/45/31 21/41/21 24/44/24 32/48/32
f 33/67/33 34/63/34 35/66/35 36/70/36
f 34/63/34 37/59/37 38/62/38 35/66/35
f 37/59/37 39/55/39 40/58/40 38/62/38
f 39/55/39 41/53/41 42/54/42 40/58/40
f 41/76/41 43/71/43 44/74/44 42/75/42
f 43/71/43 33/67/33 36/70/36 44/74/44
f 45/93/45 46/89/46 47/92/47 48/96/48
f 46/89/46 49/85/49 50/88/50 47/92/47
f 49/85/49 51/81/51 52/84/52 50/88/50
f 51/81/51 53/79/53 54/80/54 52/84/52
f 53/102/53 55/97/55 56/100/56 54/101/54
f 55/97/55 45/93/45 48/96/48 56/100/56
s 2
f 57/125/1 58/128/2 59/123/3 60/124/4
s 4
f 61/119/5 62/120/6 63/121/7 64/122/8
s 8
f 57/125/1 60/124/4 62/131/6 61/132/5
s 16
f 60/124/4 59/123/3 63/121/7 62/120/6
s 32
f 59/123/3 58/128/2 64/129/8 63/130/7
s 64
f 58/128/2 57/125/1 61/126/5 64/127/8
s 2
f 65/139/1 66/142/2 67/137/3 68/138/4
s 4
f 69/133/5 70/134/6 71/135/7 72/136/8
s 8
f 65/139/1 68/138/4 70/145/6 69/146/5
s 16
f 68/138/4 67/137/3 71/135/7 70/134/6
s 32
f 67/137/3 66/142/2 72/143/8 71/144/7
s 64
f 66/142/2 65/139/1 69/140/5 72/141/8
s 1
f 19/4/19 17/2/17 73/3/57
f 17/21/17 15/20/15 73/25/57
f 15/20/15 13/16/13 73/19/57
f 13/16/13 10/12/10 73/15/57
f 10/12/10 9/8/9 73/11/57
f 9/8/9 19/4/19 73/7/57
f 20/5/20 12/9/12 74/10/58
f 12/9/12 11/13/11 74/14/58
f 11/13/11 14/17/14 74/18/58
f 14/17/14 16/23/16 74/24/58
f 16/23/16 18/22/18 74/26/58
f 18/1/18 20/5/20 74/6/58
f 31/45/31 29/50/29 75/51/59
f 29/27/29 27/29/27 75/30/59
f 27/29/27 25/33/25 75/34/59
f 25/33/25 22/37/22 75/38/59
f 22/37/22 21/41/21 75/42/59
f 21/41/21 31/45/31 75/46/59
f 32/48/32 24/44/24 76/47/58
f 24/44/24 23/40/23 76/43/58
f 23/40/23 26/36/26 76/39/58
f 26/36/26 28/32/28 76/35/58
f 28/32/28 30/28/30 76/31/58
f 30/49/30 32/48/32 76/52/58
f 43/71/43 41/76/41 77/77/57
f 41/53/41 39/55/39 77/56/57
f 39/55/39 37/59/37 77/60/57
f 37/59/37 34/63/34 77/64/57
f 34/63/34 33/67/33 77/68/57
f 33/67/33 43/71/43 77/72/57
f 44/74/44 36/70/36 78/73/58
f 36/70/36 35/66/35 78/69/58
f 35/66/35 38/62/38 78/65/58
f 38/62/38 40/58/40 78/61/58
f 40/58/40 42/54/42 78/57/58
f 42/75/42 44/74/44 78/78/58
f 55/97/55 53/102/53 79/103/59
f 53/79/53 51/81/51 79/82/59
f 51/81/51 49/85/49 79/86/59
f 49/85/49 46/89/46 79/90/59
f 46/89/46 45/93/45 79/94/59
f 45/93/45 55/97/55 79/98/59
f 56/100/56 48/96/48 80/99/58
f 48/96/48 47/92/47 80/95/58
f 47/92/47 50/88/50 80/91/58
f 50/88/50 52/84/52 80/87/58
f 52/84/52 54/80/54 80/83/58
f 54/101/54 56/100/56 80/104/58
# h3dt: 80 146 59 90
