# author: headus 3D tools
#  using: ply2obj v1.10
#   from: uvlayout v2.10.01
# 156 vertices
v 71.4270 0.0000 707.6980
v 71.4270 0.0000 52.2481
v 92.3794 0.0000 52.2481
v 92.3794 0.0000 707.6980
v 67.2366 481.3667 807.5072
v 96.5698 481.3667 807.5072
v 96.5698 482.1346 -78.8419
v 67.2366 482.1346 -78.8419
v 94.0943 197.3183 761.3479
v 94.4701 240.5574 773.1044
v 69.3363 240.5574 773.1044
v 69.7121 197.3183 761.3479
v 94.0943 197.3183 -1.4018
v 94.4701 240.5574 -13.1583
v 69.7121 197.3183 -1.4018
v 69.3363 240.5574 -13.1583
v 95.7857 391.9297 814.2618
v 96.1852 442.2253 782.8620
v 67.6212 442.2253 782.8620
v 68.0207 391.9297 814.2618
v 95.3628 343.2767 801.0333
v 95.7387 386.5160 812.7898
v 68.0677 386.5160 812.7898
v 68.4435 343.2767 801.0333
v 94.9401 294.6240 787.8048
v 95.3159 337.8631 799.5614
v 68.4905 337.8631 799.5614
v 68.8665 294.6240 787.8048
v 94.5172 245.9711 774.5764
v 94.8930 289.2102 786.3329
v 68.9133 289.2102 786.3329
v 69.2891 245.9711 774.5764
v 71.0278 45.9460 720.1905
v 92.7787 45.9460 720.1905
v 70.6049 94.5989 733.4190
v 70.9807 51.3597 721.6625
v 92.8257 51.3597 721.6625
v 93.2016 94.5989 733.4190
v 70.1819 143.2517 746.6474
v 70.5577 100.0126 734.8910
v 93.2486 100.0126 734.8910
v 93.6244 143.2517 746.6474
v 69.7591 191.9046 759.8760
v 70.1350 148.6653 748.1194
v 93.6713 148.6653 748.1194
v 94.0473 191.9046 759.8760
v 95.7857 391.9297 -54.3156
v 96.1852 437.8757 -66.8080
v 95.3628 343.2767 -41.0871
v 95.7387 386.5160 -52.8437
v 94.9401 294.6240 -27.8587
v 95.3159 337.8631 -39.6152
v 94.5172 245.9711 -14.6302
v 94.8930 289.2102 -26.3867
v 92.7787 45.9460 39.7556
v 92.8257 51.3597 38.2836
v 93.2016 94.5989 26.5271
v 93.2486 100.0126 25.0552
v 93.6244 143.2517 13.2988
v 93.6713 148.6653 11.8268
v 94.0473 191.9046 0.0703
v 68.0207 391.9297 -54.3156
v 67.6212 437.8757 -66.8080
v 68.4435 343.2767 -41.0871
v 68.0677 386.5160 -52.8437
v 68.8665 294.6240 -27.8587
v 68.4905 337.8631 -39.6152
v 69.2891 245.9711 -14.6302
v 68.9133 289.2102 -26.3867
v 71.0278 45.9460 39.7556
v 70.9807 51.3597 38.2836
v 70.6049 94.5989 26.5271
v 70.5577 100.0126 25.0552
v 70.1819 143.2517 13.2988
v 70.1350 148.6653 11.8268
v 69.7591 191.9046 0.0703
v 91.7173 386.5160 808.7684
v 91.7507 391.9297 810.2266
v 72.0557 391.9297 810.2266
v 72.0890 386.5160 808.7684
v 91.4174 337.8631 795.6628
v 91.4507 343.2767 797.1210
v 72.3556 343.2767 797.1210
v 72.3889 337.8631 795.6628
v 91.1172 289.2102 782.5573
v 91.1508 294.6240 784.0155
v 72.6555 294.6240 784.0155
v 72.6889 289.2102 782.5572
v 90.8175 240.5574 769.4517
v 90.8507 245.9711 770.9100
v 72.9555 245.9711 770.9100
v 72.9889 240.5574 769.4517
v 74.1554 51.3597 718.4877
v 74.1887 45.9460 717.0295
v 89.6175 45.9460 717.0295
v 89.6509 51.3597 718.4877
v 73.8553 100.0126 731.5933
v 73.8887 94.5989 730.1350
v 89.9176 94.5989 730.1350
v 89.9510 100.0126 731.5933
v 73.5554 148.6653 744.6988
v 73.5888 143.2517 743.2406
v 90.2175 143.2517 743.2406
v 90.2508 148.6653 744.6988
v 73.2554 197.3183 757.8044
v 73.2889 191.9046 756.3462
v 90.5175 191.9046 756.3462
v 90.5509 197.3183 757.8044
v 91.7173 386.5160 -48.8222
v 91.7507 391.9297 -50.2804
v 91.4174 337.8631 -35.7167
v 91.4507 343.2767 -37.1749
v 91.1172 289.2102 -22.6112
v 91.1508 294.6240 -24.0694
v 90.8175 240.5574 -9.5055
v 90.8507 245.9711 -10.9639
v 89.6175 45.9460 42.9167
v 89.6509 51.3597 41.4584
v 89.9176 94.5989 29.8111
v 89.9510 100.0126 28.3529
v 90.2175 143.2517 16.7055
v 90.2508 148.6653 15.2473
v 90.5175 191.9046 3.6001
v 90.5509 197.3183 2.1417
v 72.0890 386.5160 -48.8222
v 72.0557 391.9297 -50.2804
v 72.3889 337.8631 -35.7167
v 72.3556 343.2767 -37.1749
v 72.6889 289.2102 -22.6112
v 72.6555 294.6240 -24.0694
v 72.9889 240.5574 -9.5055
v 72.9555 245.9711 -10.9639
v 74.1887 45.9460 42.9167
v 74.1554 51.3597 41.4584
v 73.8887 94.5989 29.8111
v 73.8553 100.0126 28.3529
v 73.5888 143.2517 16.7055
v 73.5554 148.6653 15.2473
v 73.2889 191.9046 3.6001
v 73.2554 197.3183 2.1417
v 36.7025 438.9222 830.1777
v 127.1039 438.9222 830.1777
v 128.3213 484.1340 839.1378
v 35.4851 484.1340 839.1378
v 127.1039 437.8757 -97.7269
v 128.3213 482.1346 -110.5934
v 36.7025 437.8757 -97.7269
v 35.4851 482.1346 -110.5934
v 71.4223 -3.7938 702.5245
v 92.3841 -3.7938 702.5245
v 115.0743 -7.8141 741.6427
v 48.7321 -7.8141 741.6427
v 92.3841 0.5558 52.0971
v 71.4223 0.5558 52.0971
v 48.7321 0.5558 29.4070
v 115.0743 0.5558 29.4070
# 42 normals
vn -0.589575 -0.642587 0.489257
vn -0.589575 -0.642587 -0.489257
vn 0.589575 -0.642587 -0.489257
vn 0.589575 -0.642587 0.489257
vn 0.032900 0.998810 -0.032198
vn -0.032900 0.998810 -0.032198
vn 0.000214 1.000000 0.000427
vn -0.000214 1.000000 0.000427
vn 0.567021 0.499329 0.654917
vn -0.567021 0.499329 0.654917
vn 0.567021 0.499329 -0.654917
vn -0.567021 0.499329 -0.654917
vn 0.551639 -0.404993 0.729018
vn 0.884087 -0.357383 -0.300922
vn -0.884087 -0.357383 -0.300922
vn -0.551639 -0.404993 0.729018
vn 0.729232 -0.585180 0.354270
vn -0.729232 -0.585180 0.354270
vn 0.373588 0.874199 0.310200
vn 0.237594 -0.931667 0.274522
vn -0.237594 -0.931667 0.274522
vn -0.373588 0.874199 0.310200
vn 0.373588 0.874199 -0.310200
vn 0.237594 -0.931667 -0.274522
vn -0.373588 0.874199 -0.310200
vn -0.237594 -0.931667 -0.274522
vn -0.752518 -0.287127 0.592413
vn 0.752518 -0.287127 0.592413
vn 0.566624 0.534395 0.627022
vn -0.566624 0.534395 0.627022
vn 0.739791 -0.388116 -0.549533
vn 0.571232 0.489776 -0.658426
vn -0.739791 -0.388116 -0.549533
vn -0.571232 0.489776 -0.658426
vn -0.395196 -0.511170 -0.763200
vn 0.395196 -0.511170 -0.763200
vn 0.721510 -0.614692 0.318409
vn -0.721510 -0.614692 0.318409
vn 0.303913 -0.536013 0.787432
vn -0.303913 -0.536013 0.787432
vn -0.794696 -0.577886 -0.185528
vn 0.794696 -0.577886 -0.185528
# 367 uv coords
vt 0.074152 0.720623
vt 0.060348 0.720652
vt 0.063305 0.303111
vt 0.077129 0.303102
vt 0.347242 0.499206
vt 0.411328 0.494727
vt 0.377480 0.485239
vt 0.383080 0.893246
vt 0.882325 0.964600
vt 0.903295 0.963404
vt 0.315270 0.498135
vt 0.352781 0.877871
vt 0.045352 0.735662
vt 0.089097 0.735477
vt 0.115341 0.759864
vt 0.110999 0.973321
vt 0.089698 0.971349
vt 0.079526 0.990162
vt 0.069655 0.990433
vt 0.058456 0.972199
vt 0.020037 0.762560
vt 0.037328 0.975360
vt 0.092138 0.288169
vt 0.048408 0.288124
vt 0.127490 0.308938
vt 0.125123 0.709203
vt 0.009567 0.708774
vt 0.012903 0.308516
vt 0.029042 0.261099
vt 0.041801 0.047979
vt 0.056432 0.051737
vt 0.067189 0.041119
vt 0.077064 0.041188
vt 0.087684 0.051958
vt 0.111604 0.261715
vt 0.102388 0.048412
vt 0.088858 0.756821
vt 0.110381 0.731400
vt 0.091590 0.266522
vt 0.113012 0.294285
vt 0.027540 0.294070
vt 0.049003 0.266269
vt 0.046285 0.757814
vt 0.024039 0.731179
vt 0.778708 0.660563
vt 0.137892 0.463398
vt 0.138081 0.440968
vt 0.147952 0.440969
vt 0.148139 0.463399
vt 0.138128 0.132193
vt 0.147998 0.132196
vt 0.148195 0.109766
vt 0.137949 0.109762
vt 0.137547 0.476137
vt 0.151003 0.476144
vt 0.149114 0.689638
vt 0.139239 0.689633
vt 0.148621 0.924736
vt 0.135165 0.924736
vt 0.136956 0.711242
vt 0.146831 0.711242
vt 0.181298 0.925165
vt 0.160925 0.930736
vt 0.160307 0.522948
vt 0.180675 0.528454
vt 0.159017 0.928845
vt 0.158427 0.524846
vt 0.186262 0.508192
vt 0.165891 0.513766
vt 0.165233 0.118441
vt 0.185603 0.123945
vt 0.164042 0.511932
vt 0.163409 0.120281
vt 0.192131 0.915947
vt 0.190339 0.914171
vt 0.189699 0.534868
vt 0.191465 0.533086
vt 0.212500 0.910372
vt 0.211835 0.538588
vt 0.213395 0.509621
vt 0.193024 0.515197
vt 0.192358 0.144800
vt 0.212729 0.150301
vt 0.191291 0.513480
vt 0.190651 0.146524
vt 0.225702 0.544238
vt 0.246075 0.549737
vt 0.246727 0.896594
vt 0.226360 0.902171
vt 0.224686 0.900511
vt 0.224050 0.545904
vt 0.224579 0.157979
vt 0.244958 0.163478
vt 0.245604 0.497871
vt 0.225243 0.503449
vt 0.223633 0.501848
vt 0.222979 0.159587
vt 0.263123 0.547550
vt 0.283495 0.553060
vt 0.283951 0.874990
vt 0.263582 0.880557
vt 0.262027 0.879012
vt 0.261584 0.549099
vt 0.292024 0.920602
vt 0.291677 0.520328
vt 0.313358 0.526083
vt 0.315808 0.935250
vt 0.309026 0.946432
vt 0.285046 0.932108
vt 0.256840 0.128250
vt 0.278477 0.122334
vt 0.281117 0.522598
vt 0.257444 0.537425
vt 0.654119 0.915956
vt 0.651479 0.915921
vt 0.651660 0.906618
vt 0.654301 0.906655
vt 0.758098 0.515787
vt 0.760557 0.516374
vt 0.757645 0.507176
vt 0.760001 0.506293
vt 0.598056 0.134940
vt 0.600671 0.134567
vt 0.807778 0.172409
vt 0.807761 0.149981
vt 0.821217 0.150084
vt 0.820859 0.172513
vt 0.818943 0.174399
vt 0.809670 0.174318
vt 0.807030 0.581587
vt 0.808924 0.579679
vt 0.820107 0.581477
vt 0.818207 0.579575
vt 0.824353 0.172332
vt 0.822433 0.174214
vt 0.440574 0.123686
vt 0.439902 0.102626
vt 0.452935 0.102327
vt 0.453243 0.123434
vt 0.441750 0.100697
vt 0.450994 0.100484
vt 0.451436 0.125319
vt 0.442436 0.125499
vt 0.438609 0.520363
vt 0.440461 0.518529
vt 0.684208 0.898928
vt 0.784791 0.519312
vt 0.787253 0.519886
vt 0.686849 0.898945
vt 0.686745 0.907962
vt 0.684104 0.907948
vt 0.784326 0.510987
vt 0.786680 0.510099
vt 0.628817 0.150439
vt 0.631431 0.150061
vt 0.461549 0.124195
vt 0.460860 0.103136
vt 0.473494 0.102837
vt 0.473818 0.123943
vt 0.462649 0.101265
vt 0.471611 0.101051
vt 0.472070 0.125770
vt 0.463352 0.125950
vt 0.459388 0.508407
vt 0.461184 0.506632
vt 0.614470 0.858749
vt 0.721605 0.493782
vt 0.724051 0.494421
vt 0.617110 0.858834
vt 0.616793 0.867560
vt 0.614153 0.867481
vt 0.721358 0.485734
vt 0.723734 0.484909
vt 0.580541 0.132457
vt 0.583165 0.132150
vt 0.481833 0.123910
vt 0.481324 0.102834
vt 0.493562 0.102646
vt 0.493710 0.123754
vt 0.483073 0.101034
vt 0.491754 0.100900
vt 0.492006 0.125508
vt 0.483571 0.125619
vt 0.479909 0.495669
vt 0.481645 0.493951
vt 0.600140 0.833892
vt 0.701045 0.479982
vt 0.703497 0.480606
vt 0.602780 0.833957
vt 0.602536 0.842400
vt 0.599895 0.842341
vt 0.700776 0.472220
vt 0.703152 0.471386
vt 0.563673 0.130759
vt 0.566296 0.130446
vt 0.501310 0.123946
vt 0.500751 0.102872
vt 0.512590 0.102661
vt 0.512788 0.123769
vt 0.502439 0.101127
vt 0.510836 0.100977
vt 0.511144 0.125467
vt 0.502992 0.125595
vt 0.499440 0.483239
vt 0.501118 0.481579
vt 0.966030 0.389444
vt 0.846988 0.723964
vt 0.844355 0.723732
vt 0.963624 0.388663
vt 0.966284 0.380511
vt 0.963855 0.381184
vt 0.846246 0.732090
vt 0.843614 0.731867
vt 0.854726 0.042730
vt 0.857364 0.042602
vt 0.531077 0.102674
vt 0.531448 0.123780
vt 0.520373 0.124029
vt 0.519638 0.102970
vt 0.529874 0.125432
vt 0.522002 0.125611
vt 0.521255 0.101273
vt 0.529368 0.101062
vt 0.518334 0.470851
vt 0.519955 0.469249
vt 0.660745 0.465683
vt 0.547177 0.789039
vt 0.544546 0.788821
vt 0.658335 0.464913
vt 0.660943 0.457037
vt 0.658517 0.457718
vt 0.546508 0.796885
vt 0.543876 0.796678
vt 0.552514 0.131230
vt 0.555152 0.131096
vt 0.549031 0.102962
vt 0.549341 0.124069
vt 0.538662 0.124283
vt 0.537990 0.103217
vt 0.547819 0.125658
vt 0.540230 0.125812
vt 0.539555 0.101582
vt 0.547386 0.101400
vt 0.536875 0.458647
vt 0.538436 0.457102
vt 0.294405 0.158540
vt 0.314768 0.153182
vt 0.313018 0.508415
vt 0.292377 0.503425
vt 0.294890 0.492982
vt 0.293326 0.491392
vt 0.292859 0.160110
vt 0.316383 0.155011
vt 0.316622 0.498251
vt 0.291236 0.501539
vt 0.293007 0.494166
vt 0.315071 0.506937
vt 0.332693 0.525778
vt 0.353072 0.520474
vt 0.350439 0.888520
vt 0.329795 0.883517
vt 0.332413 0.872687
vt 0.330797 0.871033
vt 0.331083 0.527404
vt 0.354741 0.522372
vt 0.354183 0.877994
vt 0.328614 0.881559
vt 0.330458 0.873913
vt 0.352568 0.886991
vt 0.326298 0.134715
vt 0.346661 0.129366
vt 0.348392 0.131325
vt 0.348695 0.499328
vt 0.344867 0.510236
vt 0.324196 0.505324
vt 0.326859 0.494090
vt 0.325178 0.492380
vt 0.324637 0.136403
vt 0.347063 0.508645
vt 0.322964 0.503300
vt 0.324839 0.495371
vt 0.362472 0.516286
vt 0.382840 0.510962
vt 0.384625 0.512987
vt 0.384585 0.893372
vt 0.380636 0.904647
vt 0.359955 0.899758
vt 0.362699 0.888129
vt 0.360962 0.886357
vt 0.360750 0.518033
vt 0.382905 0.903003
vt 0.358680 0.897664
vt 0.360611 0.889459
vt 0.356741 0.095835
vt 0.377105 0.090510
vt 0.378952 0.092600
vt 0.379034 0.485368
vt 0.374973 0.497015
vt 0.354278 0.492168
vt 0.357095 0.480144
vt 0.355296 0.478312
vt 0.354967 0.097641
vt 0.377312 0.495314
vt 0.352955 0.490006
vt 0.354939 0.481522
vt 0.390675 0.092868
vt 0.411039 0.087555
vt 0.412945 0.089710
vt 0.412932 0.494860
vt 0.408757 0.506878
vt 0.388049 0.502063
vt 0.390943 0.489645
vt 0.389084 0.487752
vt 0.388846 0.094733
vt 0.411167 0.505121
vt 0.386680 0.499832
vt 0.388718 0.491071
vt 0.739124 0.143853
vt 0.738750 0.146463
vt 0.731531 0.145382
vt 0.436418 0.025126
vt 0.731903 0.142767
vt 0.435544 0.027501
vt 0.730688 0.141076
vt 0.740819 0.142608
vt 0.428371 0.024570
vt 0.428936 0.027028
vt 0.121371 0.110033
vt 0.121370 0.107392
vt 0.753365 0.136596
vt 0.763855 0.138403
vt 0.762068 0.139661
vt 0.754590 0.138379
vt 0.761639 0.142263
vt 0.754164 0.140986
vt 0.450035 0.010277
vt 0.449119 0.012635
vt 0.441708 0.009567
vt 0.442236 0.012032
vt 0.121680 0.094187
vt 0.121713 0.091545
vt 0.904002 0.973556
vt 0.882629 0.974542
vt 0.880656 0.964816
vt 0.777250 0.661445
vt 0.772737 0.652642
vt 0.789747 0.639928
vt 0.796052 0.648605
vt 0.798109 0.649822
vt 0.904535 0.963124
vt 0.881107 0.972913
vt 0.905501 0.971604
vt 0.772465 0.654953
vt 0.562083 0.943730
vt 0.563715 0.942384
vt 0.488358 0.554304
vt 0.509436 0.561975
vt 0.483584 0.869666
vt 0.461525 0.873711
vt 0.460121 0.872140
vt 0.486747 0.555669
vt 0.451328 0.873455
vt 0.452812 0.871958
vt 0.441045 0.553088
vt 0.442582 0.554534
vt 0.429504 0.868274
vt 0.419600 0.559659
# 154 polygons
usemtl wire_006135006
s 1
g Box004
f 1/47/1 2/50/2 3/51/3 4/48/4
f 5/1/5 6/2/6 7/3/7 8/4/8
s 2
f 9/276/4 10/5/9 11/274/10 12/275/1
s 4
f 13/270/3 14/271/11 10/5/9 9/276/4
s 2
f 15/196/2 16/197/12 14/198/11 13/199/3
s 4
f 12/80/1 11/81/10 16/82/12 15/83/2
s 2
f 17/108/13 18/109/14 19/104/15 20/107/16
f 21/312/4 22/6/9 23/310/10 24/311/1
f 25/300/4 26/7/9 27/298/10 28/299/1
f 29/288/4 30/8/9 31/286/10 32/287/1
f 33/46/10 1/47/1 4/48/4 34/49/9
f 35/342/10 36/343/1 37/9/4 38/10/9
f 39/248/10 40/249/1 41/250/4 42/11/9
f 43/260/10 44/261/1 45/262/4 46/12/9
s 4
f 47/110/3 48/111/17 18/112/14 17/113/13
f 49/306/3 50/307/11 22/6/9 21/312/4
f 51/294/3 52/295/11 26/7/9 25/300/4
f 53/282/3 54/283/11 30/8/9 29/288/4
f 34/362/9 4/366/4 3/367/3 55/364/11
f 38/10/9 37/9/4 56/45/3 57/348/11
f 42/11/9 41/250/4 58/246/3 59/247/11
f 46/12/9 45/262/4 60/258/3 61/259/11
s 2
f 62/124/2 63/125/18 48/126/17 47/127/3
f 64/136/2 65/137/12 50/138/11 49/139/3
f 66/156/2 67/157/12 52/158/11 51/159/3
f 68/176/2 69/177/12 54/178/11 53/179/3
f 55/52/11 3/51/3 2/50/2 70/53/12
f 57/348/11 56/45/3 71/346/2 72/347/12
f 59/236/11 58/237/3 73/238/2 74/239/12
f 61/216/11 60/217/3 75/218/2 76/219/12
s 4
f 20/107/16 19/104/15 63/105/18 62/106/2
f 24/62/1 23/63/10 65/64/12 64/65/2
f 28/68/1 27/69/10 67/70/12 66/71/2
f 32/78/1 31/74/10 69/77/12 68/79/2
f 70/356/12 2/357/2 1/358/1 33/359/10
f 72/98/12 71/99/2 36/100/1 35/101/10
f 74/92/12 73/93/2 40/94/1 39/95/10
f 76/86/12 75/87/2 44/88/1 43/89/10
s 2
f 77/119/19 78/118/20 79/120/21 80/121/22
f 81/148/19 82/147/20 83/152/21 84/153/22
f 85/168/19 86/167/20 87/172/21 88/173/22
f 89/188/19 90/187/20 91/192/21 92/193/22
f 93/327/21 94/326/22 95/321/19 96/323/20
f 97/339/21 98/338/22 99/336/19 100/337/20
f 101/231/21 102/230/22 103/226/19 104/229/20
f 105/211/21 106/210/22 107/206/19 108/209/20
s 4
f 109/117/23 110/116/24 78/118/20 77/119/19
f 111/149/23 112/146/24 82/147/20 81/148/19
f 113/169/23 114/166/24 86/167/20 85/168/19
f 115/189/23 116/186/24 90/187/20 89/188/19
f 96/323/20 95/321/19 117/322/23 118/320/24
f 100/337/20 99/336/19 119/333/23 120/335/24
f 104/229/20 103/226/19 121/227/23 122/228/24
f 108/209/20 107/206/19 123/207/23 124/208/24
s 2
f 125/114/25 126/115/26 110/116/24 109/117/23
f 127/150/25 128/151/26 112/146/24 111/149/23
f 129/170/25 130/171/26 114/166/24 113/169/23
f 131/190/25 132/191/26 116/186/24 115/189/23
f 118/320/24 117/322/23 133/318/25 134/319/26
f 120/335/24 119/333/23 135/332/25 136/334/26
f 122/228/24 121/227/23 137/232/25 138/233/26
f 124/208/24 123/207/23 139/212/25 140/213/26
s 4
f 80/121/22 79/120/21 126/122/26 125/123/25
f 84/153/22 83/152/21 128/154/26 127/155/25
f 88/173/22 87/172/21 130/174/26 129/175/25
f 92/193/22 91/192/21 132/194/26 131/195/25
f 134/328/26 133/329/25 94/326/22 93/327/21
f 136/340/26 135/341/25 98/338/22 97/339/21
f 138/234/26 137/235/25 102/230/22 101/231/21
f 140/214/26 139/215/25 106/210/22 105/211/21
s off
f 23/310/10 22/6/9 77/309/19 80/315/22
f 22/6/9 50/307/11 109/308/23 77/309/19
f 50/138/11 65/137/12 125/140/25 109/141/23
f 65/64/12 23/63/10 80/66/22 125/67/25
f 17/132/13 20/130/16 79/131/21 78/133/20
f 20/130/16 62/124/2 126/129/26 79/131/21
f 62/124/2 47/127/3 110/128/24 126/129/26
f 47/134/3 17/132/13 78/133/20 110/135/24
f 27/298/10 26/7/9 81/297/19 84/303/22
f 26/7/9 52/295/11 111/296/23 81/297/19
f 52/158/11 67/157/12 127/160/25 111/161/23
f 67/70/12 27/69/10 84/72/22 127/73/25
f 21/312/4 24/311/1 83/316/21 82/317/20
f 24/144/1 64/136/2 128/143/26 83/145/21
f 64/136/2 49/139/3 112/142/24 128/143/26
f 49/306/3 21/312/4 82/313/20 112/314/24
f 31/286/10 30/8/9 85/285/19 88/291/22
f 30/8/9 54/283/11 113/284/23 85/285/19
f 54/178/11 69/177/12 129/180/25 113/181/23
f 69/77/12 31/74/10 88/75/22 129/76/25
f 25/300/4 28/299/1 87/304/21 86/305/20
f 28/164/1 66/156/2 130/163/26 87/165/21
f 66/156/2 51/159/3 114/162/24 130/163/26
f 51/294/3 25/300/4 86/301/20 114/302/24
f 11/274/10 10/5/9 89/273/19 92/279/22
f 10/5/9 14/271/11 115/272/23 89/273/19
f 14/198/11 16/197/12 131/200/25 115/201/23
f 16/82/12 11/81/10 92/84/22 131/85/25
f 29/288/4 32/287/1 91/292/21 90/293/20
f 32/184/1 68/176/2 132/183/26 91/185/21
f 68/176/2 53/179/3 116/182/24 132/183/26
f 53/282/3 29/288/4 90/289/20 116/290/24
f 37/9/4 36/343/1 93/351/21 96/344/20
f 36/343/1 71/354/2 134/355/26 93/351/21
f 71/346/2 56/45/3 118/345/24 134/353/26
f 56/45/3 37/9/4 96/344/20 118/345/24
f 33/359/10 34/362/9 95/363/19 94/360/22
f 34/362/9 55/364/11 117/365/23 95/363/19
f 55/324/11 70/325/12 133/318/25 117/322/23
f 70/356/12 33/359/10 94/360/22 133/361/25
f 41/250/4 40/249/1 97/255/21 100/256/20
f 40/244/1 73/238/2 136/241/26 97/245/21
f 73/238/2 58/237/3 120/240/24 136/241/26
f 58/246/3 41/250/4 100/251/20 120/252/24
f 35/342/10 38/10/9 99/350/19 98/352/22
f 38/10/9 57/348/11 119/349/23 99/350/19
f 57/330/11 72/331/12 135/332/25 119/333/23
f 72/98/12 35/101/10 98/102/22 135/103/25
f 45/262/4 44/261/1 101/267/21 104/268/20
f 44/224/1 75/218/2 138/221/26 101/225/21
f 75/218/2 60/217/3 122/220/24 138/221/26
f 60/258/3 45/262/4 104/263/20 122/264/24
f 39/248/10 42/11/9 103/254/19 102/257/22
f 42/11/9 59/247/11 121/253/23 103/254/19
f 59/236/11 74/239/12 137/242/25 121/243/23
f 74/92/12 39/95/10 102/96/22 137/97/25
f 9/276/4 12/275/1 105/280/21 108/281/20
f 12/204/1 15/196/2 140/203/26 105/205/21
f 15/196/2 13/199/3 124/202/24 140/203/26
f 13/270/3 9/276/4 108/277/20 124/278/24
f 43/260/10 46/12/9 107/266/19 106/269/22
f 46/12/9 61/259/11 123/265/23 107/266/19
f 61/216/11 76/219/12 139/222/25 123/223/23
f 76/86/12 43/89/10 106/90/22 139/91/25
f 141/37/27 142/43/28 143/13/29 144/14/30
f 142/44/28 145/41/31 146/24/32 143/13/29
f 145/42/31 147/39/33 148/23/34 146/24/32
f 147/40/33 141/38/27 144/14/30 148/23/34
f 149/18/35 150/19/36 151/20/37 152/17/38
f 18/27/14 48/28/17 145/41/31 142/44/28
f 153/32/39 154/33/40 155/34/41 156/31/42
f 63/25/18 19/26/15 141/38/27 147/40/33
f 6/2/6 5/1/5 144/14/30 143/13/29
f 5/1/5 8/4/8 148/23/34 144/14/30
f 8/4/8 7/3/7 146/24/32 148/23/34
f 7/3/7 6/2/6 143/13/29 146/24/32
f 19/58/15 18/59/14 150/60/36 149/61/35
f 18/21/14 142/43/28 151/20/37 150/22/36
f 142/43/28 141/37/27 152/17/38 151/20/37
f 141/37/27 19/15/15 149/16/35 152/17/38
f 48/54/17 63/55/18 154/56/40 153/57/39
f 63/35/18 147/39/33 155/34/41 154/36/40
f 147/39/33 145/42/31 156/31/42 155/34/41
f 145/42/31 48/29/17 153/30/39 156/31/42
# h3dt: 156 367 42 154
