# author: headus 3D tools
#  using: ply2obj v1.10
#   from: uvlayout v2.10.01
# 14 vertices
v -600.305000 185.625000 718.515000
v -613.190864 185.625000 725.954697
v -611.054998 217.078204 726.249130
v -597.697457 217.078204 718.537216
v -613.190864 185.625000 740.834030
v -611.054998 217.078204 741.672894
v -600.305000 185.625000 748.273604
v -597.697457 217.078204 749.384812
v -587.419196 185.625000 740.834030
v -584.340155 217.078204 741.672894
v -587.419196 185.625000 725.954697
v -584.340155 217.078204 726.249130
v -597.697457 217.078204 733.961045
v -600.305000 185.625000 733.394395
# 14 normals
vn -0.020845 -0.608771 -0.792987
vn -0.704999 -0.585943 -0.399438
vn -0.666636 0.633523 -0.392480
vn 0.020845 0.609382 -0.792590
vn -0.704694 -0.592413 0.390374
vn -0.667582 0.626595 0.402094
vn -0.020845 -0.622291 0.782488
vn 0.020784 0.595709 0.802753
vn 0.657480 -0.646371 0.387109
vn 0.712934 0.572911 0.404199
vn 0.658426 -0.639321 -0.396814
vn 0.712782 0.579381 -0.395074
vn 0.000000 1.000000 0.000000
vn 0.000000 -1.000000 0.000000
# 26 uv coords
vt 0.544887 0.624075
vt 0.693994 0.669093
vt 0.580473 0.775738
vt 0.606322 0.929343
vt 0.282373 0.992808
vt 0.255587 0.833619
vt 0.101031 0.786996
vt 0.218708 0.676479
vt 0.726410 0.830169
vt 0.131100 0.936400
vt 0.509163 0.472451
vt 0.658311 0.517331
vt 0.064108 0.629982
vt 0.181689 0.519367
vt 0.485625 0.318462
vt 0.630726 0.375080
vt 0.031282 0.460720
vt 0.157292 0.359809
vt 0.477160 0.162919
vt 0.616071 0.233351
vt 0.013303 0.286806
vt 0.148534 0.198632
vt 0.145431 0.037226
vt 0.474164 0.007192
vt 0.610516 0.082447
vt 0.007192 0.120627
# 18 polygons
usemtl wire_228184153
s 8
g Cylinder017
f 1/1/1 2/3/2 3/6/3 4/8/4
f 2/3/2 5/4/5 6/5/6 3/6/3
f 5/24/5 7/19/7 8/22/8 6/23/6
f 7/19/7 9/15/9 10/18/10 8/22/8
f 9/15/9 11/11/11 12/14/12 10/18/10
f 11/11/11 1/1/1 4/8/4 12/14/12
s 1
f 12/14/12 4/8/4 13/13/13
f 4/8/4 3/6/3 13/7/13
f 3/6/3 6/5/6 13/10/13
f 6/23/6 8/22/8 13/26/13
f 8/22/8 10/18/10 13/21/13
f 10/18/10 12/14/12 13/17/13
f 11/11/11 9/15/9 14/16/14
f 9/15/9 7/19/7 14/20/14
f 7/19/7 5/24/5 14/25/14
f 5/4/5 2/3/2 14/9/14
f 2/3/2 1/1/1 14/2/14
f 1/1/1 11/11/11 14/12/14
# h3dt: 14 26 14 18
