# author: headus 3D tools
#  using: ply2obj v1.10
#   from: uvlayout v2.10.01
# 24 vertices
v -1062.056000 170.532000 517.099000
v -1080.017670 170.532000 478.580108
v -1054.181366 170.532000 466.532500
v -1036.219696 170.532000 505.051302
v -1062.371185 190.607894 518.834839
v -1036.023406 190.607894 506.548615
v -1054.340668 190.607894 467.267116
v -1080.688448 190.607894 479.553312
v -1033.695286 180.600588 506.685304
v -1033.658050 183.666795 506.916629
v -1063.147796 183.666795 520.668030
v -1063.097015 180.600588 520.395630
v -1053.378266 180.600588 464.474916
v -1053.399994 183.666795 464.579928
v -1082.780120 180.600588 478.185216
v -1082.889740 183.666795 478.331208
v -1036.091278 183.666795 506.031007
v -1062.262176 183.666795 518.234742
v -1062.214081 180.600588 517.969605
v -1036.121306 180.600588 505.802310
v -1054.285615 183.666795 467.013124
v -1054.261323 180.600588 466.900912
v -1080.456512 183.666795 479.216792
v -1080.354096 180.600588 479.068204
# 24 normals
vn -0.276354 -0.609290 0.743118
vn -0.756424 -0.582128 -0.297687
vn 0.280779 -0.563572 -0.776872
vn 0.767289 -0.589391 0.252884
vn -0.281786 0.545138 0.789416
vn 0.767594 0.563694 0.305011
vn 0.277513 0.591070 -0.757279
vn -0.778032 0.571110 -0.261033
vn 0.766526 -0.590215 0.252670
vn 0.768113 0.562626 0.305286
vn -0.282000 0.544284 0.790087
vn -0.276170 -0.610236 0.742416
vn 0.280535 -0.564457 -0.776231
vn 0.277880 0.590124 -0.757920
vn -0.755875 -0.583196 -0.297473
vn -0.778795 0.570286 -0.261277
vn 0.415034 0.899316 0.136727
vn -0.158487 0.890649 0.426021
vn -0.134072 -0.916835 0.375786
vn 0.385399 -0.909876 0.153177
vn 0.140878 0.909998 -0.389825
vn 0.150858 -0.898736 -0.411524
vn -0.400720 0.902429 -0.157694
vn -0.399377 -0.906824 -0.133919
# 46 uv coords
vt 0.388571 0.265806
vt 0.477611 0.251935
vt 0.525053 0.629098
vt 0.436300 0.646737
vt 0.717276 0.130905
vt 0.730551 0.220059
vt 0.461799 0.163147
vt 0.868226 0.592367
vt 0.778054 0.597212
vt 0.820266 0.211464
vt 0.531818 0.719270
vt 0.787297 0.687029
vt 0.422041 0.664965
vt 0.370433 0.251609
vt 0.443563 0.149025
vt 0.731432 0.112631
vt 0.834462 0.193227
vt 0.886432 0.606539
vt 0.805529 0.701164
vt 0.517657 0.737539
vt 0.394957 0.670364
vt 0.343363 0.255749
vt 0.438699 0.122020
vt 0.727420 0.085455
vt 0.861806 0.190570
vt 0.913868 0.605126
vt 0.808399 0.728493
vt 0.519673 0.765028
vt 0.329213 0.274003
vt 0.376606 0.656135
vt 0.709115 0.071248
vt 0.452891 0.103734
vt 0.928041 0.586845
vt 0.880130 0.204778
vt 0.537977 0.779252
vt 0.794201 0.746766
vt 0.315384 0.668198
vt 0.267828 0.283464
vt 0.441951 0.042520
vt 0.699906 0.009804
vt 0.941991 0.198892
vt 0.990196 0.583543
vt 0.800639 0.808672
vt 0.542687 0.841413
vt 0.057283 0.700046
vt 0.009804 0.315304
# 22 polygons
usemtl wire_225143087
s 2
g Box008
f 1/3/1 2/2/2 3/6/3 4/9/4
s 4
f 5/37/5 6/45/6 7/46/7 8/38/8
s 8
f 9/19/9 10/27/10 11/28/11 12/20/12
s 16
f 13/17/13 14/25/14 10/26/10 9/18/9
s 32
f 15/15/15 16/23/16 14/24/14 13/16/13
s 64
f 12/13/12 11/21/11 16/22/16 15/14/15
s 8
f 17/36/17 6/43/6 5/44/5 18/35/18
f 19/11/19 1/3/1 4/9/4 20/12/20
s 16
f 21/34/21 7/41/7 6/42/6 17/33/17
f 20/8/20 4/9/4 3/6/3 22/10/22
s 32
f 23/32/23 8/39/8 7/40/7 21/31/21
f 22/5/22 3/6/3 2/2/2 24/7/24
s 64
f 18/30/18 5/37/5 8/38/8 23/29/23
f 24/1/24 2/2/2 1/3/1 19/4/19
s off
f 17/36/17 18/35/18 11/28/11 10/27/10
f 18/30/18 23/29/23 16/22/16 11/21/11
f 23/32/23 21/31/21 14/24/14 16/23/16
f 21/34/21 17/33/17 10/26/10 14/25/14
f 19/11/19 20/12/20 9/19/9 12/20/12
f 20/8/20 22/10/22 13/17/13 9/18/9
f 22/5/22 24/7/24 15/15/15 13/16/13
f 24/1/24 19/4/19 12/13/12 15/14/15
# h3dt: 24 46 24 22
