# author: headus 3D tools
#  using: ply2obj v1.10
#   from: uvlayout v2.10.01
# 90 vertices
v -877.56300 9.54100 735.52100
v -890.00123 9.54100 705.49256
v -888.09461 32.45220 703.58601
v -874.86674 32.45220 735.52100
v -920.02961 9.54100 693.05439
v -920.02961 32.45220 690.35810
v -950.05804 9.54100 705.49256
v -951.96454 32.45220 703.58601
v -962.49610 9.54100 735.52100
v -965.19245 32.45220 735.52100
v -950.05804 9.54100 765.54926
v -951.96454 32.45220 767.45587
v -920.02961 9.54100 777.98749
v -920.02961 32.45220 780.68377
v -890.00123 9.54100 765.54926
v -888.09461 32.45220 767.45587
v -872.17055 55.36340 735.52100
v -886.18800 55.36340 701.67939
v -884.28150 78.27449 699.77278
v -869.47426 78.27449 735.52100
v -920.02961 55.36340 687.66181
v -920.02961 78.27449 684.96546
v -953.87110 55.36340 701.67939
v -955.77772 78.27449 699.77278
v -967.88875 55.36340 735.52100
v -970.58504 78.27449 735.52100
v -953.87110 55.36340 769.36249
v -955.77760 78.27449 771.26909
v -920.02961 55.36340 783.38007
v -920.02961 78.27449 786.07635
v -886.18812 55.36340 769.36249
v -884.28150 78.27449 771.26909
v -860.11226 101.18570 735.52100
v -877.66163 101.18570 693.15296
v -875.51644 124.09691 691.00782
v -857.07851 124.09691 735.52100
v -920.02930 101.18570 675.60346
v -920.02930 124.09691 672.57001
v -962.39771 101.18570 693.15327
v -964.54309 124.09691 691.00788
v -979.94691 101.18570 735.52100
v -982.98072 124.09691 735.52100
v -962.39765 101.18570 777.88886
v -964.54286 124.09691 780.03406
v -920.02961 101.18570 795.43830
v -920.02961 124.09691 798.47211
v -877.66163 101.18570 777.88886
v -875.51644 124.09691 780.03406
v -884.09730 32.45220 699.58857
v -881.95221 55.36340 697.44307
v -866.17995 55.36340 735.52058
v -869.21364 32.45220 735.52100
v -920.02961 32.45220 684.70496
v -920.02961 55.36340 681.67121
v -955.96192 32.45220 699.58857
v -958.10712 55.36340 697.44337
v -970.84565 32.45220 735.52100
v -973.87935 55.36340 735.52100
v -955.96192 32.45220 771.45329
v -958.10712 55.36340 773.59851
v -920.02961 32.45220 786.33685
v -920.02961 55.36340 789.37067
v -884.09730 32.45220 771.45329
v -881.95209 55.36340 773.59851
v -882.37495 101.18570 697.86628
v -866.77791 101.18570 735.52100
v -920.02961 101.18570 682.26917
v -957.68421 101.18570 697.86628
v -973.28132 101.18570 735.52100
v -957.68421 101.18570 773.17560
v -920.02961 101.18570 788.77270
v -882.37495 101.18570 773.17560
v -880.46845 124.09691 695.95966
v -878.56184 147.00809 694.05317
v -861.38534 147.00809 735.52100
v -864.08162 124.09691 735.52100
v -920.02961 124.09691 679.57300
v -920.02961 147.00809 676.87671
v -959.59083 124.09691 695.95966
v -961.49744 147.00809 694.05317
v -975.97761 124.09691 735.52100
v -978.67390 147.00809 735.52100
v -959.59083 124.09691 775.08214
v -961.49744 147.00809 776.98871
v -920.02961 124.09691 791.46900
v -920.02961 147.00809 794.16516
v -880.46845 124.09691 775.08214
v -878.56184 147.00809 776.98871
v -920.02961 9.54100 735.52100
v -920.02961 147.00809 735.52100
# 68 normals
vn 0.738937 -0.673686 0.000000
vn 0.522584 -0.673686 -0.522584
vn 0.388818 -0.835195 -0.388818
vn 0.549991 -0.835195 0.000000
vn 0.000000 -0.673686 -0.738937
vn 0.000000 -0.835195 -0.549991
vn -0.522584 -0.673686 -0.522584
vn -0.388818 -0.835195 -0.388818
vn -0.738937 -0.673686 0.000000
vn -0.549991 -0.835195 0.000000
vn -0.522584 -0.673686 0.522584
vn -0.388818 -0.835195 0.388818
vn 0.000000 -0.673686 0.738937
vn 0.000000 -0.835195 0.549991
vn 0.522584 -0.673686 0.522584
vn 0.388818 -0.835195 0.388818
vn 0.638375 0.769609 0.000000
vn 0.451321 0.769609 -0.451321
vn 0.702283 -0.116889 -0.702283
vn 0.993011 -0.116889 0.000000
vn 0.000000 0.769609 -0.638375
vn 0.000000 -0.116889 -0.993011
vn -0.451321 0.769609 -0.451321
vn -0.702283 -0.116889 -0.702283
vn -0.638375 0.769609 0.000000
vn -0.993011 -0.116889 0.000000
vn -0.451321 0.769609 0.451321
vn -0.702283 -0.116889 0.702283
vn 0.000000 0.769609 0.638375
vn 0.000000 -0.116889 0.993011
vn 0.451321 0.769609 0.451321
vn 0.702283 -0.116889 0.702283
vn 0.734084 -0.678997 0.000000
vn 0.519075 -0.678997 -0.519075
vn 0.575871 0.580236 -0.575871
vn 0.814381 0.580236 0.000000
vn 0.000000 -0.678997 -0.734084
vn 0.000000 0.580236 -0.814381
vn -0.519075 -0.678997 -0.519075
vn -0.575871 0.580114 -0.575871
vn -0.734084 -0.678997 0.000000
vn -0.814381 0.580236 0.000000
vn -0.519075 -0.678997 0.519075
vn -0.575871 0.580236 0.575871
vn 0.000000 -0.678997 0.734084
vn 0.000000 0.580236 0.814381
vn 0.519075 -0.678997 0.519075
vn 0.575871 0.580236 0.575871
vn 0.814381 0.580236 0.000000
vn 0.734084 -0.678997 0.000000
vn 0.000000 -0.678997 -0.734084
vn 0.000000 0.580236 -0.814381
vn -0.575871 0.580236 -0.575871
vn 0.000000 0.580236 0.814381
vn 0.549991 -0.835195 0.000000
vn 0.000000 -0.835195 0.549991
vn 0.573033 0.585790 -0.573033
vn 0.810383 0.585790 0.000000
vn 0.638375 0.769609 0.000000
vn 0.000000 0.585790 -0.810383
vn -0.573033 0.585790 -0.573033
vn -0.810383 0.585790 0.000000
vn -0.573033 0.585790 0.573033
vn 0.000000 0.769609 0.638375
vn 0.000000 0.585790 0.810383
vn 0.573033 0.585790 0.573033
vn 0.000000 -1.000000 0.000000
vn 0.000000 1.000000 0.000000
# 177 uv coords
vt 0.498879 0.495031
vt 0.560921 0.432951
vt 0.604248 0.412824
vt 0.631326 0.478930
vt 0.586540 0.494995
vt 0.612634 0.404585
vt 0.642934 0.479035
vt 0.656008 0.384407
vt 0.687972 0.463361
vt 0.631284 0.510822
vt 0.604592 0.577085
vt 0.561051 0.557142
vt 0.498865 0.407172
vt 0.515297 0.362319
vt 0.581192 0.389909
vt 0.696746 0.454720
vt 0.668453 0.384503
vt 0.642803 0.510576
vt 0.613139 0.585282
vt 0.581063 0.600573
vt 0.514882 0.627469
vt 0.498910 0.582700
vt 0.515398 0.350566
vt 0.589471 0.381776
vt 0.436881 0.433041
vt 0.416487 0.390137
vt 0.482276 0.362295
vt 0.711906 0.364750
vt 0.741685 0.438966
vt 0.687918 0.525759
vt 0.656796 0.605048
vt 0.589281 0.609028
vt 0.514716 0.639043
vt 0.482921 0.627481
vt 0.416752 0.600556
vt 0.436776 0.557145
vt 0.531794 0.305629
vt 0.610229 0.338846
vt 0.408181 0.382105
vt 0.482082 0.350489
vt 0.411115 0.495034
vt 0.366247 0.478616
vt 0.393859 0.412731
vt 0.755371 0.345055
vt 0.786656 0.423263
vt 0.669313 0.604819
vt 0.696730 0.534255
vt 0.609276 0.652523
vt 0.530175 0.684121
vt 0.483072 0.639065
vt 0.408530 0.608993
vt 0.393439 0.577246
vt 0.366345 0.511146
vt 0.610320 0.326535
vt 0.540660 0.296898
vt 0.387164 0.339359
vt 0.465372 0.305610
vt 0.354488 0.478508
vt 0.385733 0.404449
vt 0.765270 0.335433
vt 0.800400 0.423458
vt 0.741828 0.549370
vt 0.713088 0.623994
vt 0.538755 0.692915
vt 0.609121 0.664997
vt 0.467565 0.684139
vt 0.388496 0.652461
vt 0.385054 0.585488
vt 0.354737 0.511045
vt 0.557413 0.252203
vt 0.630951 0.283619
vt 0.456414 0.296908
vt 0.386989 0.327091
vt 0.309555 0.462085
vt 0.342817 0.383669
vt 0.808723 0.315535
vt 0.845575 0.408040
vt 0.786994 0.564391
vt 0.756876 0.643054
vt 0.628628 0.708586
vt 0.554237 0.737925
vt 0.388637 0.664927
vt 0.458969 0.692930
vt 0.341685 0.605675
vt 0.309701 0.526730
vt 0.574217 0.207542
vt 0.651642 0.240717
vt 0.366001 0.284387
vt 0.439261 0.252327
vt 0.330507 0.383571
vt 0.300824 0.453212
vt 0.855929 0.397963
vt 0.823220 0.315732
vt 0.800716 0.563965
vt 0.766949 0.652521
vt 0.648056 0.752186
vt 0.569654 0.782981
vt 0.443424 0.737925
vt 0.369074 0.708484
vt 0.300929 0.535373
vt 0.329239 0.605583
vt 0.574413 0.193739
vt 0.661497 0.231138
vt 0.344920 0.241697
vt 0.422033 0.207804
vt 0.256138 0.436424
vt 0.287608 0.362909
vt 0.866715 0.296154
vt 0.900960 0.382364
vt 0.846116 0.578657
vt 0.810729 0.671732
vt 0.657613 0.762157
vt 0.569363 0.796718
vt 0.427940 0.782962
vt 0.349584 0.752053
vt 0.285790 0.625346
vt 0.255993 0.551137
vt 0.591067 0.148941
vt 0.682535 0.188294
vt 0.334971 0.232226
vt 0.421694 0.193993
vt 0.211486 0.419584
vt 0.244723 0.342186
vt 0.987911 0.297945
vt 0.825233 0.671300
vt 0.856623 0.588557
vt 0.677226 0.805747
vt 0.584480 0.841989
vt 0.428208 0.796701
vt 0.340011 0.762006
vt 0.242330 0.645052
vt 0.211025 0.566853
vt 0.682730 0.173848
vt 0.601457 0.138828
vt 0.313514 0.189598
vt 0.404595 0.149355
vt 0.197681 0.419376
vt 0.235152 0.332323
vt 0.901896 0.603425
vt 0.869043 0.690175
vt 0.594484 0.852407
vt 0.676931 0.820247
vt 0.413019 0.841950
vt 0.320330 0.805563
vt 0.232434 0.654676
vt 0.197280 0.566661
vt 0.618371 0.094228
vt 0.703542 0.130980
vt 0.394100 0.139344
vt 0.313175 0.175160
vt 0.152896 0.402684
vt 0.192324 0.311249
vt 0.990197 0.686430
vt 0.696217 0.863875
vt 0.609779 0.897540
vt 0.320600 0.820063
vt 0.402997 0.852352
vt 0.188987 0.674587
vt 0.152108 0.582094
vt 0.705344 0.009803
vt 0.291939 0.132499
vt 0.376744 0.094912
vt 0.177879 0.311041
vt 0.142792 0.392286
vt 0.693609 0.985058
vt 0.387631 0.897460
vt 0.301245 0.863661
vt 0.141757 0.592174
vt 0.174490 0.674396
vt 0.288946 0.011346
vt 0.098205 0.375334
vt 0.135027 0.290194
vt 0.303665 0.984847
vt 0.131000 0.693987
vt 0.096732 0.607787
vt 0.013852 0.288291
vt 0.009803 0.692230
# 96 polygons
usemtl wire_135110008
s 8
g Cylinder010
f 1/5/1 2/2/2 3/3/3 4/4/4
f 2/2/2 5/13/5 6/14/6 3/15/3
f 5/13/5 7/25/7 8/26/8 6/27/6
f 7/25/7 9/41/9 10/42/10 8/43/8
f 9/41/9 11/36/11 12/52/12 10/53/10
f 11/36/11 13/22/13 14/34/14 12/35/12
f 13/22/13 15/12/15 16/20/16 14/21/14
f 15/12/15 1/5/1 4/10/4 16/11/16
f 17/16/17 18/17/18 19/28/19 20/29/20
f 18/54/18 21/55/21 22/70/22 19/71/19
f 21/72/21 23/73/23 24/88/24 22/89/22
f 23/90/23 25/91/25 26/106/26 24/107/24
f 25/100/25 27/101/27 28/116/28 26/117/26
f 27/82/27 29/83/29 30/98/30 28/99/28
f 29/64/29 31/65/31 32/80/32 30/81/30
f 31/46/31 17/47/17 20/62/20 32/63/32
f 33/61/33 34/60/34 35/76/35 36/77/36
f 34/103/34 37/102/37 38/118/38 35/119/35
f 37/121/37 39/120/39 40/135/40 38/136/38
f 39/138/39 41/137/41 42/151/42 40/152/40
f 41/146/41 43/145/43 44/158/44 42/159/42
f 43/130/43 45/129/45 46/143/46 44/144/44
f 45/113/45 47/112/47 48/127/48 46/128/46
f 47/95/47 33/94/33 36/110/36 48/111/48
f 49/6/34 50/8/35 51/9/49 52/7/50
f 53/23/51 54/37/52 50/38/35 49/24/34
f 55/39/39 56/56/53 54/57/52 53/40/51
f 57/58/41 58/74/42 56/75/53 55/59/39
f 59/68/43 60/84/44 58/85/42 57/69/41
f 61/50/45 62/66/54 60/67/44 59/51/43
f 63/32/47 64/48/48 62/49/54 61/33/45
f 52/18/50 51/30/49 64/31/48 63/19/47
f 19/28/19 65/44/3 66/45/55 20/29/20
f 22/70/22 67/86/6 65/87/3 19/71/19
f 24/88/24 68/104/8 67/105/6 22/89/22
f 26/106/26 69/122/10 68/123/8 24/107/24
f 28/116/28 70/131/12 69/132/10 26/117/26
f 30/98/30 71/114/56 70/115/12 28/99/28
f 32/80/32 72/96/16 71/97/56 30/81/30
f 20/62/20 66/78/55 72/79/16 32/63/32
f 73/93/18 74/108/57 75/109/58 76/92/59
f 77/134/21 78/147/60 74/148/57 73/133/18
f 79/150/23 80/161/61 78/162/60 77/149/21
f 81/164/25 82/171/62 80/172/61 79/163/23
f 83/169/27 84/174/63 82/175/62 81/168/25
f 85/157/64 86/166/65 84/167/63 83/156/27
f 87/142/31 88/154/66 86/155/65 85/141/64
f 76/126/59 75/139/58 88/140/66 87/125/31
s off
f 66/45/55 65/44/3 34/60/34 33/61/33
f 65/87/3 67/86/6 37/102/37 34/103/34
f 67/105/6 68/104/8 39/120/39 37/121/37
f 68/123/8 69/122/10 41/137/41 39/138/39
f 69/132/10 70/131/12 43/145/43 41/146/41
f 70/115/12 71/114/56 45/129/45 43/130/43
f 71/97/56 72/96/16 47/112/47 45/113/45
f 72/79/16 66/78/55 33/94/33 47/95/47
f 73/93/18 76/92/59 36/77/36 35/76/35
f 76/126/59 87/125/31 48/111/48 36/110/36
f 87/142/31 85/141/64 46/128/46 48/127/48
f 85/157/64 83/156/27 44/144/44 46/143/46
f 83/169/27 81/168/25 42/159/42 44/158/44
f 81/164/25 79/163/23 40/152/40 42/151/42
f 79/150/23 77/149/21 38/136/38 40/135/40
f 77/134/21 73/133/18 35/119/35 38/118/38
f 18/17/18 17/16/17 51/9/49 50/8/35
f 17/47/17 31/46/31 64/31/48 51/30/49
f 31/65/31 29/64/29 62/49/54 64/48/48
f 29/83/29 27/82/27 60/67/44 62/66/54
f 27/101/27 25/100/25 58/85/42 60/84/44
f 25/91/25 23/90/23 56/75/53 58/74/42
f 23/73/23 21/72/21 54/57/52 56/56/53
f 21/55/21 18/54/18 50/38/35 54/37/52
f 4/4/4 3/3/3 49/6/34 52/7/50
f 3/15/3 6/14/6 53/23/51 49/24/34
f 6/27/6 8/26/8 55/39/39 53/40/51
f 8/43/8 10/42/10 57/58/41 55/59/39
f 10/53/10 12/52/12 59/68/43 57/69/41
f 12/35/12 14/34/14 61/50/45 59/51/43
f 14/21/14 16/20/16 63/32/47 61/33/45
f 16/11/16 4/10/4 52/18/50 63/19/47
s 1
f 15/12/15 13/22/13 89/1/67
f 13/22/13 11/36/11 89/1/67
f 11/36/11 9/41/9 89/1/67
f 9/41/9 7/25/7 89/1/67
f 7/25/7 5/13/5 89/1/67
f 5/13/5 2/2/2 89/1/67
f 2/2/2 1/5/1 89/1/67
f 1/5/1 15/12/15 89/1/67
f 88/140/66 75/139/58 90/153/68
f 75/109/58 74/108/57 90/124/68
f 74/148/57 78/147/60 90/160/68
f 78/162/60 80/161/61 90/170/68
f 80/172/61 82/171/62 90/176/68
f 82/175/62 84/174/63 90/177/68
f 84/167/63 86/166/65 90/173/68
f 86/155/65 88/154/66 90/165/68
# h3dt: 90 177 68 96
