# author: headus 3D tools
#  using: ply2obj v1.10
#   from: uvlayout v2.10.01
# 8 vertices
v 142.090000 -75.684000 680.188000
v 107.945900 -75.684000 695.039256
v 117.980800 -75.684000 718.110060
v 152.124806 -75.684000 703.258798
v 117.980800 -94.543294 718.110060
v 107.945900 -94.543294 695.039256
v 142.090000 -94.543294 680.188000
v 152.124806 -94.543294 703.258798
# 8 normals
vn 0.299121 0.577397 -0.759690
vn -0.759690 0.577397 -0.299121
vn -0.299121 0.577397 0.759690
vn 0.759690 0.577397 0.299121
vn -0.299121 -0.577397 0.759690
vn -0.759690 -0.577397 -0.299121
vn 0.299121 -0.577397 -0.759690
vn 0.759690 -0.577397 0.299121
# 14 uv coords
vt 0.218861 0.500343
vt 0.218522 0.289898
vt 0.634129 0.289212
vt 0.634465 0.499780
vt 0.844980 0.499548
vt 0.845301 0.780369
vt 0.634799 0.780628
vt 0.635044 0.991148
vt 0.219441 0.991631
vt 0.219191 0.781138
vt 0.008671 0.781382
vt 0.008369 0.500561
vt 0.633627 0.008369
vt 0.218022 0.009102
# 6 polygons
usemtl wire_228153184
s 2
g Box015
f 1/1/1 2/4/2 3/7/3 4/10/4
s 4
f 5/13/5 6/3/6 7/2/7 8/14/8
s 8
f 3/7/3 2/4/2 6/5/6 5/6/5
s 16
f 4/10/4 3/7/3 5/8/5 8/9/8
s 32
f 1/1/1 4/10/4 8/11/8 7/12/7
s 64
f 2/4/2 1/1/1 7/2/7 6/3/6
# h3dt: 8 14 8 6
