# author: headus 3D tools
#  using: ply2obj v1.10
#   from: uvlayout v2.10.01
# 90 vertices
v -185.72700 -16.90400 268.18800
v -185.72700 -16.90400 228.99962
v 102.05090 -16.90400 228.99962
v 102.05090 -16.90400 268.18800
v -185.72700 0.72510 268.18800
v 102.05090 0.72510 268.18800
v 102.05090 0.72510 228.99962
v -185.72700 0.72510 228.99962
v -185.72700 -2.75880 268.18800
v 102.05090 -2.75880 268.18800
v 102.05090 -2.75880 228.99962
v -185.72700 -2.75880 228.99962
v -186.98191 -16.90400 326.47291
v -182.92860 -16.90400 287.49470
v 103.30578 -16.90400 317.25959
v 99.25262 -16.90400 356.23790
v -186.98191 0.72510 326.47291
v 99.25262 0.72510 356.23790
v 103.30578 0.72510 317.25959
v -182.92860 0.72510 287.49470
v -186.98191 -2.75880 326.47291
v 99.25262 -2.75880 356.23790
v 103.30578 -2.75880 317.25959
v -182.92860 -2.75880 287.49470
v -185.72700 -16.90400 413.79678
v -185.72700 -16.90400 374.60841
v 102.05090 -16.90400 374.60841
v 102.05090 -16.90400 413.79678
v -185.72700 0.72510 413.79678
v 102.05090 0.72510 413.79678
v 102.05090 0.72510 374.60841
v -185.72700 0.72510 374.60841
v -185.72700 -2.75880 413.79678
v 102.05090 -2.75880 413.79678
v 102.05090 -2.75880 374.60841
v -185.72700 -2.75880 374.60841
v -184.01471 -16.90400 505.19998
v -186.74170 -16.90400 466.10662
v 100.33872 -16.90400 446.08122
v 103.06562 -16.90400 485.17470
v -184.01471 0.72510 505.19998
v 103.06562 0.72510 485.17470
v 100.33872 0.72510 446.08122
v -186.74170 0.72510 466.10662
v -184.01471 -2.75880 505.19998
v 103.06562 -2.75880 485.17470
v 100.33872 -2.75880 446.08122
v -186.74170 -2.75880 466.10662
v 102.05090 -2.75880 568.50716
v 102.05090 -2.75880 529.31890
v 102.05090 0.72510 529.31890
v 102.05090 0.72510 568.50716
v -185.72700 -2.75880 529.31890
v -185.72700 -2.75880 568.50716
v -185.72700 0.72510 568.50716
v -185.72700 0.72510 529.31890
v -185.72700 -16.90400 640.84376
v -185.72700 -16.90400 601.65522
v 102.05090 -16.90400 601.65522
v 102.05090 -16.90400 640.84376
v -185.72700 0.72510 640.84376
v 102.05090 0.72510 640.84376
v 102.05090 0.72510 601.65522
v -185.72700 0.72510 601.65522
v -185.72700 -2.75880 640.84376
v 102.05090 -2.75880 640.84376
v 102.05090 -2.75880 601.65522
v -185.72700 -2.75880 601.65522
v -185.72700 -16.90400 529.31890
v -185.72700 -16.90400 568.50716
v 102.05090 -16.90400 568.50716
v 102.05090 -16.90400 529.31890
v -24.32912 -16.90400 529.31890
v -24.32912 -16.90400 568.50716
v -66.20940 -16.90400 568.50716
v -66.20940 -16.90400 529.31890
v -18.69570 0.72510 568.50716
v -18.69570 0.72510 529.31890
v -59.34690 0.72510 529.31890
v -59.34690 0.72510 568.50716
v -18.69570 -2.75880 568.50716
v -59.34690 -2.75880 568.50716
v -59.34690 -2.75880 529.31890
v -18.69570 -2.75880 529.31890
v -53.02781 -22.10490 529.31890
v -48.25581 -19.11320 529.31890
v -48.25581 -19.11320 568.50716
v -53.02781 -22.10490 568.50716
v -46.16531 -17.08549 529.31890
v -46.16531 -17.08549 568.50716
# 54 normals
vn -0.577397 -0.577397 0.577397
vn -0.577397 -0.577397 -0.577397
vn 0.577397 -0.577397 -0.577397
vn 0.577397 -0.577397 0.577397
vn -0.577397 0.577397 0.577397
vn 0.577397 0.577397 0.577397
vn 0.577397 0.577397 -0.577397
vn -0.577397 0.577397 -0.577397
vn -0.707044 0.000000 0.707044
vn 0.707044 0.000000 0.707044
vn 0.707044 0.000000 -0.707044
vn -0.707044 0.000000 -0.707044
vn -0.633980 -0.577397 0.514436
vn -0.514436 -0.577397 -0.633980
vn 0.633980 -0.577397 -0.514436
vn 0.514436 -0.577397 0.633980
vn -0.633980 0.577397 0.514436
vn 0.514436 0.577397 0.633980
vn 0.633980 0.577397 -0.514436
vn -0.514436 0.577397 -0.633980
vn -0.776476 0.000000 0.630196
vn 0.630196 0.000000 0.776476
vn 0.776476 0.000000 -0.630196
vn -0.630196 0.000000 -0.776476
vn -0.535738 -0.577397 0.616035
vn -0.616035 -0.577397 -0.535738
vn 0.535738 -0.577397 -0.616035
vn 0.616035 -0.577397 0.535738
vn -0.535738 0.577397 0.616035
vn 0.616035 0.577397 0.535738
vn 0.535738 0.577397 -0.616035
vn -0.616035 0.577397 -0.535738
vn -0.656198 0.000000 0.754532
vn 0.754532 0.000000 0.656198
vn 0.656198 0.000000 -0.754532
vn -0.754532 0.000000 -0.656198
vn -0.685619 -0.464933 -0.559971
vn -0.685619 -0.464933 0.559971
vn -0.123176 -0.647897 0.751694
vn -0.123176 -0.647897 -0.751694
vn -0.577275 0.577397 0.577275
vn -0.577397 0.577275 -0.577397
vn 0.353629 0.701611 -0.618476
vn 0.353629 0.701611 0.618476
vn -0.647226 0.124184 0.752030
vn 0.000000 0.000000 1.000000
vn 0.000000 0.000000 -1.000000
vn -0.647226 0.124184 -0.752030
vn 0.072240 -0.782580 -0.618110
vn 0.449979 -0.573796 -0.684215
vn 0.449979 -0.573888 0.684124
vn 0.072178 -0.782580 0.618293
vn 0.808582 -0.066136 -0.584630
vn 0.808582 -0.066136 0.584630
# 166 uv coords
vt 0.036890 0.194872
vt 0.036658 0.130859
vt 0.506840 0.129131
vt 0.507073 0.193173
vt 0.506752 0.105996
vt 0.036570 0.107775
vt 0.036547 0.102100
vt 0.506726 0.100288
vt 0.506450 0.030584
vt 0.506475 0.036262
vt 0.036291 0.038073
vt 0.036269 0.032367
vt 0.512414 0.100258
vt 0.512171 0.036231
vt 0.030594 0.038106
vt 0.030861 0.102133
vt 0.036181 0.009250
vt 0.506363 0.007480
vt 0.535284 0.036142
vt 0.535522 0.100169
vt 0.007753 0.102235
vt 0.007480 0.038208
vt 0.036163 0.388506
vt 0.036929 0.324486
vt 0.507082 0.330109
vt 0.506315 0.394134
vt 0.507357 0.306996
vt 0.037204 0.301382
vt 0.037271 0.295691
vt 0.507423 0.301308
vt 0.508246 0.231624
vt 0.508179 0.237292
vt 0.038027 0.231663
vt 0.038095 0.225950
vt 0.513121 0.301375
vt 0.513863 0.237352
vt 0.032328 0.231604
vt 0.031585 0.295627
vt 0.038374 0.202829
vt 0.508525 0.208527
vt 0.536968 0.237615
vt 0.536235 0.301638
vt 0.008477 0.295362
vt 0.009217 0.231339
vt 0.728512 0.836387
vt 0.722834 0.836282
vt 0.726531 0.639033
vt 0.732234 0.639141
vt 0.658714 0.840772
vt 0.658820 0.835086
vt 0.722730 0.841977
vt 0.653132 0.834982
vt 0.656818 0.637734
vt 0.662512 0.637840
vt 0.726632 0.633336
vt 0.662615 0.632155
vt 0.755522 0.630374
vt 0.751613 0.836823
vt 0.722293 0.865089
vt 0.658277 0.863877
vt 0.630032 0.834552
vt 0.633876 0.628103
vt 0.727088 0.608462
vt 0.663072 0.607285
vt 0.566019 0.833363
vt 0.569857 0.626913
vt 0.511165 0.426417
vt 0.511168 0.432070
vt 0.040982 0.432552
vt 0.040979 0.426819
vt 0.516901 0.496097
vt 0.511221 0.496082
vt 0.516873 0.432069
vt 0.041039 0.502322
vt 0.041036 0.496596
vt 0.511223 0.501741
vt 0.035303 0.432554
vt 0.035331 0.496582
vt 0.040962 0.403689
vt 0.511147 0.403325
vt 0.539989 0.432065
vt 0.540007 0.496093
vt 0.511251 0.524808
vt 0.041067 0.525476
vt 0.012216 0.496584
vt 0.012197 0.432557
vt 0.041162 0.589523
vt 0.511347 0.588817
vt 0.737986 0.550221
vt 0.673977 0.549725
vt 0.677591 0.079553
vt 0.741634 0.080049
vt 0.654473 0.079378
vt 0.650878 0.549550
vt 0.645194 0.549507
vt 0.648777 0.079337
vt 0.579069 0.078814
vt 0.584748 0.078855
vt 0.581173 0.549029
vt 0.575470 0.548986
vt 0.648813 0.073649
vt 0.584787 0.073160
vt 0.581135 0.554727
vt 0.645161 0.555195
vt 0.552353 0.548809
vt 0.555966 0.078637
vt 0.584964 0.050047
vt 0.648990 0.050541
vt 0.644996 0.578304
vt 0.580970 0.577840
vt 0.511712 0.613108
vt 0.511427 0.677131
vt 0.041246 0.675037
vt 0.041531 0.611008
vt 0.041148 0.698142
vt 0.511329 0.700246
vt 0.511308 0.705953
vt 0.041129 0.703816
vt 0.040828 0.773509
vt 0.040850 0.767836
vt 0.511033 0.769986
vt 0.511008 0.775697
vt 0.035434 0.703803
vt 0.035163 0.767830
vt 0.516737 0.769991
vt 0.516988 0.705965
vt 0.510901 0.798821
vt 0.040720 0.796606
vt 0.012053 0.767739
vt 0.012323 0.703711
vt 0.540094 0.706047
vt 0.539854 0.770074
vt 0.361257 0.992087
vt 0.166016 0.988443
vt 0.167211 0.924416
vt 0.167654 0.901289
vt 0.374102 0.905202
vt 0.362448 0.928075
vt 0.385593 0.928502
vt 0.384405 0.992520
vt 0.167773 0.895584
vt 0.374215 0.899531
vt 0.163330 0.831449
vt 0.169014 0.831569
vt 0.162077 0.895465
vt 0.169129 0.825893
vt 0.375578 0.829804
vt 0.375469 0.835515
vt 0.138969 0.895007
vt 0.140227 0.830991
vt 0.169566 0.802796
vt 0.364804 0.806474
vt 0.380120 0.832225
vt 0.412399 0.831557
vt 0.411674 0.836253
vt 0.415157 0.900367
vt 0.410403 0.900267
vt 0.416436 0.836352
vt 0.378716 0.903013
vt 0.410939 0.905001
vt 0.392495 0.809714
vt 0.411880 0.822373
vt 0.424354 0.900553
vt 0.425640 0.836538
vt 0.390152 0.926014
vt 0.410042 0.914162
# 76 polygons
usemtl wire_228184153
s 2
g Box006
f 1/111/1 2/112/2 3/113/3 4/114/4
s 4
f 5/121/5 6/120/6 7/118/7 8/117/8
s 8
f 9/122/9 10/119/10 6/120/6 5/121/5
s 16
f 10/124/10 11/123/11 7/118/7 6/120/6
s 32
f 11/115/11 12/116/12 8/117/8 7/118/7
s 64
f 12/126/12 9/125/9 5/121/5 8/117/8
s 2
f 13/89/13 14/90/14 15/91/15 16/92/16
s 4
f 17/99/17 18/98/18 19/96/19 20/95/20
s 8
f 21/100/21 22/97/22 18/98/18 17/99/17
s 16
f 22/102/22 23/101/23 19/96/19 18/98/18
s 32
f 23/93/23 24/94/24 20/95/20 19/96/19
s 64
f 24/104/24 21/103/21 17/99/17 20/95/20
s 2
f 25/87/1 26/84/2 27/83/3 28/88/4
s 4
f 29/69/5 30/68/6 31/72/7 32/75/8
s 8
f 33/70/9 34/67/10 30/68/6 29/69/5
s 16
f 34/73/10 35/71/11 31/72/7 30/68/6
s 32
f 35/76/11 36/74/12 32/75/8 31/72/7
s 64
f 36/78/12 33/77/9 29/69/5 32/75/8
s 2
f 37/23/25 38/24/26 39/25/27 40/26/28
s 4
f 41/33/29 42/32/30 43/30/31 44/29/32
s 8
f 45/34/33 46/31/34 42/32/30 41/33/29
s 16
f 46/36/34 47/35/35 43/30/31 42/32/30
s 32
f 47/27/35 48/28/36 44/29/32 43/30/31
s 64
f 48/38/36 45/37/33 41/33/29 44/29/32
s 16
f 49/51/10 50/49/11 51/50/7 52/46/6
s 64
f 53/145/12 54/143/9 55/144/5 56/141/8
s 2
f 57/1/1 58/2/2 59/3/3 60/4/4
s 4
f 61/11/5 62/10/6 63/8/7 64/7/8
s 8
f 65/12/9 66/9/10 62/10/6 61/11/5
s 16
f 66/14/10 67/13/11 63/8/7 62/10/6
s 32
f 67/5/11 68/6/12 64/7/8 63/8/7
s 64
f 68/16/12 65/15/9 61/11/5 64/7/8
s off
f 9/125/9 12/126/12 2/131/2 1/132/1
f 12/116/12 11/115/11 3/113/3 2/112/2
f 11/123/11 10/124/10 4/129/4 3/130/3
f 10/119/10 9/122/9 1/127/1 4/128/4
f 21/103/21 24/104/24 14/109/14 13/110/13
f 24/94/24 23/93/23 15/91/15 14/90/14
f 23/101/23 22/102/22 16/107/16 15/108/15
f 22/97/22 21/100/21 13/105/13 16/106/16
f 33/77/9 36/78/12 26/85/2 25/86/1
f 36/74/12 35/76/11 27/83/3 26/84/2
f 35/71/11 34/73/10 28/81/4 27/82/3
f 34/67/10 33/70/9 25/79/1 28/80/4
f 45/37/33 48/38/36 38/43/26 37/44/25
f 48/28/36 47/27/35 39/25/27 38/24/26
f 47/35/35 46/36/34 40/41/28 39/42/27
f 46/31/34 45/34/33 37/39/25 40/40/28
f 54/143/9 53/145/12 69/149/2 70/150/1
f 50/49/11 49/51/10 71/59/4 72/60/3
f 65/15/9 68/16/12 58/21/2 57/22/1
f 68/6/12 67/5/11 59/3/3 58/2/2
f 67/13/11 66/14/10 60/19/4 59/20/3
f 66/9/10 65/12/9 57/17/1 60/18/4
s 2
f 73/62/37 72/61/3 71/65/4 74/66/38
f 75/133/39 70/134/1 69/135/2 76/138/40
s 4
f 77/47/41 52/46/6 51/50/7 78/54/42
f 79/142/43 56/141/8 55/144/5 80/148/44
s 8
f 81/48/45 49/45/10 52/46/6 77/47/41
f 80/148/44 55/144/5 54/146/9 82/147/46
s 32
f 83/137/47 53/136/12 56/141/8 79/142/43
f 78/54/42 51/50/7 50/52/11 84/53/48
s off
f 84/53/48 50/52/11 72/61/3 73/62/37
f 76/138/40 69/135/2 53/136/12 83/137/47
f 82/147/46 54/146/9 70/151/1 75/152/39
f 74/57/38 71/58/4 49/45/10 81/48/45
f 74/63/38 81/55/45 84/56/48 73/64/37
f 85/163/49 86/156/50 87/158/51 88/164/52
f 81/55/45 77/47/41 78/54/42 84/56/48
f 86/156/50 89/157/53 90/155/54 87/158/51
f 75/133/39 76/138/40 85/139/49 88/140/52
f 76/165/40 83/159/47 86/160/50 85/166/49
f 83/159/47 79/142/43 89/157/53 86/160/50
f 79/142/43 80/148/44 90/155/54 89/157/53
f 80/148/44 82/153/46 87/154/51 90/155/54
f 82/153/46 75/161/39 88/162/52 87/154/51
# h3dt: 90 166 54 76
