# author: headus 3D tools
#  using: ply2obj v1.10
#   from: uvlayout v2.10.01
# 24 vertices
v 73.22900 -114.58600 355.32700
v 104.73020 -114.58600 417.30329
v 71.38941 -114.58600 434.24961
v 39.88832 -114.58600 372.27328
v 73.22900 -107.16991 355.32700
v 39.88832 -107.16991 372.27328
v 71.38941 -107.16991 434.24961
v 104.73020 -107.16991 417.30329
v 72.43731 -112.73860 357.84650
v 42.42591 -112.73860 373.10059
v 42.42591 -109.01730 373.10059
v 72.43731 -109.01730 357.84650
v 72.21671 -112.73860 431.71201
v 72.21671 -109.01730 431.71201
v 102.22810 -112.73860 416.45789
v 102.22810 -109.01730 416.45789
v 103.24090 -112.91540 418.06018
v 71.38941 -112.91540 434.24961
v 103.24090 -108.84050 418.06018
v 71.38941 -108.84050 434.24961
v 39.88832 -108.84050 372.27328
v 71.73971 -108.84050 356.08398
v 71.73971 -112.91540 356.08398
v 39.88832 -112.91540 372.27328
# 24 normals
vn 0.253037 -0.577397 -0.776231
vn 0.776231 -0.577397 0.253037
vn -0.253037 -0.577397 0.776231
vn -0.776231 -0.577397 -0.252915
vn 0.253037 0.577397 -0.776231
vn -0.776231 0.577397 -0.252915
vn -0.253037 0.577397 0.776231
vn 0.776231 0.577397 0.253037
vn -0.775194 0.551334 -0.308185
vn -0.451779 0.879814 -0.147287
vn -0.451779 -0.879814 -0.147287
vn -0.775194 -0.551334 -0.308185
vn -0.147287 0.879814 0.451779
vn -0.147287 -0.879814 0.451779
vn -0.207898 0.551334 0.807880
vn -0.207898 -0.551334 0.807880
vn 0.175426 0.272172 0.946011
vn -0.256913 0.559116 0.788195
vn 0.175426 -0.272172 0.946011
vn -0.256913 -0.559116 0.788195
vn -0.788195 -0.559116 -0.256913
vn -0.660837 -0.272172 -0.699322
vn -0.660837 0.272172 -0.699322
vn -0.788195 0.559116 -0.256913
# 48 uv coords
vt 0.636178 0.006299
vt 0.636178 0.256086
vt 0.608567 0.256086
vt 0.608567 0.006299
vt 0.636178 0.743914
vt 0.608567 0.743914
vt 0.636178 0.993701
vt 0.608567 0.993701
vt 0.036306 0.527469
vt 0.024061 0.514948
vt 0.026901 0.249862
vt 0.039314 0.249995
vt 0.010019 0.513489
vt 0.012678 0.263716
vt 0.039445 0.237595
vt 0.555247 0.243265
vt 0.555113 0.255654
vt 0.567484 0.255787
vt 0.564657 0.520874
vt 0.552110 0.533143
vt 0.053600 0.223681
vt 0.541398 0.229051
vt 0.581391 0.269937
vt 0.578741 0.519710
vt 0.035719 0.582472
vt 0.023458 0.569959
vt 0.023778 0.539726
vt 0.564368 0.545676
vt 0.564041 0.575909
vt 0.551509 0.588181
vt 0.563748 0.600717
vt 0.560863 0.865804
vt 0.548444 0.865682
vt 0.548302 0.878117
vt 0.032502 0.872283
vt 0.032631 0.859930
vt 0.020213 0.859805
vt 0.023215 0.594721
vt 0.009408 0.568500
vt 0.009700 0.540891
vt 0.578416 0.547139
vt 0.578120 0.574748
vt 0.577786 0.602180
vt 0.575090 0.851952
vt 0.534141 0.892035
vt 0.046345 0.886490
vt 0.006299 0.845643
vt 0.009148 0.595872
# 22 polygons
usemtl wire_088199225
s 2
g Box011
f 1/25/1 2/30/2 3/33/3 4/36/4
s 4
f 5/9/5 6/12/6 7/17/7 8/20/8
s 8
f 9/1/9 10/2/10 11/3/11 12/4/12
s 16
f 10/2/10 13/5/13 14/6/14 11/3/11
s 32
f 13/5/13 15/7/15 16/8/16 14/6/14
s 64
f 2/30/2 1/25/1 5/9/5 8/20/8
s off
f 3/33/3 2/30/2 17/31/17 18/32/18
f 2/30/2 8/20/8 19/28/19 17/29/17
f 8/20/8 7/17/7 20/18/20 19/19/19
f 7/17/7 6/12/6 21/15/21 20/16/20
f 6/12/6 5/9/5 22/10/22 21/11/21
f 5/9/5 1/25/1 23/26/23 22/27/22
f 1/25/1 4/36/4 24/37/24 23/38/23
f 4/36/4 3/33/3 18/34/18 24/35/24
f 18/32/18 17/31/17 15/43/15 13/44/13
f 17/29/17 19/28/19 16/41/16 15/42/15
f 19/19/19 20/18/20 14/23/14 16/24/16
f 20/16/20 21/15/21 11/21/11 14/22/14
f 21/11/21 22/10/22 12/13/12 11/14/11
f 22/27/22 23/26/23 9/39/9 12/40/12
f 23/38/23 24/37/24 10/47/10 9/48/9
f 24/35/24 18/34/18 13/45/13 10/46/10
# h3dt: 24 48 24 22
