# author: headus 3D tools
#  using: ply2obj v1.10
#   from: uvlayout v2.10.01
# 80 vertices
v -95.57300 -15.51800 584.73900
v -95.55290 -9.49830 646.99474
v -152.59469 -8.83900 647.39751
v -151.73629 -4.99890 585.08720
v -38.45760 -16.75059 584.66314
v -38.56050 -9.93600 646.87492
v 18.52970 -12.49861 584.71502
v 18.43831 -10.10830 647.23192
v 75.25068 -5.83041 585.03750
v 75.50610 -9.68761 647.37834
v -95.33620 -9.73150 522.45165
v -151.90438 -1.59370 522.98675
v -38.27160 -11.55451 522.31262
v 18.83710 -11.64341 522.17541
v 75.17362 -2.03920 522.87914
v -95.13130 1.23699 460.92433
v -152.17680 1.17460 460.91164
v -38.16610 1.30030 461.09544
v 18.83840 1.36230 461.04643
v 75.92410 1.36210 460.75195
v -95.17081 1.35909 398.53610
v -152.21909 1.62339 398.66324
v -38.18590 1.36330 398.56834
v 18.79061 1.30070 398.62860
v 75.82680 1.79190 398.60692
v -95.21091 1.36230 336.10524
v -152.29209 1.36210 336.39520
v -38.18980 1.30030 336.05682
v 18.80400 1.23699 336.21832
v 75.84450 1.17350 336.41102
v -95.15401 -7.57051 274.24266
v -151.89159 -0.74871 274.06840
v -38.04880 -9.22920 274.41840
v 19.07380 -7.78140 274.37682
v 75.84782 -1.30550 274.22712
v -94.96491 -4.24350 211.80260
v -152.03480 -2.78110 211.64340
v -37.89980 -4.81820 212.05880
v 19.20660 -4.75721 211.94664
v 76.29122 -4.15990 211.86980
v -95.33480 17.16679 586.48533
v -151.10070 29.45820 586.78495
v -152.30700 25.58259 649.23624
v -95.28931 24.92080 648.61241
v -38.29740 19.39159 586.36802
v -38.42050 24.47630 648.70225
v 18.76750 19.51750 586.66740
v 18.43410 24.30229 649.06834
v 75.14300 28.60160 586.82255
v 75.44680 24.72029 649.25853
v -95.11510 17.49930 523.84386
v -150.08599 32.87150 524.24785
v -38.15540 20.90420 523.81536
v 18.84830 18.65668 524.04552
v 74.22850 32.42850 524.35625
v -94.89270 18.39759 461.18422
v -149.26659 35.54480 461.50142
v -37.92810 21.13788 461.22554
v 19.03261 18.12830 461.38923
v 73.26988 35.78090 461.70745
v -94.87630 19.44789 398.54482
v -149.45299 35.97230 398.71890
v -37.86390 20.79490 398.64710
v 19.11630 18.49509 398.72704
v 73.31632 36.19050 398.80284
v -94.87970 20.91770 335.90992
v -149.96920 35.77100 335.99254
v -37.85440 19.35088 336.08632
v 19.18350 19.06020 336.05754
v 73.77860 35.60349 335.98222
v -94.85271 23.03620 273.30754
v -150.97688 33.73240 273.40022
v -37.75850 21.24979 273.54622
v 19.32630 19.89570 273.40532
v 74.87440 33.21410 273.26432
v -94.42810 30.21250 211.09864
v -151.42359 31.67500 210.85180
v -37.63940 29.65190 211.52908
v 19.16521 29.72080 211.55464
v 76.18110 30.31730 210.71680
# 80 normals
vn -0.102759 -0.994629 0.001434
vn -0.003235 -0.690228 0.723433
vn -0.585271 -0.602698 0.542392
vn -0.774583 -0.631020 -0.041079
vn 0.026277 -0.999573 0.012818
vn -0.005127 -0.688335 0.725233
vn 0.095434 -0.995392 0.012421
vn -0.001434 -0.713026 0.700971
vn 0.748062 -0.662119 -0.042697
vn 0.580114 -0.606971 0.543032
vn -0.087133 -0.987121 -0.133767
vn -0.773729 -0.632790 -0.028658
vn -0.016877 -0.989379 -0.144479
vn 0.083227 -0.990325 -0.110633
vn 0.772600 -0.633980 -0.032442
vn 0.001129 -0.995971 -0.088995
vn -0.740615 -0.671580 -0.015412
vn 0.001129 -0.994537 -0.103888
vn 0.000122 -0.994415 -0.104224
vn 0.740737 -0.671580 -0.016694
vn -0.002228 -1.000000 -0.000916
vn -0.737777 -0.674998 -0.000214
vn -0.000427 -1.000000 0.000000
vn 0.003723 -1.000000 0.000916
vn 0.737014 -0.675792 0.000519
vn -0.000214 -0.997375 0.071690
vn -0.734725 -0.678111 0.010834
vn -0.001129 -0.996338 0.085088
vn -0.001221 -0.997284 0.072880
vn 0.731032 -0.682018 0.017060
vn -0.074193 -0.996124 0.044650
vn -0.755875 -0.654276 0.020173
vn -0.001831 -0.998718 0.049289
vn 0.069127 -0.996338 0.048190
vn 0.755387 -0.654520 0.030794
vn -0.009736 -0.696881 -0.717024
vn -0.589178 -0.580236 -0.562199
vn -0.002136 -0.689282 -0.724470
vn 0.002716 -0.694897 -0.719038
vn 0.582311 -0.595495 -0.553317
vn 0.088110 0.994323 -0.058689
vn -0.617713 0.785418 0.034884
vn -0.575383 0.547427 0.607612
vn 0.010224 0.734817 0.678020
vn -0.020540 0.999390 -0.028475
vn 0.001038 0.717024 0.696972
vn -0.080541 0.995697 -0.045138
vn -0.004822 0.713636 0.700482
vn 0.648538 0.760026 0.040591
vn 0.575993 0.544925 0.609290
vn 0.106238 0.994232 0.010010
vn -0.581273 0.813038 0.030977
vn -0.010132 0.999878 0.013825
vn -0.101782 0.994629 -0.011109
vn 0.604224 0.795825 0.036593
vn 0.128182 0.991577 0.015656
vn -0.549899 0.834920 0.017854
vn 0.002319 1.000000 -0.000824
vn -0.130410 0.991394 -0.001526
vn 0.547885 0.836233 0.021089
vn 0.134682 0.990631 0.019868
vn -0.561039 0.827687 0.004517
vn 0.008332 0.999878 -0.014222
vn -0.137185 0.990417 0.007111
vn 0.554386 0.832235 0.000916
vn 0.144784 0.989013 0.028353
vn -0.576329 0.817036 -0.007630
vn 0.016267 0.999878 0.003510
vn -0.143991 0.989471 0.010712
vn 0.566410 0.823994 -0.012513
vn 0.109076 0.991271 0.074010
vn -0.628578 0.777422 -0.018098
vn 0.027254 0.996124 0.082250
vn -0.104529 0.990814 0.084386
vn 0.606574 0.794696 -0.021882
vn 0.017060 0.737380 -0.675182
vn -0.566624 0.572728 -0.592138
vn 0.005829 0.747696 -0.664073
vn -0.009034 0.757676 -0.652536
vn 0.576909 0.556095 -0.598120
# 98 uv coords
vt 0.605645 0.773643
vt 0.605243 0.889901
vt 0.499514 0.773924
vt 0.711623 0.773535
vt 0.711604 0.889918
vt 0.817743 0.773602
vt 0.817807 0.890043
vt 0.923965 0.773866
vt 0.605638 0.657188
vt 0.499320 0.657296
vt 0.711944 0.657240
vt 0.818054 0.657240
vt 0.924130 0.657405
vt 0.605657 0.540695
vt 0.499121 0.540794
vt 0.712192 0.540855
vt 0.818812 0.541078
vt 0.925342 0.541006
vt 0.605894 0.424183
vt 0.499476 0.424060
vt 0.712361 0.424424
vt 0.818803 0.424655
vt 0.925152 0.424693
vt 0.606171 0.307638
vt 0.499764 0.307425
vt 0.712616 0.307998
vt 0.819020 0.308233
vt 0.925416 0.308337
vt 0.607076 0.191218
vt 0.500900 0.190764
vt 0.713163 0.191652
vt 0.819274 0.191834
vt 0.925435 0.191970
vt 0.607463 0.074855
vt 0.713624 0.075288
vt 0.819896 0.075469
vt 0.328897 0.772581
vt 0.435013 0.773610
vt 0.222638 0.772604
vt 0.116317 0.773044
vt 0.328652 0.656323
vt 0.434993 0.656933
vt 0.222362 0.656094
vt 0.116099 0.656355
vt 0.328491 0.539912
vt 0.434700 0.540288
vt 0.222250 0.539640
vt 0.116017 0.539600
vt 0.328851 0.423515
vt 0.435181 0.423748
vt 0.222601 0.423219
vt 0.116327 0.422842
vt 0.329425 0.307067
vt 0.435560 0.307258
vt 0.223223 0.306804
vt 0.116966 0.306116
vt 0.330280 0.190555
vt 0.436565 0.190844
vt 0.223932 0.190305
vt 0.117780 0.189600
vt 0.437118 0.074415
vt 0.501306 0.074155
vt 0.330970 0.074104
vt 0.224666 0.073713
vt 0.501340 0.009804
vt 0.607769 0.010691
vt 0.118274 0.073391
vt 0.010684 0.304675
vt 0.011900 0.187196
vt 0.713979 0.011065
vt 0.012442 0.070802
vt 0.010075 0.422196
vt 0.820136 0.011236
vt 0.989781 0.192918
vt 0.989761 0.309113
vt 0.499173 0.890449
vt 0.435243 0.890032
vt 0.329353 0.888715
vt 0.009804 0.539846
vt 0.990196 0.076466
vt 0.926061 0.075467
vt 0.926509 0.011119
vt 0.989378 0.425129
vt 0.222963 0.889138
vt 0.009839 0.657063
vt 0.989803 0.541176
vt 0.605420 0.954146
vt 0.499163 0.954690
vt 0.116774 0.889525
vt 0.010126 0.773826
vt 0.988411 0.657101
vt 0.711519 0.954106
vt 0.010775 0.890185
vt 0.988149 0.773343
vt 0.817727 0.954207
vt 0.988189 0.889849
vt 0.924012 0.890343
vt 0.924105 0.954641
# 78 polygons
usemtl wire_135059008
s 2
g Box007
f 1/1/1 2/2/2 3/76/3 4/3/4
f 5/4/5 6/5/6 2/2/2 1/1/1
f 7/6/7 8/7/8 6/5/6 5/4/5
f 9/8/9 10/97/10 8/7/8 7/6/7
f 11/9/11 1/1/1 4/3/4 12/10/12
f 13/11/13 5/4/5 1/1/1 11/9/11
f 14/12/14 7/6/7 5/4/5 13/11/13
f 15/13/15 9/8/9 7/6/7 14/12/14
f 16/14/16 11/9/11 12/10/12 17/15/17
f 18/16/18 13/11/13 11/9/11 16/14/16
f 19/17/19 14/12/14 13/11/13 18/16/18
f 20/18/20 15/13/15 14/12/14 19/17/19
f 21/19/21 16/14/16 17/15/17 22/20/22
f 23/21/23 18/16/18 16/14/16 21/19/21
f 24/22/24 19/17/19 18/16/18 23/21/23
f 25/23/25 20/18/20 19/17/19 24/22/24
f 26/24/26 21/19/21 22/20/22 27/25/27
f 28/26/28 23/21/23 21/19/21 26/24/26
f 29/27/29 24/22/24 23/21/23 28/26/28
f 30/28/30 25/23/25 24/22/24 29/27/29
f 31/29/31 26/24/26 27/25/27 32/30/32
f 33/31/33 28/26/28 26/24/26 31/29/31
f 34/32/34 29/27/29 28/26/28 33/31/33
f 35/33/35 30/28/30 29/27/29 34/32/34
f 36/34/36 31/29/31 32/30/32 37/62/37
f 38/35/38 33/31/33 31/29/31 36/34/36
f 39/36/39 34/32/34 33/31/33 38/35/38
f 40/81/40 35/33/35 34/32/34 39/36/39
s 4
f 41/37/41 42/38/42 43/77/43 44/78/44
f 45/39/45 41/37/41 44/78/44 46/84/46
f 47/40/47 45/39/45 46/84/46 48/89/48
f 49/90/49 47/40/47 48/89/48 50/93/50
f 51/41/51 52/42/52 42/38/42 41/37/41
f 53/43/53 51/41/51 41/37/41 45/39/45
f 54/44/54 53/43/53 45/39/45 47/40/47
f 55/85/55 54/44/54 47/40/47 49/90/49
f 56/45/56 57/46/57 52/42/52 51/41/51
f 58/47/58 56/45/56 51/41/51 53/43/53
f 59/48/59 58/47/58 53/43/53 54/44/54
f 60/79/60 59/48/59 54/44/54 55/85/55
f 61/49/61 62/50/62 57/46/57 56/45/56
f 63/51/63 61/49/61 56/45/56 58/47/58
f 64/52/64 63/51/63 58/47/58 59/48/59
f 65/72/65 64/52/64 59/48/59 60/79/60
f 66/53/66 67/54/67 62/50/62 61/49/61
f 68/55/68 66/53/66 61/49/61 63/51/63
f 69/56/69 68/55/68 63/51/63 64/52/64
f 70/68/70 69/56/69 64/52/64 65/72/65
f 71/57/71 72/58/72 67/54/67 66/53/66
f 73/59/73 71/57/71 66/53/66 68/55/68
f 74/60/74 73/59/73 68/55/68 69/56/69
f 75/69/75 74/60/74 69/56/69 70/68/70
f 76/63/76 77/61/77 72/58/72 71/57/71
f 78/64/78 76/63/76 71/57/71 73/59/73
f 79/67/79 78/64/78 73/59/73 74/60/74
f 80/71/80 79/67/79 74/60/74 75/69/75
s 8
f 44/87/44 43/88/43 3/76/3 2/2/2
f 46/92/46 44/87/44 2/2/2 6/5/6
f 48/95/48 46/92/46 6/5/6 8/7/8
f 50/98/50 48/95/48 8/7/8 10/97/10
s 16
f 49/94/49 50/96/50 10/97/10 9/8/9
f 55/91/55 49/94/49 9/8/9 15/13/15
f 60/86/60 55/91/55 15/13/15 20/18/20
f 65/83/65 60/86/60 20/18/20 25/23/25
f 70/75/70 65/83/65 25/23/25 30/28/30
f 75/74/75 70/75/70 30/28/30 35/33/35
f 80/80/80 75/74/75 35/33/35 40/81/40
s 32
f 79/73/79 80/82/80 40/81/40 39/36/39
f 78/70/78 79/73/79 39/36/39 38/35/38
f 76/66/76 78/70/78 38/35/38 36/34/36
f 77/65/77 76/66/76 36/34/36 37/62/37
s 64
f 72/58/72 77/61/77 37/62/37 32/30/32
f 67/54/67 72/58/72 32/30/32 27/25/27
f 62/50/62 67/54/67 27/25/27 22/20/22
f 57/46/57 62/50/62 22/20/22 17/15/17
f 52/42/52 57/46/57 17/15/17 12/10/12
f 42/38/42 52/42/52 12/10/12 4/3/4
f 43/77/43 42/38/42 4/3/4 3/76/3
# h3dt: 80 98 80 78
