# author: headus 3D tools
#  using: ply2obj v1.10
#   from: uvlayout v2.10.01
# 86 vertices
v -126.755000 -96.503000 629.798000
v -124.943998 -96.878999 624.709440
v -126.792795 -98.328301 624.700832
v -128.486994 -99.603798 625.711392
v -129.691096 -100.452797 627.541225
v -130.166603 -100.707101 629.827724
v -129.819300 -100.316498 632.117885
v -128.717997 -99.358100 633.958522
v -127.080798 -98.022004 634.984584
v -125.232097 -96.572702 634.993190
v -123.537799 -95.297206 633.982630
v -122.333797 -94.448198 632.152797
v -121.858302 -94.193903 629.866298
v -122.205600 -94.584505 627.576140
v -123.306898 -95.542804 625.735622
v -122.006603 -99.075502 620.726833
v -125.338003 -101.687103 620.711210
v -128.390893 -103.985399 622.532438
v -130.560494 -105.515199 625.829494
v -131.417292 -105.973505 629.949489
v -130.791497 -105.269601 634.076381
v -128.807093 -103.542802 637.392907
v -125.856999 -101.135103 639.242030
v -122.525699 -98.523499 639.257533
v -119.472799 -96.225199 637.436427
v -117.303098 -94.695300 634.139186
v -116.446301 -94.237002 630.019191
v -117.072102 -94.941004 625.892301
v -119.056598 -96.667802 622.575833
v -118.524602 -102.657404 618.638698
v -122.678798 -105.914104 618.619533
v -126.485599 -108.780000 620.890408
v -129.191203 -110.687698 625.001799
v -130.259593 -111.259203 630.139430
v -129.479197 -110.381304 635.285610
v -127.004595 -108.227997 639.421106
v -123.326002 -105.225702 641.726894
v -119.171802 -101.969101 641.746181
v -115.365001 -99.103105 639.475307
v -112.659396 -97.195503 635.363918
v -111.590999 -96.624002 630.226283
v -112.371401 -97.501802 625.080105
v -114.845997 -99.655099 620.944485
v -115.187602 -106.915397 618.859098
v -119.341802 -110.171999 618.839687
v -123.148601 -113.038000 621.110685
v -125.854200 -114.945604 625.222136
v -126.922594 -115.517202 630.359706
v -126.142200 -114.639300 635.505886
v -123.667599 -112.486002 639.641383
v -119.988904 -109.483706 641.947229
v -115.834798 -106.227098 641.966518
v -112.027995 -103.361099 639.695583
v -109.322398 -101.453498 635.584194
v -108.254004 -100.882005 630.446618
v -109.034396 -101.759803 625.300382
v -111.508998 -103.913100 621.164882
v -112.656596 -111.005997 621.344020
v -115.987895 -113.617700 621.328518
v -119.040799 -115.916002 623.149626
v -121.210498 -117.445798 626.446683
v -122.067203 -117.904100 630.566798
v -121.441401 -117.200104 634.693691
v -119.456996 -115.473294 638.010095
v -116.506900 -113.065699 639.859218
v -113.175603 -110.454004 639.874781
v -110.122699 -108.155700 638.053615
v -107.952998 -106.625900 634.756496
v -107.096202 -106.167604 630.636438
v -107.721996 -106.871599 626.509488
v -109.706504 -108.598396 623.193081
v -111.432795 -114.119104 625.601406
v -113.281499 -115.568500 625.592802
v -114.975695 -116.844006 626.603422
v -116.179799 -117.692902 628.433193
v -116.655300 -117.947304 630.719628
v -116.308003 -117.556604 633.009912
v -115.206698 -116.598298 634.850427
v -113.569498 -115.262204 635.876491
v -111.720799 -113.812798 635.885095
v -110.026602 -112.537304 634.874537
v -108.822496 -111.688400 633.044826
v -108.346994 -111.434000 630.758326
v -108.694300 -111.824701 628.467983
v -109.795600 -112.782999 626.627529
v -111.758602 -115.638102 630.787989
# 86 normals
vn -0.616279 0.786394 -0.040621
vn -0.454679 0.748337 -0.482726
vn -0.615333 0.622383 -0.483520
vn -0.762620 0.511475 -0.395624
vn -0.867332 0.437618 -0.236587
vn -0.908716 0.415583 -0.037783
vn -0.878594 0.449429 0.161234
vn -0.782793 0.532900 0.321278
vn -0.640481 0.648935 0.410425
vn -0.479613 0.774980 0.411219
vn -0.332326 0.885888 0.323323
vn -0.227614 0.959714 0.164225
vn -0.186382 0.981871 -0.034487
vn -0.216596 0.947812 -0.233535
vn -0.312397 0.864585 -0.393548
vn -0.214338 0.564457 -0.797015
vn -0.492309 0.346579 -0.798389
vn -0.747024 0.154764 -0.646493
vn -0.928035 0.027193 -0.371330
vn -0.999573 -0.010926 -0.027681
vn -0.947293 0.047671 0.316517
vn -0.781725 0.191784 0.593298
vn -0.535616 0.392572 0.747574
vn -0.257676 0.610480 0.748825
vn -0.002930 0.802295 0.596991
vn 0.177989 0.929836 0.321889
vn 0.249496 0.968077 -0.021882
vn 0.197247 0.909388 -0.366172
vn 0.031679 0.765275 -0.642709
vn 0.064427 0.275530 -0.959012
vn -0.277422 0.007416 -0.960691
vn -0.590887 -0.228499 -0.773729
vn -0.813587 -0.385491 -0.435299
vn -0.901483 -0.432583 -0.012330
vn -0.837270 -0.360282 0.411219
vn -0.633523 -0.182995 0.751694
vn -0.330678 0.064091 0.941433
vn 0.011109 0.332113 0.943081
vn 0.324513 0.568180 0.756119
vn 0.547336 0.725111 0.417689
vn 0.635232 0.772111 -0.005127
vn 0.571019 0.699933 -0.428737
vn 0.367210 0.522676 -0.769273
vn 0.330770 -0.064182 -0.941433
vn -0.011109 -0.332113 -0.943081
vn -0.324513 -0.568180 -0.756119
vn -0.547336 -0.725111 -0.417689
vn -0.635232 -0.772111 0.005127
vn -0.571019 -0.699933 0.428829
vn -0.367332 -0.522676 0.769273
vn -0.064427 -0.275530 0.959012
vn 0.277422 -0.007416 0.960691
vn 0.590887 0.228499 0.773729
vn 0.813587 0.385491 0.435299
vn 0.901483 0.432583 0.012330
vn 0.837270 0.360282 -0.411219
vn 0.633523 0.182995 -0.751694
vn 0.535616 -0.392572 -0.747574
vn 0.257676 -0.610480 -0.748825
vn 0.002930 -0.802295 -0.596991
vn -0.177989 -0.929836 -0.321889
vn -0.249496 -0.968077 0.021882
vn -0.197247 -0.909388 0.366172
vn -0.031679 -0.765275 0.642709
vn 0.214338 -0.564457 0.797015
vn 0.492309 -0.346579 0.798389
vn 0.747024 -0.154764 0.646493
vn 0.928035 -0.027193 0.371330
vn 0.999573 0.010926 0.027681
vn 0.947293 -0.047671 -0.316517
vn 0.781725 -0.191784 -0.593298
vn 0.640481 -0.648935 -0.410425
vn 0.479613 -0.774980 -0.411219
vn 0.332326 -0.885888 -0.323323
vn 0.227614 -0.959714 -0.164225
vn 0.186382 -0.981871 0.034487
vn 0.216596 -0.947812 0.233535
vn 0.312397 -0.864585 0.393548
vn 0.454679 -0.748337 0.482726
vn 0.615333 -0.622383 0.483520
vn 0.762620 -0.511475 0.395624
vn 0.867332 -0.437618 0.236587
vn 0.908716 -0.415583 0.037783
vn 0.878594 -0.449429 -0.161234
vn 0.782793 -0.532900 -0.321278
vn 0.616279 -0.786394 0.040621
# 117 uv coords
vt 0.519964 0.374839
vt 0.436792 0.372213
vt 0.437353 0.308027
vt 0.437469 0.243534
vt 0.438800 0.178037
vt 0.446427 0.112323
vt 0.442639 0.890120
vt 0.435843 0.824263
vt 0.435363 0.758594
vt 0.436594 0.693547
vt 0.437891 0.628894
vt 0.438768 0.564450
vt 0.439090 0.500172
vt 0.438395 0.436271
vt 0.351838 0.369708
vt 0.352277 0.303077
vt 0.352953 0.234637
vt 0.354328 0.163138
vt 0.358550 0.087627
vt 0.354530 0.913571
vt 0.351315 0.837915
vt 0.350979 0.766215
vt 0.351459 0.697543
vt 0.351994 0.630836
vt 0.352344 0.565262
vt 0.352407 0.500246
vt 0.352133 0.435271
vt 0.266558 0.369162
vt 0.267722 0.302405
vt 0.269047 0.233777
vt 0.269616 0.162153
vt 0.267311 0.086522
vt 0.263384 0.913508
vt 0.266698 0.837853
vt 0.267123 0.766153
vt 0.266728 0.697472
vt 0.266262 0.630747
vt 0.265946 0.565129
vt 0.265830 0.499998
vt 0.265977 0.434846
vt 0.180926 0.370550
vt 0.182709 0.305785
vt 0.184619 0.240682
vt 0.184907 0.174982
vt 0.178887 0.109047
vt 0.175307 0.889933
vt 0.182188 0.824082
vt 0.182754 0.758406
vt 0.181610 0.693344
vt 0.180406 0.628663
vt 0.179628 0.564146
vt 0.179405 0.499667
vt 0.179810 0.435153
vt 0.257576 0.006089
vt 0.370271 0.007467
vt 0.156413 0.046292
vt 0.470435 0.050152
vt 0.012462 0.176372
vt 0.096536 0.146670
vt 0.099671 0.195206
vt 0.081862 0.108416
vt 0.543434 0.114117
vt 0.611186 0.183695
vt 0.523558 0.200495
vt 0.527837 0.152007
vt 0.013431 0.221344
vt 0.098795 0.250342
vt 0.609206 0.228572
vt 0.523227 0.255766
vt 0.009031 0.158133
vt 0.615037 0.165586
vt 0.012038 0.277176
vt 0.096810 0.309833
vt 0.609637 0.283911
vt 0.524456 0.315666
vt 0.010116 0.338322
vt 0.094973 0.371923
vt 0.605133 0.374534
vt 0.008569 0.402000
vt 0.093762 0.435375
vt 0.525699 0.435265
vt 0.007713 0.466729
vt 0.093287 0.499362
vt 0.611376 0.467788
vt 0.525425 0.499588
vt 0.007586 0.531634
vt 0.093513 0.563292
vt 0.611002 0.532233
vt 0.524954 0.563608
vt 0.008132 0.596108
vt 0.094363 0.626598
vt 0.610263 0.596620
vt 0.523963 0.626925
vt 0.009225 0.659393
vt 0.095676 0.688514
vt 0.609047 0.659861
vt 0.522544 0.688833
vt 0.365195 0.993911
vt 0.252611 0.993834
vt 0.010552 0.720173
vt 0.097011 0.747865
vt 0.607624 0.720609
vt 0.521124 0.748172
vt 0.152040 0.952405
vt 0.465823 0.952624
vt 0.011294 0.775753
vt 0.097201 0.802905
vt 0.606805 0.776167
vt 0.520860 0.803204
vt 0.078278 0.889402
vt 0.539673 0.889723
vt 0.009758 0.820578
vt 0.093438 0.851348
vt 0.608282 0.820983
vt 0.524562 0.851647
vt 0.006089 0.838762
vt 0.611928 0.839175
# 98 polygons
usemtl wire_214228153
s 1
g Sphere002
f 1/78/1 2/1/2 3/75/3
f 1/74/1 3/75/3 4/69/4
f 1/68/1 4/69/4 5/64/5
f 1/63/1 5/64/5 6/65/6
f 1/71/1 6/65/6 7/62/7
f 1/117/1 7/111/7 8/115/8
f 1/114/1 8/115/8 9/109/9
f 1/108/1 9/109/9 10/103/10
f 1/102/1 10/103/10 11/97/11
f 1/96/1 11/97/11 12/93/12
f 1/92/1 12/93/12 13/89/13
f 1/88/1 13/89/13 14/85/14
f 1/84/1 14/85/14 15/81/15
f 1/78/1 15/81/15 2/1/2
f 2/1/2 16/2/16 17/3/17 3/75/3
f 3/75/3 17/3/17 18/4/18 4/69/4
f 4/69/4 18/4/18 19/5/19 5/64/5
f 5/64/5 19/5/19 20/6/20 6/65/6
f 6/65/6 20/6/20 21/57/21 7/62/7
f 7/111/7 21/105/21 22/7/22 8/115/8
f 8/115/8 22/7/22 23/8/23 9/109/9
f 9/109/9 23/8/23 24/9/24 10/103/10
f 10/103/10 24/9/24 25/10/25 11/97/11
f 11/97/11 25/10/25 26/11/26 12/93/12
f 12/93/12 26/11/26 27/12/27 13/89/13
f 13/89/13 27/12/27 28/13/28 14/85/14
f 14/85/14 28/13/28 29/14/29 15/81/15
f 15/81/15 29/14/29 16/2/16 2/1/2
f 16/2/16 30/15/30 31/16/31 17/3/17
f 17/3/17 31/16/31 32/17/32 18/4/18
f 18/4/18 32/17/32 33/18/33 19/5/19
f 19/5/19 33/18/33 34/19/34 20/6/20
f 20/6/20 34/19/34 35/55/35 21/57/21
f 21/105/21 35/98/35 36/20/36 22/7/22
f 22/7/22 36/20/36 37/21/37 23/8/23
f 23/8/23 37/21/37 38/22/38 24/9/24
f 24/9/24 38/22/38 39/23/39 25/10/25
f 25/10/25 39/23/39 40/24/40 26/11/26
f 26/11/26 40/24/40 41/25/41 27/12/27
f 27/12/27 41/25/41 42/26/42 28/13/28
f 28/13/28 42/26/42 43/27/43 29/14/29
f 29/14/29 43/27/43 30/15/30 16/2/16
f 30/15/30 44/28/44 45/29/45 31/16/31
f 31/16/31 45/29/45 46/30/46 32/17/32
f 32/17/32 46/30/46 47/31/47 33/18/33
f 33/18/33 47/31/47 48/32/48 34/19/34
f 34/19/34 48/32/48 49/54/49 35/55/35
f 35/98/35 49/99/49 50/33/50 36/20/36
f 36/20/36 50/33/50 51/34/51 37/21/37
f 37/21/37 51/34/51 52/35/52 38/22/38
f 38/22/38 52/35/52 53/36/53 39/23/39
f 39/23/39 53/36/53 54/37/54 40/24/40
f 40/24/40 54/37/54 55/38/55 41/25/41
f 41/25/41 55/38/55 56/39/56 42/26/42
f 42/26/42 56/39/56 57/40/57 43/27/43
f 43/27/43 57/40/57 44/28/44 30/15/30
f 44/28/44 58/41/58 59/42/59 45/29/45
f 45/29/45 59/42/59 60/43/60 46/30/46
f 46/30/46 60/43/60 61/44/61 47/31/47
f 47/31/47 61/44/61 62/45/62 48/32/48
f 48/32/48 62/45/62 63/56/63 49/54/49
f 49/99/49 63/104/63 64/46/64 50/33/50
f 50/33/50 64/46/64 65/47/65 51/34/51
f 51/34/51 65/47/65 66/48/66 52/35/52
f 52/35/52 66/48/66 67/49/67 53/36/53
f 53/36/53 67/49/67 68/50/68 54/37/54
f 54/37/54 68/50/68 69/51/69 55/38/55
f 55/38/55 69/51/69 70/52/70 56/39/56
f 56/39/56 70/52/70 71/53/71 57/40/57
f 57/40/57 71/53/71 58/41/58 44/28/44
f 58/41/58 72/77/72 73/73/73 59/42/59
f 59/42/59 73/73/73 74/67/74 60/43/60
f 60/43/60 74/67/74 75/60/75 61/44/61
f 61/44/61 75/60/75 76/59/76 62/45/62
f 62/45/62 76/59/76 77/61/77 63/56/63
f 63/104/63 77/110/77 78/113/78 64/46/64
f 64/46/64 78/113/78 79/107/79 65/47/65
f 65/47/65 79/107/79 80/101/80 66/48/66
f 66/48/66 80/101/80 81/95/81 67/49/67
f 67/49/67 81/95/81 82/91/82 68/50/68
f 68/50/68 82/91/82 83/87/83 69/51/69
f 69/51/69 83/87/83 84/83/84 70/52/70
f 70/52/70 84/83/84 85/80/85 71/53/71
f 71/53/71 85/80/85 72/77/72 58/41/58
f 86/76/86 73/73/73 72/77/72
f 86/72/86 74/67/74 73/73/73
f 86/66/86 75/60/75 74/67/74
f 86/58/86 76/59/76 75/60/75
f 86/70/86 77/61/77 76/59/76
f 86/116/86 78/113/78 77/110/77
f 86/112/86 79/107/79 78/113/78
f 86/106/86 80/101/80 79/107/79
f 86/100/86 81/95/81 80/101/80
f 86/94/86 82/91/82 81/95/81
f 86/90/86 83/87/83 82/91/82
f 86/86/86 84/83/84 83/87/83
f 86/82/86 85/80/85 84/83/84
f 86/79/86 72/77/72 85/80/85
# h3dt: 86 117 86 98
