# author: headus 3D tools
#  using: ply2obj v1.10
#   from: uvlayout v2.10.01
# 58 vertices
v -126.62600 17.87800 -53.68700
v -132.22540 19.72910 -59.00069
v -124.23851 119.33690 -30.32330
v -120.90011 118.23330 -27.15511
v -140.08148 20.18630 -57.95710
v -128.92237 119.60950 -29.70110
v -144.27850 18.90529 -51.34190
v -131.42469 118.84580 -25.75701
v -141.65590 16.85071 -44.13650
v -129.86109 117.62079 -21.46112
v -134.18870 15.56970 -41.76680
v -125.40912 116.85700 -20.04820
v -127.49980 16.02690 -46.01710
v -121.42100 117.12960 -22.58230
v -130.74139 12.10310 -53.83578
v -134.00489 13.18200 -56.93280
v -131.25059 11.02420 -49.36560
v -135.14909 10.75770 -46.88841
v -139.50120 11.50440 -48.26951
v -141.02969 12.70180 -52.46900
v -138.58360 13.44840 -56.32450
v -125.08961 118.81120 -27.92550
v -123.34141 118.23330 -26.26650
v -127.54237 118.95399 -27.59970
v -128.85270 118.55400 -25.53440
v -128.03399 117.91260 -23.28480
v -125.70260 117.51260 -22.54490
v -123.61422 117.65540 -23.87200
v -123.47050 136.47880 -23.47712
v -121.72230 135.90090 -21.81801
v -125.92331 136.62160 -23.15120
v -127.23359 136.22161 -21.08590
v -126.41481 135.58020 -18.83630
v -124.08351 135.18020 -18.09640
v -121.99512 135.32300 -19.42340
v -118.53982 135.90090 -22.97640
v -122.36081 137.16409 -26.60270
v -121.77781 143.52660 -25.00060
v -117.95671 142.26340 -21.37441
v -127.72239 137.47611 -25.89030
v -127.13939 143.83870 -24.28850
v -130.58650 136.60190 -21.37612
v -130.00340 142.96441 -19.77410
v -128.79679 135.19980 -16.45890
v -128.21369 141.56230 -14.85690
v -123.70080 134.32559 -14.84170
v -123.11770 140.68809 -13.23961
v -119.13601 134.63761 -17.74220
v -118.55301 141.00009 -16.14021
v -122.88740 142.84129 -21.87500
v -121.13920 142.26340 -20.21600
v -121.41202 141.68540 -17.82140
v -123.50040 141.54270 -16.49441
v -125.83171 141.94260 -17.23430
v -126.65049 142.58409 -19.48390
v -125.34021 142.98411 -21.54920
v -135.75147 12.10310 -52.01220
v -123.82310 142.26340 -19.23920
# 51 normals
vn 0.889520 -0.236098 -0.391015
vn 0.295916 -0.039889 -0.954282
vn 0.309376 0.769273 -0.558811
vn 0.782396 0.612891 -0.109992
vn -0.536684 0.008515 -0.843679
vn -0.354392 0.807972 -0.470732
vn -0.981597 -0.127113 -0.142495
vn -0.708875 0.699628 0.088079
vn -0.703534 -0.344931 0.621132
vn -0.487334 0.526033 0.696881
vn 0.087865 -0.480620 0.872398
vn 0.143472 0.417872 0.897027
vn 0.796893 -0.432277 0.421870
vn 0.708570 0.456418 0.537936
vn 0.464933 -0.792193 -0.395074
vn 0.114723 -0.676433 -0.727431
vn 0.410334 -0.907984 0.084447
vn -0.007935 -0.936581 0.350272
vn -0.474913 -0.856498 0.202100
vn -0.638924 -0.727980 -0.248489
vn -0.376488 -0.647897 -0.662119
vn 0.260483 0.907038 -0.330434
vn 0.611732 0.790972 0.002838
vn -0.232283 0.935818 -0.264817
vn -0.495697 0.855399 0.149911
vn -0.331044 0.726576 0.601935
vn 0.137215 0.646188 0.750626
vn 0.556827 0.674876 0.484099
vn 0.115455 -0.674876 -0.728713
vn 0.466795 -0.790972 -0.395379
vn -0.377220 -0.646188 -0.663279
vn -0.640573 -0.726576 -0.248215
vn -0.475920 -0.855490 0.203595
vn -0.007630 -0.935726 0.352377
vn 0.411982 -0.907129 0.085668
vn 0.681377 -0.600012 -0.419032
vn 0.201642 -0.441433 -0.874290
vn 0.311634 0.758622 -0.572087
vn 0.791339 0.600012 -0.116889
vn -0.471129 -0.402338 -0.784899
vn -0.361289 0.797717 -0.482634
vn -0.830709 -0.512025 -0.218183
vn -0.720717 0.687939 0.083959
vn -0.606025 -0.688030 0.398828
vn -0.496094 0.512025 0.701184
vn 0.033419 -0.797717 0.601935
vn 0.143472 0.402338 0.904077
vn 0.606482 -0.758530 0.237838
vn 0.716596 0.441433 0.540072
vn 0.088415 0.965879 0.243148
vn -0.088415 -0.965879 -0.243148
# 84 uv coords
vt 0.090096 0.167421
vt 0.132934 0.146228
vt 0.175405 0.126290
vt 0.218176 0.107381
vt 0.261717 0.088999
vt 0.305801 0.068565
vt 0.650892 0.803412
vt 0.644988 0.823496
vt 0.655778 0.781187
vt 0.657740 0.757538
vt 0.657062 0.733427
vt 0.656777 0.711635
vt 0.770696 0.843546
vt 0.763449 0.866107
vt 0.776165 0.818068
vt 0.779345 0.791620
vt 0.780404 0.765964
vt 0.780175 0.743191
vt 0.781021 0.881678
vt 0.792300 0.853166
vt 0.798916 0.823733
vt 0.802685 0.794094
vt 0.803802 0.764507
vt 0.800925 0.734554
vt 0.847768 0.929313
vt 0.830661 0.929591
vt 0.829094 0.964488
vt 0.845304 0.968363
vt 0.858690 0.958504
vt 0.859875 0.941678
vt 0.240745 0.046987
vt 0.279193 0.029422
vt 0.636020 0.698478
vt 0.600847 0.709677
vt 0.198788 0.064788
vt 0.307988 0.008730
vt 0.349330 0.041235
vt 0.662150 0.680176
vt 0.567297 0.722669
vt 0.155993 0.083696
vt 0.663841 0.696445
vt 0.534571 0.735837
vt 0.113793 0.103458
vt 0.777683 0.725577
vt 0.639434 0.731473
vt 0.502737 0.749255
vt 0.072933 0.121919
vt 0.787189 0.704083
vt 0.641970 0.756318
vt 0.471748 0.762799
vt 0.043803 0.188230
vt 0.041062 0.134095
vt 0.830364 0.687401
vt 0.843110 0.723071
vt 0.640524 0.778507
vt 0.443108 0.778591
vt 0.043261 0.096564
vt 0.848834 0.760662
vt 0.634839 0.799801
vt 0.079312 0.090193
vt 0.848168 0.797438
vt 0.627112 0.823137
vt 0.061194 0.064599
vt 0.843435 0.833581
vt 0.630510 0.851966
vt 0.642609 0.841092
vt 0.030477 0.061917
vt 0.834395 0.870050
vt 0.753980 0.882350
vt 0.008730 0.083493
vt 0.819154 0.906980
vt 0.758644 0.906686
vt 0.011202 0.114222
vt 0.796200 0.936691
vt 0.036768 0.132276
vt 0.820153 0.942664
vt 0.840920 0.948343
vt 0.856493 0.907734
vt 0.881741 0.933872
vt 0.879039 0.969931
vt 0.849829 0.991270
vt 0.814529 0.982564
vt 0.798578 0.949530
vt 0.821540 0.949442
# 63 polygons
usemtl wire_225143087
s 8
g Cylinder002
f 1/1/1 2/2/2 3/46/3 4/50/4
f 2/2/2 5/3/5 6/42/6 3/46/3
f 5/3/5 7/4/7 8/39/8 6/42/6
f 7/4/7 9/5/9 10/34/10 8/39/8
f 9/5/9 11/6/11 12/33/12 10/34/10
f 11/6/11 13/37/13 14/38/14 12/33/12
f 13/51/13 1/1/1 4/50/4 14/56/14
s off
f 2/2/2 1/1/1 15/47/15 16/43/16
f 1/1/1 13/51/13 17/52/17 15/47/15
f 13/37/13 11/6/11 18/32/18 17/36/17
f 11/6/11 9/5/9 19/31/19 18/32/18
f 9/5/9 7/4/7 20/35/20 19/31/19
f 7/4/7 5/3/5 21/40/21 20/35/20
f 5/3/5 2/2/2 16/43/16 21/40/21
f 4/62/4 3/59/3 22/7/22 23/8/23
f 3/59/3 6/55/6 24/9/24 22/7/22
f 6/55/6 8/49/8 25/10/25 24/9/24
f 8/49/8 10/45/10 26/11/26 25/10/25
f 10/45/10 12/33/12 27/12/27 26/11/26
f 12/33/12 14/38/14 28/41/28 27/12/27
f 14/65/14 4/62/4 23/8/23 28/66/28
f 23/8/23 22/7/22 29/13/29 30/14/30
f 22/7/22 24/9/24 31/15/31 29/13/29
f 24/9/24 25/10/25 32/16/32 31/15/31
f 25/10/25 26/11/26 33/17/33 32/16/32
f 26/11/26 27/12/27 34/18/34 33/17/33
f 27/12/27 28/41/28 35/44/35 34/18/34
f 28/66/28 23/8/23 30/14/30 35/69/35
f 36/19/36 37/20/37 38/68/38 39/71/39
f 37/20/37 40/21/40 41/64/41 38/68/38
f 40/21/40 42/22/42 43/61/43 41/64/41
f 42/22/42 44/23/44 45/58/45 43/61/43
f 44/23/44 46/24/46 47/54/47 45/58/45
f 46/24/46 48/48/48 49/53/49 47/54/47
f 48/72/48 36/19/36 39/71/39 49/74/49
f 30/14/30 29/13/29 37/20/37 36/19/36
f 29/13/29 31/15/31 40/21/40 37/20/37
f 31/15/31 32/16/32 42/22/42 40/21/40
f 32/16/32 33/17/33 44/23/44 42/22/42
f 33/17/33 34/18/34 46/24/46 44/23/44
f 34/18/34 35/44/35 48/48/48 46/24/46
f 35/69/35 30/14/30 36/19/36 48/72/48
f 50/25/50 51/26/50 39/71/39 38/78/38
f 51/26/50 52/76/50 49/74/49 39/71/39
f 52/84/50 53/27/50 47/82/47 49/83/49
f 53/27/50 54/28/50 45/81/45 47/82/47
f 54/28/50 55/29/50 43/80/43 45/81/45
f 55/29/50 56/30/50 41/79/41 43/80/43
f 56/30/50 50/25/50 38/78/38 41/79/41
s 1
f 17/75/17 18/73/18 57/57/51
f 18/73/18 19/70/19 57/57/51
f 19/70/19 20/67/20 57/57/51
f 20/67/20 21/63/21 57/57/51
f 21/63/21 16/60/16 57/57/51
f 16/60/16 15/47/15 57/57/51
f 15/47/15 17/52/17 57/57/51
f 52/76/50 51/26/50 58/77/50
f 51/26/50 50/25/50 58/77/50
f 50/25/50 56/30/50 58/77/50
f 56/30/50 55/29/50 58/77/50
f 55/29/50 54/28/50 58/77/50
f 54/28/50 53/27/50 58/77/50
f 53/27/50 52/84/50 58/77/50
# h3dt: 58 84 51 63
