# author: headus 3D tools
#  using: ply2obj v1.10
#   from: uvlayout v2.10.01
# 126 vertices
v -959.06400 84.32700 320.62500
v -830.79605 84.32700 320.62500
v -830.79605 84.32700 647.47254
v -959.06400 84.32700 647.47254
v -823.80739 160.19299 302.81650
v -966.05270 160.19299 302.81650
v -966.05270 160.19299 665.28108
v -823.80739 160.19299 665.28108
v -959.06400 84.32700 665.14776
v -830.79605 84.32700 665.14776
v -826.81778 127.51370 676.38164
v -963.04227 127.51370 676.38164
v -793.84288 88.86259 643.97190
v -793.84288 88.86259 324.12551
v -788.92146 122.97800 316.33973
v -788.92146 122.97800 651.75784
v -830.79605 84.32700 302.94972
v -959.06400 84.32700 302.94972
v -963.04227 127.51370 291.71582
v -826.81778 127.51370 291.71582
v -973.41489 84.32700 320.62500
v -973.41489 84.32700 647.47254
v -978.28336 127.51370 657.60992
v -978.28336 127.51370 310.48753
v -823.80739 160.19299 290.94911
v -966.05270 160.19299 290.94911
v -966.05270 160.19299 677.14844
v -823.80739 160.19299 677.14844
v -816.44517 84.32700 320.62500
v -816.44517 84.32700 302.94972
v -811.57669 127.51370 291.71582
v -811.57669 127.51370 310.48753
v -811.57669 127.51370 657.60992
v -811.57669 127.51370 676.38164
v -816.44517 84.32700 665.14776
v -816.44517 84.32700 647.47254
v -973.41489 84.32700 665.14776
v -978.28336 127.51370 676.38164
v -978.28336 127.51370 291.71582
v -973.41489 84.32700 302.94972
v -974.23355 160.19299 302.81650
v -974.23355 160.19299 665.28108
v -815.62650 160.19299 665.28108
v -815.62650 160.19299 302.81650
v -837.02787 7.02842 323.94592
v -826.04825 7.02842 323.94592
v -826.04825 7.02842 337.88079
v -837.02787 7.02842 337.88079
v -952.83219 7.02842 337.88079
v -963.81180 7.02842 337.88079
v -963.81180 7.02842 323.94592
v -952.83219 7.02842 323.94592
v -952.83219 7.02842 644.15160
v -963.81180 7.02842 644.15160
v -963.81180 7.02842 630.21672
v -952.83219 7.02842 630.21672
v -837.02787 7.02842 630.21672
v -826.04825 7.02842 630.21672
v -826.04825 7.02842 644.15160
v -837.02787 7.02842 644.15160
v -974.23355 160.19299 290.94911
v -815.62650 160.19299 290.94911
v -815.62650 160.19299 677.14844
v -974.23355 160.19299 677.14844
v -963.04227 127.51370 668.97508
v -970.87686 127.51370 668.97508
v -826.81778 127.51370 668.97508
v -818.98306 127.51370 668.97508
v -818.98306 127.51370 657.60992
v -818.98306 127.51370 310.48753
v -818.98306 127.51370 299.12241
v -826.81778 127.51370 299.12241
v -963.04227 127.51370 299.12241
v -970.87686 127.51370 299.12241
v -970.87686 127.51370 310.48753
v -970.87686 127.51370 657.60992
v -963.41306 131.53969 669.98204
v -971.29050 131.53969 669.98204
v -826.44697 131.53969 669.98204
v -818.56955 131.53969 669.98204
v -818.56955 131.53969 658.55508
v -818.56955 131.53969 309.54242
v -818.56955 131.53969 298.11542
v -826.44697 131.53969 298.11542
v -963.41306 131.53969 298.11542
v -971.29050 131.53969 298.11542
v -971.29050 131.53969 309.54242
v -971.29050 131.53969 658.55508
v -982.09836 131.53969 680.79004
v -963.41306 131.53969 680.79004
v -966.05270 160.19299 688.37292
v -985.45810 160.19299 688.37292
v -826.44697 131.53969 680.79004
v -823.80739 160.19299 688.37292
v -807.76170 131.53969 680.79004
v -804.40195 160.19299 688.37292
v -807.76170 131.53969 658.55508
v -804.40195 160.19299 665.28108
v -807.76170 131.53969 309.54242
v -804.40195 160.19299 302.81650
v -807.76170 131.53969 287.30750
v -804.40195 160.19299 279.72452
v -826.44697 131.53969 287.30750
v -823.80739 160.19299 279.72452
v -963.41306 131.53969 287.30750
v -966.05270 160.19299 279.72452
v -982.09836 131.53969 287.30750
v -985.45810 160.19299 279.72452
v -982.09836 131.53969 309.54242
v -985.45810 160.19299 302.81650
v -982.09836 131.53969 658.55508
v -985.45810 160.19299 665.28108
v -815.93388 88.86259 324.12551
v -815.93388 88.86259 643.97190
v -812.08786 122.97800 316.33973
v -812.08786 122.97800 651.75784
v -809.37905 105.54679 324.99169
v -809.37905 105.54679 643.10572
v -796.10997 105.54679 643.10572
v -796.10997 105.54679 324.99169
v -814.05295 105.54679 320.31782
v -814.05295 105.54679 647.77960
v -793.70895 122.97800 646.97044
v -807.30045 122.97800 646.97044
v -793.70895 122.97800 321.12708
v -807.30045 122.97800 321.12708
# 92 normals
vn 0.368095 -0.868492 0.332021
vn -0.368095 -0.868492 0.332021
vn -0.368095 -0.868492 -0.332021
vn 0.368095 -0.868492 -0.332021
vn 0.000000 1.000000 0.000000
vn 0.236282 -0.487884 0.840231
vn -0.236282 -0.487884 0.840231
vn 0.000000 0.611610 0.791033
vn 0.539828 -0.671580 0.507386
vn 0.539828 -0.671580 -0.507386
vn 0.605933 0.481170 -0.633309
vn 0.605933 0.481170 0.633309
vn -0.236282 -0.487884 -0.840231
vn 0.236282 -0.487884 -0.840231
vn 0.000000 0.611610 -0.791033
vn -0.904291 -0.337484 0.261399
vn -0.904291 -0.337484 -0.261399
vn -0.745681 0.666209 0.000000
vn 0.904291 -0.337484 0.261399
vn 0.691937 -0.260026 -0.673381
vn 0.595709 0.480071 -0.643777
vn 0.745681 0.666209 0.000000
vn 0.745681 0.666209 0.000000
vn 0.595709 0.480071 0.643777
vn 0.691937 -0.260026 0.673381
vn 0.904291 -0.337484 -0.261399
vn -0.691937 -0.260026 0.673381
vn -0.595709 0.480071 0.643777
vn -0.595709 0.480071 -0.643777
vn -0.691937 -0.260026 -0.673381
vn -0.619514 -0.614692 -0.488097
vn 0.548923 -0.675670 -0.491973
vn 0.530580 -0.541018 0.652414
vn -0.589178 -0.497131 0.636819
vn 0.589178 -0.497131 0.636819
vn -0.530580 -0.541018 0.652414
vn -0.548923 -0.675670 -0.491973
vn 0.619514 -0.614692 -0.488097
vn 0.619514 -0.614692 0.488097
vn -0.548923 -0.675670 0.491973
vn -0.530580 -0.541018 -0.652414
vn 0.589178 -0.497131 -0.636819
vn -0.589178 -0.497131 -0.636819
vn 0.530580 -0.541018 -0.652414
vn 0.548923 -0.675670 0.491973
vn -0.619514 -0.614692 0.488097
vn 0.000000 0.615333 0.788195
vn -0.377312 0.861716 0.338796
vn 0.377312 0.861716 0.338796
vn 0.742324 0.669932 0.000000
vn 0.377312 0.861716 -0.338796
vn 0.000000 0.615333 -0.788195
vn -0.377312 0.861716 -0.338796
vn -0.742324 0.669932 0.000000
vn 0.000000 -0.788195 0.615333
vn -0.237594 -0.936794 0.256821
vn 0.237594 -0.936794 0.256821
vn 0.669932 -0.742324 0.000000
vn 0.237594 -0.936794 -0.256821
vn 0.000000 -0.788195 -0.615333
vn -0.237594 -0.936794 -0.256821
vn -0.669932 -0.742324 0.000000
vn -0.551120 -0.672221 0.494140
vn 0.000000 -0.792376 0.609931
vn 0.000000 0.609931 0.792376
vn -0.596777 0.477812 0.644540
vn 0.551120 -0.672221 0.494140
vn 0.596777 0.477812 0.644540
vn 0.664622 -0.747024 0.000000
vn 0.747024 0.664622 0.000000
vn 0.551120 -0.672221 -0.494140
vn 0.596777 0.477812 -0.644540
vn 0.000000 -0.792376 -0.609931
vn 0.000000 0.609931 -0.792376
vn -0.551120 -0.672221 -0.494140
vn -0.596777 0.477812 -0.644540
vn -0.664622 -0.747024 0.000000
vn -0.747024 0.664622 0.000000
vn 0.847739 -0.455899 -0.270738
vn 0.847739 -0.455899 0.270738
vn 0.993011 0.010834 -0.116584
vn 0.993011 0.010834 0.116584
vn -0.194287 0.865318 0.461881
vn -0.194287 0.865318 -0.461881
vn -0.541812 0.668315 -0.509400
vn -0.541812 0.668315 0.509400
vn 0.398187 0.596533 0.696789
vn 0.398187 0.596533 -0.696789
vn -0.241317 0.936977 -0.252335
vn -0.261399 0.719770 -0.643014
vn -0.241317 0.936977 0.252335
vn -0.261399 0.719770 0.643014
# 240 uv coords
vt 0.952850 0.507618
vt 0.954516 0.495881
vt 0.958334 0.491074
vt 0.970296 0.476939
vt 1.003759 0.433361
vt 1.015625 0.416536
vt 1.028672 0.423935
vt 1.025890 0.397869
vt 1.039632 0.404439
vt 1.307698 -0.224281
vt 1.321960 -0.217994
vt 1.317118 -0.244947
vt 1.331242 -0.238541
vt 0.706255 0.429913
vt 0.708367 0.412126
vt 0.712561 0.401709
vt 0.727465 0.383065
vt 0.758317 0.332807
vt 0.758727 0.305650
vt 0.770545 0.311924
vt 0.767363 0.284078
vt 0.780913 0.289958
vt 1.048654 -0.339333
vt 1.062792 -0.333550
vt 1.057815 -0.360131
vt 1.072040 -0.354057
vt 0.721984 -1.192514
vt 0.724759 -1.159305
vt 0.871629 -1.165294
vt 0.873816 -1.139112
vt 0.692468 -1.199405
vt 0.689688 -1.166196
vt 0.540627 -1.146027
vt 0.542819 -1.172209
vt 0.926469 0.585576
vt 0.920866 0.615784
vt 0.686593 0.556055
vt 0.697856 0.517528
vt 0.947245 0.621640
vt 0.803575 1.219190
vt 0.768681 1.247959
vt 0.534023 1.189492
vt 0.541990 1.157021
vt 0.776792 1.215539
vt 0.515859 1.150469
vt 0.660005 0.550914
vt 0.788175 1.366322
vt 0.767377 1.368844
vt 0.517591 1.306123
vt 0.497633 1.299743
vt 0.684596 0.513692
vt 0.980373 0.515175
vt 0.951858 0.593579
vt 0.793453 1.391264
vt 0.773813 1.394972
vt 0.507505 1.330863
vt 0.488523 1.323915
vt 0.627814 0.458343
vt 0.673843 0.428776
vt 0.668220 0.530855
vt 0.968849 0.501159
vt 0.646263 1.475279
vt 0.636504 1.443416
vt 0.637459 1.397064
vt 0.623602 1.427371
vt 0.288552 1.017520
vt 0.214442 0.977530
vt 0.659517 0.400941
vt 0.664014 0.389734
vt 0.688308 0.406095
vt 0.971453 0.498283
vt 0.190041 1.003822
vt 0.014874 0.496163
vt 0.009797 0.483582
vt 0.667986 0.390199
vt 0.674000 0.385467
vt 0.694381 0.391366
vt 0.999493 0.495878
vt 0.415468 1.099120
vt 0.397123 1.117928
vt 0.263488 1.045896
vt 0.177727 1.030167
vt -0.011555 0.516212
vt -0.013315 0.497184
vt 0.254880 -0.120969
vt 0.260002 -0.126885
vt 0.662063 0.387064
vt 0.668943 0.375822
vt 0.697487 0.355670
vt 1.035661 0.452751
vt 0.388482 1.133594
vt 0.378964 1.151976
vt 0.249556 1.074082
vt 0.128083 1.293190
vt 0.052887 1.254350
vt -0.034655 0.504317
vt -0.032683 0.491082
vt 0.241801 -0.140699
vt 0.247728 -0.145792
vt 0.554326 -0.271768
vt 0.573901 -0.269670
vt 0.669716 0.296215
vt 0.720106 0.301538
vt 0.734884 0.318790
vt 0.036798 1.277289
vt -0.286541 0.540470
vt -0.291973 0.528172
vt 0.231037 -0.153730
vt 0.237730 -0.157813
vt 0.561431 -0.299323
vt 0.589009 -0.304992
vt 0.873727 -0.346896
vt 0.928347 -0.336737
vt 0.747994 0.276278
vt 1.058384 0.414031
vt 0.254115 1.378593
vt 0.241448 1.394966
vt 0.110435 1.318910
vt 0.026759 1.310445
vt -0.306007 0.557895
vt -0.308335 0.538750
vt 0.090500 -0.370891
vt 0.097036 -0.375203
vt 0.548795 -0.317226
vt 0.566098 -0.326228
vt 0.896963 -0.390411
vt 0.949644 -0.371362
vt 1.029276 -0.347760
vt 1.341243 -0.209168
vt 0.235365 1.406916
vt 0.226640 1.431697
vt 0.098598 1.353859
vt 0.087131 1.359124
vt 0.031233 1.323339
vt -0.335082 0.542785
vt -0.332257 0.529512
vt 0.083672 -0.386062
vt 0.090898 -0.388994
vt 0.499607 -0.577779
vt 0.519162 -0.576093
vt 0.911116 -0.429839
vt 0.960416 -0.403442
vt 1.046879 -0.387968
vt 1.080632 -0.373465
vt 1.325852 -0.264333
vt 1.359283 -0.249095
vt -0.128915 1.929373
vt -0.134600 1.920449
vt -0.212569 1.919412
vt -0.988180 0.561577
vt -0.988730 0.547626
vt 0.072786 -0.406489
vt 0.080472 -0.407750
vt 0.504187 -0.598206
vt 0.531688 -0.604970
vt 1.033715 -0.663349
vt 1.084205 -0.639076
vt -0.200504 1.911753
vt 0.059410 1.342184
vt -0.166906 1.916594
vt -1.023657 0.563397
vt -1.010419 0.548743
vt -0.109775 -1.035992
vt -0.102927 -1.039800
vt 0.485913 -0.618181
vt 0.502304 -0.629196
vt 1.055523 -0.696451
vt 1.103981 -0.668056
vt -0.140454 1.960927
vt -0.224700 1.952864
vt -0.115610 -1.056831
vt -0.108777 -1.060722
vt 0.263135 -1.240682
vt 0.282385 -1.247362
vt 1.071042 -0.739516
vt 1.116972 -0.707860
vt 0.256175 -1.261401
vt 0.268973 -1.287220
vt 1.342864 -1.341120
vt 1.397634 -1.330188
vt 1.360432 -1.379532
vt 1.415849 -1.369948
vt 0.354608 -1.177015
vt 0.361386 -1.203210
vt 0.508894 -1.177179
vt 0.503708 -1.157138
vt 0.371983 -1.219514
vt 0.372160 -1.252838
vt 0.518159 -1.212476
vt 0.518018 -1.186204
vt 0.687301 -1.247232
vt 0.694432 -1.221131
vt 0.545614 -1.199244
vt 0.540158 -1.219213
vt 0.877761 -1.273317
vt 0.877936 -1.239993
vt 0.731898 -1.206691
vt 0.731760 -1.232963
vt 0.553445 -1.047333
vt 0.580371 -1.049996
vt 0.606928 -0.900860
vt 0.586327 -0.898835
vt 0.609479 -0.874705
vt 0.588876 -0.872693
vt 0.659726 -1.042371
vt 0.686651 -1.039704
vt 0.653743 -0.891198
vt 0.633144 -0.893254
vt 0.651109 -0.865050
vt 0.630512 -0.867123
vt -0.285588 -0.053937
vt 0.240215 0.269846
vt 0.251718 0.301807
vt 0.239392 0.305126
vt 0.228401 0.273029
vt 0.215809 0.294569
vt -0.292691 -0.019070
vt -0.317285 -0.038784
vt -0.319303 -0.051388
vt -0.283460 -0.041862
vt -0.321921 -0.045329
vt -0.322137 -0.020129
vt -0.336962 -0.052035
vt -0.325111 -0.010234
vt -0.405223 -0.032584
vt -0.385812 0.003925
vt -0.909948 0.302021
vt -0.337246 0.049479
vt -0.863839 0.399645
vt -0.887212 0.336973
vt -0.961295 0.344491
vt -0.937279 0.380973
vt -0.339815 0.061906
vt -0.851267 0.402242
vt -0.949803 0.378463
vt -0.963951 0.357097
vt -0.327521 0.093523
vt -0.826795 0.425856
vt -0.980352 0.393333
vt -0.994194 0.372494
# 124 polygons
usemtl wire_177027088
s 2
g Box011
f 1/37/1 2/36/2 3/44/3 4/43/4
s 4
f 5/8/5 6/22/5 7/24/5 8/10/5
s 8
f 9/93/6 10/94/7 11/95/8 12/82/8
s 16
f 13/230/9 14/226/10 15/228/11 16/229/12
s 32
f 17/35/13 18/38/14 19/14/15 20/1/15
s 64
f 21/60/16 22/66/17 23/67/18 24/58/18
s 2
f 18/38/14 17/35/13 2/36/2 1/37/1
f 10/41/7 9/42/6 4/43/4 3/44/3
s 4
f 25/6/5 26/20/5 6/22/5 5/8/5
f 27/26/5 28/12/5 8/10/5 7/24/5
s 16
f 29/147/19 30/169/20 31/170/21 32/149/22
f 33/119/23 34/105/24 35/118/25 36/132/26
s 64
f 22/66/17 37/81/27 38/72/28 23/67/18
f 24/58/18 39/59/29 40/51/30 21/60/16
s 2
f 2/36/2 29/39/19 36/40/26 3/44/3
f 4/43/4 22/45/17 21/46/16 1/37/1
s 4
f 6/22/5 41/21/5 42/23/5 7/24/5
f 8/10/5 43/11/5 44/9/5 5/8/5
s 8
f 10/94/7 35/118/25 34/105/24 11/95/8
f 12/82/8 38/72/28 37/81/27 9/93/6
s 32
f 18/38/14 40/51/30 39/59/29 19/14/15
f 20/1/15 31/52/21 30/53/20 17/35/13
s 2
f 45/208/31 46/207/32 47/209/33 48/210/34
f 49/203/35 50/204/36 51/202/37 52/201/38
f 53/56/39 54/57/40 55/50/41 56/49/42
f 57/48/43 58/47/44 59/54/45 60/55/46
s 4
f 26/20/5 61/19/5 41/21/5 6/22/5
f 5/8/5 44/9/5 62/7/5 25/6/5
f 28/12/5 63/13/5 43/11/5 8/10/5
f 7/24/5 42/23/5 64/25/5 27/26/5
s off
f 38/83/28 12/96/8 65/97/47 66/84/48
f 12/96/8 11/106/8 67/107/47 65/97/47
f 11/106/8 34/120/24 68/121/49 67/107/47
f 34/120/24 33/135/23 69/136/50 68/121/49
f 33/135/23 32/150/22 70/151/50 69/136/50
f 32/150/22 31/161/21 71/162/51 70/151/50
f 31/52/21 20/1/15 72/2/52 71/61/51
f 20/1/15 19/14/15 73/15/52 72/2/52
f 19/14/15 39/59/29 74/70/53 73/15/52
f 39/59/29 24/68/18 75/69/54 74/70/53
f 24/68/18 23/73/18 76/74/54 75/69/54
f 23/73/18 38/83/28 66/84/48 76/74/54
f 66/98/48 65/108/47 77/109/55 78/99/56
f 65/108/47 67/122/47 79/123/55 77/109/55
f 67/122/47 68/137/49 80/138/57 79/123/55
f 68/137/49 69/152/50 81/153/58 80/138/57
f 69/152/50 70/163/50 82/164/58 81/153/58
f 70/163/50 71/171/51 83/172/59 82/164/58
f 71/61/51 72/2/52 84/3/60 83/71/59
f 72/2/52 73/15/52 85/16/60 84/3/60
f 73/15/52 74/70/53 86/77/61 85/16/60
f 74/70/53 75/75/54 87/76/62 86/77/61
f 75/75/54 76/85/54 88/86/62 87/76/62
f 76/85/54 66/98/48 78/99/56 88/86/62
f 89/126/63 90/141/64 91/142/65 92/127/66
f 90/141/64 93/156/64 94/157/65 91/142/65
f 93/156/64 95/167/67 96/168/68 94/157/65
f 95/167/67 97/175/69 98/176/70 96/168/68
f 97/175/69 99/179/69 100/180/70 98/176/70
f 99/179/69 101/181/71 102/182/72 100/180/70
f 101/78/71 103/4/73 104/5/74 102/90/72
f 103/4/73 105/17/73 106/18/74 104/5/74
f 105/17/73 107/89/75 108/104/76 106/18/74
f 107/89/75 109/102/77 110/103/78 108/104/76
f 109/102/77 111/112/77 112/113/78 110/103/78
f 111/112/77 89/126/63 92/127/66 112/113/78
f 78/110/56 77/124/55 90/125/64 89/111/63
f 77/124/55 79/139/55 93/140/64 90/125/64
f 79/139/55 80/154/57 95/155/67 93/140/64
f 80/154/57 81/165/58 97/166/69 95/155/67
f 81/165/58 82/173/58 99/174/69 97/166/69
f 82/173/58 83/177/59 101/178/71 99/174/69
f 83/71/59 84/3/60 103/4/73 101/78/71
f 84/3/60 85/16/60 105/17/73 103/4/73
f 85/16/60 86/77/61 107/89/75 105/17/73
f 86/77/61 87/87/62 109/88/77 107/89/75
f 87/87/62 88/100/62 111/101/77 109/88/77
f 88/100/62 78/110/56 89/111/63 111/101/77
f 27/26/5 64/25/5 92/143/66 91/144/65
f 64/25/5 42/23/5 112/128/78 92/143/66
f 42/23/5 41/21/5 110/114/78 112/128/78
f 41/21/5 61/19/5 108/104/76 110/114/78
f 61/19/5 26/20/5 106/18/74 108/104/76
f 26/20/5 25/6/5 104/5/74 106/18/74
f 25/6/5 62/7/5 102/90/72 104/5/74
f 62/7/5 44/9/5 100/115/70 102/90/72
f 44/9/5 43/11/5 98/129/70 100/115/70
f 43/11/5 63/13/5 96/146/68 98/129/70
f 63/13/5 28/12/5 94/145/65 96/146/68
f 28/12/5 27/26/5 91/144/65 94/145/65
f 36/132/26 29/147/19 113/148/79 114/133/80
f 29/147/19 32/149/22 115/158/81 113/148/79
f 32/149/22 33/119/23 116/134/82 115/158/81
f 33/119/23 36/132/26 114/133/80 116/134/82
f 114/227/80 113/225/79 14/226/10 13/230/9
f 113/225/79 115/223/81 15/224/11 14/226/10
f 117/220/83 118/215/84 119/216/85 120/217/86
f 116/231/82 114/227/80 13/230/9 16/232/12
f 121/211/87 122/212/88 118/215/84 117/220/83
f 116/231/82 16/232/12 123/235/89 124/236/90
f 16/229/12 15/228/11 125/233/91 123/234/89
f 15/224/11 115/223/81 126/221/92 125/222/91
f 115/158/81 116/134/82 122/159/88 121/160/87
f 116/213/82 124/214/90 118/215/84 122/212/88
f 124/236/90 123/235/89 119/239/85 118/240/84
f 123/234/89 125/233/91 120/237/86 119/238/85
f 125/222/91 126/221/92 117/220/83 120/217/86
f 126/218/92 115/219/81 121/211/87 117/220/83
f 30/31/20 29/32/19 47/33/33 46/34/32
f 29/183/19 2/184/2 48/185/34 47/186/33
f 2/187/2 17/188/13 45/189/31 48/190/34
f 17/205/13 30/206/20 46/207/32 45/208/31
f 40/199/30 18/200/14 52/201/38 51/202/37
f 18/195/14 1/196/1 49/197/35 52/198/38
f 1/191/1 21/192/16 50/193/36 49/194/35
f 21/28/16 40/27/30 51/29/37 50/30/36
f 37/81/27 22/66/17 55/79/41 54/80/40
f 22/45/17 4/43/4 56/49/42 55/50/41
f 4/64/4 9/65/6 53/56/39 56/49/42
f 9/93/6 37/81/27 54/91/40 53/92/39
f 35/118/25 10/94/7 60/116/46 59/117/45
f 10/62/7 3/63/3 57/48/43 60/55/46
f 3/44/3 36/40/26 58/47/44 57/48/43
f 36/132/26 35/118/25 59/130/45 58/131/44
# h3dt: 126 240 92 124
