# author: headus 3D tools
#  using: ply2obj v1.10
#   from: uvlayout v2.10.01
# 96 vertices
v -147.80900 137.80800 304.85400
v -146.13861 134.34400 279.70349
v -122.02470 142.81530 279.13290
v -125.62221 150.52380 304.35959
v -101.41881 160.05020 277.97220
v -104.97430 167.75860 303.68939
v -85.73320 189.38910 275.99619
v -86.01051 189.98088 302.82520
v -146.13861 134.34400 254.41820
v -122.02470 142.81530 253.60660
v -101.41881 160.05020 251.95531
v -85.73320 189.38910 249.14430
v -146.13861 134.34400 229.13299
v -122.02470 142.81530 228.08030
v -101.41881 160.05020 225.93839
v -85.73320 189.38910 222.29230
v -146.13861 134.34400 203.84779
v -122.02470 142.81530 202.55389
v -101.41881 160.05020 199.92149
v -85.73320 189.38910 195.44040
v -147.63881 137.45682 177.99851
v -125.27640 149.79100 175.76350
v -104.30010 166.31170 172.76998
v -85.87501 189.69179 168.53359
v -148.96799 140.18989 304.76141
v -131.70750 163.14750 303.86871
v -137.89070 175.49190 276.93219
v -152.07248 146.48509 278.88580
v -110.99050 180.38229 303.19849
v -117.10621 192.72670 275.77139
v -86.67350 191.39090 302.77039
v -88.26890 194.75810 275.63462
v -137.89070 175.49190 250.47580
v -152.07248 146.48509 253.25501
v -117.10621 192.72670 248.82449
v -88.26890 194.75810 248.62990
v -137.89070 175.49190 224.01939
v -152.07248 146.48509 227.62421
v -117.10621 192.72670 221.87750
v -88.26890 194.75810 221.62510
v -137.89070 175.49190 197.56300
v -152.07248 146.48509 201.99339
v -117.10621 192.72670 194.93060
v -88.26890 194.75810 194.62030
v -131.53120 162.78880 173.40839
v -148.06220 138.33000 177.84029
v -111.41441 181.25320 170.06259
v -87.00571 192.09520 168.09809
v -342.43348 158.71139 451.10211
v -328.38110 154.98410 429.38199
v -309.44588 145.97339 444.03877
v -323.00960 154.19090 467.24359
v -288.77741 145.93089 461.35591
v -302.59609 154.12130 484.98110
v -265.76180 158.32330 482.31440
v -281.08139 158.95489 504.48600
v -313.87812 154.98410 408.66949
v -294.80461 145.97339 423.12880
v -273.85470 145.93089 440.04408
v -250.36011 158.32330 460.31861
v -299.37508 154.98410 387.95709
v -280.16330 145.97339 402.21891
v -258.93209 145.93089 418.73230
v -234.95850 158.32330 438.32284
v -284.87209 154.98410 367.24459
v -265.52200 145.97339 381.30890
v -244.00939 145.93089 397.42050
v -219.55680 158.32330 416.32690
v -269.70950 158.33290 347.07519
v -249.33359 153.40730 361.66409
v -227.67450 152.57950 377.26089
v -204.08849 158.64629 394.38571
v -342.13030 161.28100 451.79031
v -321.36640 167.77270 470.91659
v -304.73059 181.20350 452.73419
v -326.65340 168.09900 432.59570
v -300.90952 167.65880 488.68432
v -283.95000 181.04620 470.12978
v -280.88739 160.46119 504.90360
v -264.94228 164.06610 483.77440
v -289.55580 181.20350 431.06240
v -311.95220 168.09900 411.60018
v -268.49389 181.04620 448.05609
v -249.45300 164.06610 461.65342
v -274.38110 181.20350 409.39059
v -297.25100 168.09900 390.60470
v -253.03770 181.04620 425.98251
v -233.96370 164.06610 439.53239
v -259.20629 181.20350 387.71879
v -282.54978 168.09900 369.60919
v -237.58159 181.04620 403.90880
v -218.47441 164.06610 417.41141
v -246.57400 167.38459 363.93539
v -269.52609 159.27400 347.22627
v -224.45460 168.59840 379.90521
v -203.56200 161.21420 394.81698
# 80 normals
vn -0.259110 -0.728072 0.634591
vn -0.344015 -0.938015 0.038882
vn 0.406183 -0.904199 0.131783
vn 0.302020 -0.527345 0.794085
vn 0.689831 -0.712782 0.125954
vn 0.389916 -0.473295 0.789721
vn 0.999481 -0.030977 0.005127
vn 0.797717 -0.097571 0.594977
vn -0.361411 -0.932338 0.000000
vn 0.404077 -0.914637 0.000000
vn 0.692700 -0.721235 0.000000
vn 0.999573 -0.028353 0.000000
vn -0.347922 -0.936977 -0.032198
vn 0.395196 -0.911982 -0.109839
vn 0.678539 -0.727980 -0.096930
vn 0.999481 -0.030245 -0.003021
vn -0.269395 -0.813587 -0.515199
vn 0.259018 -0.668986 -0.696698
vn 0.368797 -0.628884 -0.684337
vn 0.803211 -0.159647 -0.573796
vn -0.772020 0.040621 0.634194
vn -0.357627 0.477934 0.802173
vn -0.682689 0.705915 0.188397
vn -0.997192 0.032686 0.066929
vn -0.245620 0.551425 0.797137
vn -0.301746 0.936214 0.179668
vn 0.293109 0.748917 0.594030
vn 0.450192 0.892480 0.029451
vn -0.705915 0.708173 0.000000
vn -1.000000 0.000031 0.000000
vn -0.304676 0.952390 0.000000
vn 0.463590 0.886071 0.000000
vn -0.705091 0.676219 -0.213026
vn -0.996429 0.027681 -0.078343
vn -0.316517 0.928523 -0.193524
vn 0.452329 0.891412 -0.023897
vn -0.424922 0.276994 -0.861716
vn -0.753494 -0.095373 -0.650430
vn -0.301379 0.409510 -0.860984
vn 0.287096 0.656198 -0.697735
vn -0.900385 -0.434810 0.008210
vn -0.740310 -0.482299 -0.468138
vn -0.188946 -0.981871 0.010621
vn -0.500916 -0.690594 0.521638
vn 0.047214 -0.985595 0.162119
vn -0.436520 -0.699719 0.565312
vn 0.565220 -0.720595 0.401422
vn 0.052677 -0.665995 0.744094
vn -0.723433 -0.468809 -0.506531
vn -0.115028 -0.990081 -0.080541
vn 0.121071 -0.988921 0.084722
vn 0.569676 -0.718580 0.398828
vn -0.693921 -0.482634 -0.534121
vn -0.048556 -0.983794 -0.172526
vn 0.171519 -0.985015 0.009736
vn 0.570195 -0.719313 0.396631
vn -0.217573 -0.390283 -0.894555
vn 0.409785 -0.627510 -0.661997
vn 0.482726 -0.648172 -0.588812
vn 0.774126 -0.598517 -0.205609
vn -0.852316 0.479186 0.209394
vn -0.607184 0.507691 0.611182
vn -0.241989 0.968779 0.053317
vn -0.598791 0.716078 -0.358634
vn -0.508881 0.511933 0.691937
vn 0.082250 0.949734 0.301837
vn 0.161723 0.322072 0.932796
vn 0.738326 0.373436 0.561314
vn -0.131783 0.986938 -0.092260
vn -0.583196 0.702283 -0.408228
vn 0.207135 0.967436 0.145028
vn 0.764695 0.358390 0.535433
vn -0.017549 0.973875 -0.226210
vn -0.521272 0.724470 -0.450986
vn 0.304126 0.952573 0.006623
vn 0.776598 0.370079 0.509827
vn 0.404322 0.594336 -0.695080
vn -0.071171 0.529177 -0.845480
vn 0.502991 0.610236 -0.611915
vn 0.923091 0.378594 -0.067082
# 136 uv coords
vt 0.844348 0.624527
vt 0.759419 0.626262
vt 0.843724 0.706066
vt 0.756848 0.709499
vt 0.842013 0.787828
vt 0.755038 0.792785
vt 0.839377 0.869357
vt 0.753888 0.875950
vt 0.815826 0.400509
vt 0.917175 0.409622
vt 0.732664 0.398182
vt 0.642958 0.407045
vt 0.815643 0.317761
vt 0.919670 0.326148
vt 0.728461 0.314462
vt 0.635419 0.318296
vt 0.813615 0.235285
vt 0.917982 0.242528
vt 0.726451 0.230468
vt 0.633372 0.229461
vt 0.809803 0.152755
vt 0.911936 0.159395
vt 0.726804 0.146848
vt 0.636992 0.140502
vt 0.232749 0.171944
vt 0.224603 0.082834
vt 0.147606 0.165942
vt 0.138291 0.075660
vt 0.235153 0.253200
vt 0.147971 0.248666
vt 0.236344 0.334870
vt 0.149174 0.331700
vt 0.236350 0.416285
vt 0.151220 0.414515
vt 0.231016 0.500840
vt 0.146068 0.499419
vt 0.206737 0.890230
vt 0.308890 0.882888
vt 0.123495 0.896419
vt 0.033734 0.904261
vt 0.208807 0.807401
vt 0.312956 0.799542
vt 0.121718 0.812844
vt 0.028626 0.815547
vt 0.209145 0.724731
vt 0.313045 0.715969
vt 0.122061 0.728715
vt 0.028958 0.726836
vt 0.207781 0.641864
vt 0.309056 0.632801
vt 0.124513 0.644687
vt 0.034383 0.638080
vt 0.040234 0.550165
vt 0.129090 0.549823
vt 0.222476 0.546655
vt 0.321860 0.545613
vt 0.015587 0.635781
vt 0.031470 0.549441
vt 0.312601 0.505258
vt 0.311613 0.509129
vt 0.048500 0.513884
vt 0.051215 0.504862
vt 0.325842 0.546238
vt 0.351501 0.626416
vt 0.009962 0.724863
vt 0.356495 0.711671
vt 0.317602 0.421233
vt 0.044875 0.416311
vt 0.221314 0.977901
vt 0.126964 0.985390
vt 0.009536 0.814273
vt 0.356583 0.796549
vt 0.318935 0.337102
vt 0.041590 0.327184
vt 0.038323 0.990464
vt 0.317925 0.964844
vt 0.014607 0.903524
vt 0.352234 0.881468
vt 0.317798 0.253595
vt 0.040565 0.238560
vt 0.032887 0.989844
vt 0.327373 0.963833
vt 0.314185 0.169558
vt 0.042019 0.149553
vt 0.306777 0.083585
vt 0.045119 0.061319
vt 0.128385 0.031596
vt 0.218188 0.037969
vt 0.305552 0.074272
vt 0.044224 0.055789
vt 0.927121 0.495513
vt 0.830471 0.495360
vt 0.959866 0.415293
vt 0.936379 0.495832
vt 0.739773 0.495012
vt 0.650580 0.495440
vt 0.963161 0.330203
vt 0.752127 0.539512
vt 0.658944 0.525359
vt 0.657554 0.520537
vt 0.921596 0.527814
vt 0.840080 0.539466
vt 0.919815 0.519468
vt 0.645280 0.495687
vt 0.624339 0.410261
vt 0.961712 0.245157
vt 0.923292 0.537880
vt 0.925612 0.620652
vt 0.653251 0.626603
vt 0.657268 0.539782
vt 0.616498 0.321018
vt 0.822759 0.064978
vt 0.923208 0.077010
vt 0.955240 0.159789
vt 0.926197 0.704071
vt 0.649379 0.715032
vt 0.614320 0.231428
vt 0.927352 0.078174
vt 0.924560 0.787007
vt 0.647620 0.803093
vt 0.617836 0.142056
vt 0.641299 0.054258
vt 0.730237 0.059458
vt 0.751609 0.009536
vt 0.837296 0.020371
vt 0.921036 0.870092
vt 0.832710 0.958314
vt 0.744585 0.965071
vt 0.647644 0.891152
vt 0.632280 0.055200
vt 0.917370 0.040000
vt 0.916411 0.043017
vt 0.655036 0.015904
vt 0.651556 0.023841
vt 0.915871 0.954685
vt 0.648164 0.978183
# 92 polygons
usemtl wire_229154215
s 2
g Box006
f 1/107/1 2/108/2 3/1/3 4/102/4
f 4/102/4 3/1/3 5/2/5 6/98/6
f 6/98/6 5/2/5 7/109/7 8/110/8
f 2/108/2 9/115/9 10/3/10 3/1/3
f 3/1/3 10/3/10 11/4/11 5/2/5
f 5/2/5 11/4/11 12/116/12 7/109/7
f 9/115/9 13/119/9 14/5/10 10/3/10
f 10/3/10 14/5/10 15/6/11 11/4/11
f 11/4/11 15/6/11 16/120/12 12/116/12
f 13/119/9 17/126/13 18/7/14 14/5/10
f 14/5/10 18/7/14 19/8/15 15/6/11
f 15/6/11 19/8/15 20/129/16 16/120/12
f 17/126/13 21/135/17 22/127/18 18/7/14
f 18/7/14 22/127/18 23/128/19 19/8/15
f 19/8/15 23/128/19 24/136/20 20/129/16
s 4
f 25/91/21 26/92/22 27/9/23 28/10/24
f 26/92/22 29/95/25 30/11/26 27/9/23
f 29/95/25 31/96/27 32/12/28 30/11/26
f 28/10/24 27/9/23 33/13/29 34/14/30
f 27/9/23 30/11/26 35/15/31 33/13/29
f 30/11/26 32/12/28 36/16/32 35/15/31
f 34/14/30 33/13/29 37/17/29 38/18/30
f 33/13/29 35/15/31 39/19/31 37/17/29
f 35/15/31 36/16/32 40/20/32 39/19/31
f 38/18/30 37/17/29 41/21/33 42/22/34
f 37/17/29 39/19/31 43/23/35 41/21/33
f 39/19/31 40/20/32 44/24/36 43/23/35
f 42/22/34 41/21/33 45/112/37 46/113/38
f 41/21/33 43/23/35 47/123/39 45/112/37
f 43/23/35 44/24/36 48/122/40 47/123/39
s 8
f 1/101/1 4/102/4 26/92/22 25/103/21
f 4/102/4 6/98/6 29/95/25 26/92/22
f 6/98/6 8/99/8 31/100/27 29/95/25
s 16
f 8/104/8 7/105/7 32/12/28 31/96/27
f 7/105/7 12/111/12 36/16/32 32/12/28
f 12/111/12 16/117/12 40/20/32 36/16/32
f 16/117/12 20/121/16 44/24/36 40/20/32
f 20/121/16 24/130/20 48/122/40 44/24/36
s 32
f 24/133/20 23/124/19 47/123/39 48/134/40
f 23/124/19 22/125/18 45/112/37 47/123/39
f 22/125/18 21/131/17 46/132/38 45/112/37
s 64
f 21/118/17 17/114/13 42/22/34 46/113/38
f 17/114/13 13/106/9 38/18/30 42/22/34
f 13/106/9 9/97/9 34/14/30 38/18/30
f 9/97/9 2/93/2 28/10/24 34/14/30
f 2/93/2 1/94/1 25/91/21 28/10/24
s 2
f 49/85/41 50/83/42 51/25/43 52/26/44
f 52/26/44 51/25/43 53/27/45 54/28/46
f 54/28/46 53/27/45 55/84/47 56/86/48
f 50/83/42 57/79/49 58/29/50 51/25/43
f 51/25/43 58/29/50 59/30/51 53/27/45
f 53/27/45 59/30/51 60/80/52 55/84/47
f 57/79/49 61/73/49 62/31/50 58/29/50
f 58/29/50 62/31/50 63/32/51 59/30/51
f 59/30/51 63/32/51 64/74/52 60/80/52
f 61/73/49 65/67/53 66/33/54 62/31/50
f 62/31/50 66/33/54 67/34/55 63/32/51
f 63/32/51 67/34/55 68/68/56 64/74/52
f 65/67/53 69/59/57 70/35/58 66/33/54
f 66/33/54 70/35/58 71/36/59 67/34/55
f 67/34/55 71/36/59 72/62/60 68/68/56
s 4
f 73/76/61 74/69/62 75/37/63 76/38/64
f 74/69/62 77/70/65 78/39/66 75/37/63
f 77/70/65 79/75/67 80/40/68 78/39/66
f 76/38/64 75/37/63 81/41/69 82/42/70
f 75/37/63 78/39/66 83/43/71 81/41/69
f 78/39/66 80/40/68 84/44/72 83/43/71
f 82/42/70 81/41/69 85/45/69 86/46/70
f 81/41/69 83/43/71 87/47/71 85/45/69
f 83/43/71 84/44/72 88/48/72 87/47/71
f 86/46/70 85/45/69 89/49/73 90/50/74
f 85/45/69 87/47/71 91/51/75 89/49/73
f 87/47/71 88/48/72 92/52/76 91/51/75
f 90/50/74 89/49/73 93/55/77 94/56/78
f 89/49/73 91/51/75 95/54/79 93/55/77
f 91/51/75 92/52/76 96/53/80 95/54/79
s 8
f 49/85/41 52/26/44 74/88/62 73/89/61
f 52/26/44 54/28/46 77/87/65 74/88/62
f 54/28/46 56/86/48 79/90/67 77/87/65
s 16
f 56/81/48 55/77/47 80/40/68 79/75/67
f 55/77/47 60/71/52 84/44/72 80/40/68
f 60/71/52 64/65/52 88/48/72 84/44/72
f 64/65/52 68/57/56 92/52/76 88/48/72
f 68/57/56 72/58/60 96/53/80 92/52/76
s 32
f 72/62/60 71/36/59 95/54/79 96/61/80
f 71/36/59 70/35/58 93/55/77 95/54/79
f 70/35/58 69/59/57 94/60/78 93/55/77
s 64
f 69/63/57 65/64/53 90/50/74 94/56/78
f 65/64/53 61/66/49 86/46/70 90/50/74
f 61/66/49 57/72/49 82/42/70 86/46/70
f 57/72/49 50/78/42 76/38/64 82/42/70
f 50/78/42 49/82/41 73/76/61 76/38/64
# h3dt: 96 136 80 92
