# author: headus 3D tools
#  using: ply2obj v1.10
#   from: uvlayout v2.10.01
# 58 vertices
v -62.80600 156.49600 151.64100
v -65.88050 180.68069 146.65030
v -66.72480 179.77960 222.45537
v -63.74979 156.49600 225.37459
v -86.87970 184.78320 145.80371
v -86.48100 185.53010 221.73440
v -107.94070 169.91740 148.87140
v -107.19079 169.41740 223.75458
v -113.97519 143.07450 154.41059
v -113.02450 143.57450 226.99469
v -101.12159 126.33820 157.86428
v -100.64450 127.46180 229.01490
v -78.80558 132.31130 156.63169
v -79.13819 133.21230 228.29389
v -64.34300 182.31849 297.96172
v -61.09051 156.49600 299.10828
v -86.88579 186.37589 297.78161
v -109.30629 170.82639 298.47200
v -115.70080 142.16550 299.74447
v -101.98760 124.29570 300.53800
v -78.20410 130.67340 300.25481
v -68.74749 177.61560 373.61454
v -66.01619 156.49590 372.84190
v -86.08750 185.01099 373.88500
v -107.37919 168.21648 373.27060
v -113.13450 144.77541 372.41318
v -99.49660 130.16010 371.87860
v -79.94169 135.37630 372.06926
v -65.88050 180.68060 449.41872
v -62.80600 156.49590 446.57550
v -86.98130 184.36619 449.85188
v -107.94070 169.91740 448.15340
v -113.97519 143.07440 444.99784
v -101.12159 126.33810 443.03016
v -78.80558 132.31130 443.73240
v -65.88050 180.68060 525.11080
v -62.80600 156.49590 520.30920
v -86.42389 186.65370 526.29660
v -107.94070 169.91740 522.97380
v -113.97519 143.07440 517.64448
v -101.12159 126.33810 514.32172
v -78.80558 132.31130 515.50760
v -81.03189 138.28381 152.59829
v -97.94950 133.78580 153.54059
v -88.13620 156.49600 144.87700
v -107.65670 146.38899 150.90030
v -102.98729 166.60288 146.66560
v -86.81199 179.20609 144.02522
v -71.45478 174.70809 144.96760
v -69.06150 156.49600 148.78290
v -81.03189 138.28381 521.85908
v -69.06150 156.49590 525.58028
v -88.13620 156.49590 531.07680
v -71.45478 174.70809 529.30160
v -86.81199 179.20609 530.22076
v -102.98729 166.60288 527.64556
v -107.65670 146.38899 523.51528
v -97.94950 133.78580 520.94008
# 58 normals
vn 0.843924 -0.304737 -0.441372
vn 0.625526 0.553775 -0.549411
vn 0.725874 0.687634 -0.012025
vn 0.961729 -0.273271 -0.011719
vn -0.157694 0.834920 -0.527071
vn -0.157175 0.987487 -0.007721
vn -0.714918 0.466123 -0.520875
vn -0.789721 0.613288 -0.009431
vn -0.846121 -0.291888 -0.445736
vn -0.968687 -0.247970 -0.012818
vn -0.254776 -0.888482 -0.381493
vn -0.284319 -0.958585 -0.013429
vn 0.430477 -0.817036 -0.383385
vn 0.505188 -0.862876 -0.010132
vn 0.699078 0.714796 0.015656
vn 0.963316 -0.267564 0.014924
vn -0.175670 0.984374 0.002838
vn -0.775621 0.631112 0.002411
vn -0.967527 -0.252335 0.000824
vn -0.290209 -0.956784 0.016877
vn 0.504975 -0.862998 0.013032
vn 0.757279 0.652933 0.012635
vn 0.961973 -0.272813 0.011628
vn -0.110786 0.993774 0.009827
vn -0.785418 0.618690 0.009919
vn -0.960477 -0.277880 0.012635
vn -0.235915 -0.971617 0.012818
vn 0.506318 -0.862113 0.010010
vn 0.695172 0.718397 -0.022859
vn 0.963529 -0.266587 -0.021272
vn -0.177318 0.984099 -0.008729
vn -0.772874 0.634499 -0.008210
vn -0.968290 -0.249527 -0.007538
vn -0.288989 -0.956998 -0.023897
vn 0.506226 -0.862113 -0.018464
vn 0.681072 0.573125 0.455594
vn 0.886376 -0.298236 0.353934
vn -0.139474 0.891229 0.431270
vn -0.765275 0.501373 0.403528
vn -0.883019 -0.290026 0.368797
vn -0.266038 -0.910822 0.315388
vn 0.453671 -0.839285 0.299670
vn 0.183727 -0.524873 -0.831014
vn -0.069828 -0.522981 -0.849478
vn -0.003113 -0.251877 -0.967710
vn -0.305713 -0.294238 -0.905481
vn -0.298236 0.002136 -0.954496
vn -0.087591 0.216596 -0.972288
vn 0.218916 -0.023042 -0.975432
vn 0.315815 -0.342489 -0.884789
vn 0.266496 -0.626381 0.732528
vn 0.478514 -0.351096 0.804737
vn -0.005829 -0.234847 0.971983
vn 0.348379 0.149026 0.925380
vn -0.116584 0.371422 0.921077
vn -0.451321 0.163981 0.877037
vn -0.473631 -0.291583 0.830922
vn -0.112769 -0.637032 0.762437
# 74 uv coords
vt 0.604385 0.189858
vt 0.568123 0.150566
vt 0.632948 0.226754
vt 0.663949 0.277319
vt 0.693208 0.329978
vt 0.716607 0.369992
vt 0.469156 0.287364
vt 0.434681 0.244315
vt 0.497107 0.326098
vt 0.529626 0.373935
vt 0.563958 0.426298
vt 0.590645 0.465805
vt 0.333357 0.386125
vt 0.305917 0.345063
vt 0.358478 0.422104
vt 0.395876 0.471830
vt 0.429923 0.515721
vt 0.457816 0.552384
vt 0.197211 0.485351
vt 0.171640 0.438182
vt 0.224002 0.523703
vt 0.259874 0.566929
vt 0.300881 0.611966
vt 0.331113 0.647068
vt 0.889322 0.306731
vt 0.864964 0.276514
vt 0.922320 0.274734
vt 0.882285 0.245213
vt 0.928342 0.235884
vt 0.968848 0.257232
vt 0.973284 0.292393
vt 0.937840 0.314210
vt 0.216174 0.793739
vt 0.207838 0.841987
vt 0.175005 0.815156
vt 0.175850 0.868230
vt 0.144224 0.852931
vt 0.136722 0.807960
vt 0.160298 0.767533
vt 0.195295 0.761247
vt 0.273712 0.298222
vt 0.392301 0.191735
vt 0.526701 0.103669
vt 0.140682 0.381986
vt 0.654185 0.009803
vt 0.700686 0.055209
vt 0.037562 0.530851
vt 0.009803 0.472026
vt 0.741060 0.092306
vt 0.059854 0.580965
vt 0.769850 0.129650
vt 0.084844 0.620741
vt 0.797824 0.179613
vt 0.126097 0.664697
vt 0.823549 0.235842
vt 0.621584 0.509313
vt 0.483570 0.589929
vt 0.171045 0.706948
vt 0.844859 0.277686
vt 0.747487 0.409054
vt 0.360626 0.688477
vt 0.204219 0.740613
vt 0.877107 0.318037
vt 0.233326 0.784488
vt 0.868065 0.235239
vt 0.942500 0.328469
vt 0.222583 0.851460
vt 0.154823 0.748470
vt 0.929750 0.222110
vt 0.990197 0.299077
vt 0.177665 0.887721
vt 0.121151 0.803670
vt 0.980242 0.251674
vt 0.132185 0.866215
# 63 polygons
usemtl wire_153228153
s 8
g Cylinder001
f 1/46/1 2/49/2 3/1/3 4/2/4
f 2/49/2 5/51/5 6/3/6 3/1/3
f 5/51/5 7/53/7 8/4/8 6/3/6
f 7/53/7 9/55/9 10/5/10 8/4/8
f 9/55/9 11/59/11 12/6/12 10/5/10
f 11/59/11 13/63/13 14/60/14 12/6/12
f 13/45/13 1/46/1 4/2/4 14/43/14
f 4/2/4 3/1/3 15/7/15 16/8/16
f 3/1/3 6/3/6 17/9/17 15/7/15
f 6/3/6 8/4/8 18/10/18 17/9/17
f 8/4/8 10/5/10 19/11/19 18/10/18
f 10/5/10 12/6/12 20/12/20 19/11/19
f 12/6/12 14/60/14 21/56/21 20/12/20
f 14/43/14 4/2/4 16/8/16 21/42/21
f 16/8/16 15/7/15 22/13/22 23/14/23
f 15/7/15 17/9/17 24/15/24 22/13/22
f 17/9/17 18/10/18 25/16/25 24/15/24
f 18/10/18 19/11/19 26/17/26 25/16/25
f 19/11/19 20/12/20 27/18/27 26/17/26
f 20/12/20 21/56/21 28/57/28 27/18/27
f 21/42/21 16/8/16 23/14/23 28/41/28
f 23/14/23 22/13/22 29/19/29 30/20/30
f 22/13/22 24/15/24 31/21/31 29/19/29
f 24/15/24 25/16/25 32/22/32 31/21/31
f 25/16/25 26/17/26 33/23/33 32/22/32
f 26/17/26 27/18/27 34/24/34 33/23/33
f 27/18/27 28/57/28 35/61/35 34/24/34
f 28/41/28 23/14/23 30/20/30 35/44/35
f 30/20/30 29/19/29 36/50/36 37/47/37
f 29/19/29 31/21/31 38/52/38 36/50/36
f 31/21/31 32/22/32 39/54/39 38/52/38
f 32/22/32 33/23/33 40/58/40 39/54/39
f 33/23/33 34/24/34 41/62/41 40/58/40
f 34/24/34 35/61/35 42/64/42 41/62/41
f 35/44/35 30/20/30 37/47/37 42/48/42
s 1
f 43/25/43 44/26/44 45/27/45
f 44/26/44 46/28/46 45/27/45
f 46/28/46 47/29/47 45/27/45
f 47/29/47 48/30/48 45/27/45
f 48/30/48 49/31/49 45/27/45
f 49/31/49 50/32/50 45/27/45
f 50/32/50 43/25/43 45/27/45
f 51/33/51 52/34/52 53/35/53
f 52/34/52 54/36/54 53/35/53
f 54/36/54 55/37/55 53/35/53
f 55/37/55 56/38/56 53/35/53
f 56/38/56 57/39/57 53/35/53
f 57/39/57 58/40/58 53/35/53
f 58/40/58 51/33/51 53/35/53
s off
f 2/70/2 1/66/1 50/32/50 49/31/49
f 1/66/1 13/63/13 43/25/43 50/32/50
f 13/63/13 11/59/11 44/26/44 43/25/43
f 11/59/11 9/65/9 46/28/46 44/26/44
f 9/65/9 7/69/7 47/29/47 46/28/46
f 7/69/7 5/73/5 48/30/48 47/29/47
f 5/73/5 2/70/2 49/31/49 48/30/48
f 37/67/37 36/71/36 54/36/54 52/34/52
f 36/71/36 38/74/38 55/37/55 54/36/54
f 38/74/38 39/72/39 56/38/56 55/37/55
f 39/72/39 40/68/40 57/39/57 56/38/56
f 40/68/40 41/62/41 58/40/58 57/39/57
f 41/62/41 42/64/42 51/33/51 58/40/58
f 42/64/42 37/67/37 52/34/52 51/33/51
# h3dt: 58 74 58 63
