# author: headus 3D tools
#  using: ply2obj v1.10
#   from: uvlayout v2.10.01
# 8 vertices
v -980.32600 6.30600 705.72100
v -980.32600 6.30600 165.56500
v -655.14956 6.30600 165.56500
v -655.14956 6.30600 705.72100
v -980.32600 16.32339 705.72100
v -655.14956 16.32339 705.72100
v -655.14956 16.32339 165.56500
v -980.32600 16.32339 165.56500
# 8 normals
vn -0.577397 -0.577397 0.577397
vn -0.577397 -0.577397 -0.577397
vn 0.577397 -0.577397 -0.577397
vn 0.577397 -0.577397 0.577397
vn -0.577397 0.577397 0.577397
vn 0.577397 0.577397 0.577397
vn 0.577397 0.577397 -0.577397
vn -0.577397 0.577397 -0.577397
# 14 uv coords
vt 0.594760 0.615321
vt 0.235356 0.990425
vt 0.009575 0.774100
vt 0.368863 0.399117
vt 0.601549 0.608250
vt 0.375412 0.392288
vt 0.368433 0.385658
vt 0.726995 0.009866
vt 0.733949 0.016537
vt 0.740596 0.009575
vt 0.966803 0.225454
vt 0.960141 0.232422
vt 0.967080 0.239076
vt 0.608549 0.614899
# 6 polygons
usemtl wire_088144225
s 2
g Box009
f 1/6/1 2/9/2 3/12/3 4/5/4
s 4
f 5/4/5 6/1/6 7/2/7 8/3/8
s 8
f 1/6/1 4/5/4 6/1/6 5/4/5
s 16
f 4/5/4 3/12/3 7/13/7 6/14/6
s 32
f 3/12/3 2/9/2 8/10/8 7/11/7
s 64
f 2/9/2 1/6/1 5/7/5 8/8/8
# h3dt: 8 14 8 6
