# author: headus 3D tools
#  using: ply2obj v1.10
#   from: uvlayout v2.10.01
# 28 vertices
v 1788.9420 -109.5090 406.7120
v 1788.9420 -109.5090 100.4645
v 1870.4451 -109.5090 100.4645
v 1870.4451 -109.5090 410.7277
v 1803.9119 893.2052 406.7120
v 1855.4752 893.2052 406.7120
v 1855.8764 866.3300 100.4645
v 1803.5107 866.3300 100.4645
v 1856.2996 837.9818 406.7120
v 1803.0875 837.9818 406.7120
v 1802.6862 811.1068 100.4645
v 1856.7009 811.1068 100.4645
v 1870.0077 -80.2154 123.6122
v 1870.0077 -80.2154 385.4899
v 1857.1382 781.8131 120.2488
v 1856.7370 808.6881 386.8901
v 1789.3793 -80.2154 385.4899
v 1789.3793 -80.2154 123.6122
v 1802.6501 808.6881 386.8901
v 1802.2488 781.8131 120.2488
v 1894.6649 837.9818 406.7120
v 1895.6447 811.1068 100.4645
v 1893.6314 866.3300 100.4645
v 1892.6516 893.2052 403.4180
v 1763.7425 811.1068 100.4645
v 1764.7223 837.9818 406.7120
v 1766.7355 893.2052 406.7120
v 1765.7558 866.3300 100.4645
# 27 normals
vn -0.594519 -0.575871 0.560917
vn -0.581975 -0.573399 -0.576512
vn 0.581975 -0.573399 -0.576512
vn 0.568638 -0.569798 0.593084
vn 0.000000 0.737380 0.675487
vn 0.030062 0.727309 0.685497
vn 0.000000 0.675487 -0.737380
vn 0.279894 -0.288775 0.915492
vn -0.279070 -0.289996 0.915370
vn -0.323994 -0.301135 -0.896722
vn 0.323994 -0.301135 -0.896722
vn 0.901025 0.315296 0.297778
vn 0.901331 0.314442 -0.297687
vn 0.895685 -0.288409 0.338216
vn 0.919093 -0.284411 -0.272630
vn -0.901331 0.314442 -0.297687
vn -0.901025 0.315296 0.297778
vn -0.919093 -0.284411 -0.272630
vn -0.895685 -0.288409 0.338216
vn 0.589300 -0.523073 0.615638
vn 0.584814 -0.594885 -0.551334
vn 0.571110 0.558628 -0.601294
vn 0.584234 0.634377 0.506012
vn -0.584814 -0.594885 -0.551334
vn -0.592718 -0.539217 0.598028
vn -0.560612 0.613532 0.555973
vn -0.571019 0.558933 -0.601080
# 56 uv coords
vt 0.740511 0.516158
vt 0.689252 0.406879
vt 0.711134 0.395926
vt 0.763218 0.506103
vt 0.918360 0.864415
vt 0.884662 0.878412
vt 0.527679 0.037526
vt 0.495450 0.054636
vt 0.151207 0.210384
vt 0.134666 0.190012
vt 0.233446 0.094192
vt 0.251120 0.113599
vt 0.165850 0.225846
vt 0.265471 0.128743
vt 0.266756 0.144515
vt 0.181080 0.230298
vt 0.538334 0.464068
vt 0.527446 0.464159
vt 0.434464 0.549146
vt 0.435955 0.539057
vt 0.509649 0.442206
vt 0.417951 0.517273
vt 0.559199 0.500384
vt 0.465575 0.576750
vt 0.444475 0.574794
vt 0.041252 0.414705
vt 0.050903 0.391451
vt 0.458907 0.044744
vt 0.483269 0.040059
vt 0.560813 0.479648
vt 0.829293 0.819447
vt 0.813073 0.813640
vt 0.714384 0.897883
vt 0.711840 0.880569
vt 0.017255 0.402884
vt 0.025910 0.382275
vt 0.454971 0.018383
vt 0.476543 0.014138
vt 0.030548 0.429955
vt 0.009093 0.417114
vt 0.030549 0.366460
vt 0.054646 0.373132
vt 0.440479 0.044652
vt 0.438757 0.019674
vt 0.491880 0.009093
vt 0.500115 0.032701
vt 0.842050 0.837526
vt 0.727581 0.916562
vt 0.860461 0.859839
vt 0.746151 0.939105
vt 0.757828 0.955522
vt 0.871912 0.875933
vt 0.886420 0.896487
vt 0.772572 0.976414
vt 0.895237 0.911612
vt 0.782759 0.990907
# 28 polygons
usemtl wire_088144225
s off
g Box010
f 1/30/1 2/25/2 3/19/3 4/17/4
f 5/52/5 6/53/6 7/54/7 8/51/7
f 1/30/1 4/17/4 9/28/8 10/29/9
f 3/19/3 2/25/2 11/26/10 12/27/11
f 4/17/4 3/19/3 13/20/12 14/18/13
f 3/19/3 12/13/11 15/16/14 13/20/12
f 12/13/11 9/14/8 16/15/15 15/16/14
f 9/14/8 4/17/4 14/18/13 16/15/15
f 2/25/2 1/30/1 17/23/16 18/24/17
f 1/30/1 10/31/9 19/32/18 17/23/16
f 10/31/9 11/33/10 20/34/19 19/32/18
f 11/33/10 2/25/2 18/24/17 20/34/19
f 10/29/9 9/28/8 6/37/6 5/38/5
f 21/12/20 22/9/21 23/10/22 24/11/23
f 12/27/11 11/26/10 8/35/7 7/36/7
f 25/48/24 26/47/25 27/49/26 28/50/27
f 9/14/8 12/13/11 22/9/21 21/12/20
f 12/27/11 7/36/7 23/41/22 22/42/21
f 7/54/7 6/53/6 24/55/23 23/56/22
f 6/37/6 9/28/8 21/43/20 24/44/23
f 11/33/10 10/31/9 26/47/25 25/48/24
f 10/29/9 5/38/5 27/45/26 26/46/25
f 5/52/5 8/51/7 28/50/27 27/49/26
f 8/35/7 11/26/10 25/39/24 28/40/27
f 17/21/16 14/18/13 13/20/12 18/22/17
f 20/4/19 15/1/14 16/2/15 19/3/18
f 20/4/19 18/5/17 13/6/12 15/1/14
f 17/7/16 19/3/18 16/2/15 14/8/13
# h3dt: 28 56 27 28
